<svg xmlns="http://www.w3.org/2000/svg" width="24" height="25" viewBox="0 0 24 25" fill="none">
  <path d="M15.8398 22.75H8.15984C7.39146 22.7389 6.6556 22.4381 6.09939 21.9079C5.54318 21.3776 5.20763 20.657 5.15984 19.89L4.24984 6.05C4.24518 5.94966 4.26045 5.84938 4.29478 5.75498C4.32911 5.66057 4.38181 5.57391 4.44984 5.5C4.51993 5.4234 4.60478 5.36177 4.6993 5.31881C4.79382 5.27584 4.89605 5.25244 4.99984 5.25H18.9998C19.1027 5.24977 19.2045 5.2707 19.2989 5.31148C19.3933 5.35226 19.4783 5.41202 19.5487 5.48704C19.619 5.56207 19.6732 5.65077 19.7078 5.74761C19.7424 5.84446 19.7567 5.94739 19.7498 6.05L18.8798 19.89C18.8315 20.6638 18.4904 21.3902 17.9257 21.9214C17.361 22.4527 16.6152 22.749 15.8398 22.75ZM5.83984 6.75L6.60984 19.8C6.63528 20.1935 6.80975 20.5625 7.09772 20.8319C7.38569 21.1013 7.76551 21.2508 8.15984 21.25H15.8398C16.2335 21.2485 16.612 21.0982 16.8995 20.8292C17.1869 20.5603 17.3621 20.1927 17.3898 19.8L18.1998 6.8L5.83984 6.75Z" fill="#6A7283"/>
  <path d="M21 6.75H3C2.80109 6.75 2.61032 6.67098 2.46967 6.53033C2.32902 6.38968 2.25 6.19891 2.25 6C2.25 5.80109 2.32902 5.61032 2.46967 5.46967C2.61032 5.32902 2.80109 5.25 3 5.25H21C21.1989 5.25 21.3897 5.32902 21.5303 5.46967C21.671 5.61032 21.75 5.80109 21.75 6C21.75 6.19891 21.671 6.38968 21.5303 6.53033C21.3897 6.67098 21.1989 6.75 21 6.75Z" fill="#6A7283"/>
  <path d="M15 6.75H9C8.80189 6.74741 8.61263 6.66756 8.47253 6.52747C8.33244 6.38737 8.25259 6.19811 8.25 6V4.2C8.26268 3.68682 8.47219 3.19816 8.83518 2.83518C9.19816 2.47219 9.68682 2.26268 10.2 2.25H13.8C14.3217 2.26305 14.8177 2.47951 15.182 2.85317C15.5463 3.22684 15.7502 3.72812 15.75 4.25V6C15.7474 6.19811 15.6676 6.38737 15.5275 6.52747C15.3874 6.66756 15.1981 6.74741 15 6.75ZM9.75 5.25H14.25V4.25C14.25 4.13065 14.2026 4.01619 14.1182 3.9318C14.0338 3.84741 13.9193 3.8 13.8 3.8H10.2C10.0807 3.8 9.96619 3.84741 9.8818 3.9318C9.79741 4.01619 9.75 4.13065 9.75 4.25V5.25ZM15 18.75C14.8019 18.7474 14.6126 18.6676 14.4725 18.5275C14.3324 18.3874 14.2526 18.1981 14.25 18V10C14.25 9.80109 14.329 9.61032 14.4697 9.46967C14.6103 9.32902 14.8011 9.25 15 9.25C15.1989 9.25 15.3897 9.32902 15.5303 9.46967C15.671 9.61032 15.75 9.80109 15.75 10V18C15.7474 18.1981 15.6676 18.3874 15.5275 18.5275C15.3874 18.6676 15.1981 18.7474 15 18.75ZM9 18.75C8.80189 18.7474 8.61263 18.6676 8.47253 18.5275C8.33244 18.3874 8.25259 18.1981 8.25 18V10C8.25 9.80109 8.32902 9.61032 8.46967 9.46967C8.61032 9.32902 8.80109 9.25 9 9.25C9.19891 9.25 9.38968 9.32902 9.53033 9.46967C9.67098 9.61032 9.75 9.80109 9.75 10V18C9.74741 18.1981 9.66756 18.3874 9.52747 18.5275C9.38737 18.6676 9.19811 18.7474 9 18.75ZM12 18.75C11.8019 18.7474 11.6126 18.6676 11.4725 18.5275C11.3324 18.3874 11.2526 18.1981 11.25 18V10C11.25 9.80109 11.329 9.61032 11.4697 9.46967C11.6103 9.32902 11.8011 9.25 12 9.25C12.1989 9.25 12.3897 9.32902 12.5303 9.46967C12.671 9.61032 12.75 9.80109 12.75 10V18C12.7474 18.1981 12.6676 18.3874 12.5275 18.5275C12.3874 18.6676 12.1981 18.7474 12 18.75Z" fill="#6A7283"/>
</svg>