<svg xmlns="http://www.w3.org/2000/svg" width="33" height="33" viewBox="0 0 33 33" fill="none">
  <path d="M19.3672 16.9801C19.3672 16.2729 19.0862 15.5947 18.5862 15.0946C18.0861 14.5945 17.4078 14.3136 16.7006 14.3136C15.9934 14.3136 15.3152 14.5945 14.8151 15.0946C14.315 15.5947 14.0341 16.2729 14.0341 16.9801C14.0341 17.6874 14.315 18.3656 14.8151 18.8657C15.3152 19.3658 15.9934 19.6467 16.7006 19.6467C17.4078 19.6467 18.0861 19.3658 18.5862 18.8657C19.0862 18.3656 19.3672 17.6874 19.3672 16.9801ZM19.3672 7.64703C19.3672 6.93981 19.0862 6.26156 18.5862 5.76149C18.0861 5.26141 17.4078 4.98047 16.7006 4.98047C15.9934 4.98047 15.3152 5.26141 14.8151 5.76149C14.315 6.26156 14.0341 6.93981 14.0341 7.64703C14.0341 8.35424 14.315 9.03249 14.8151 9.53257C15.3152 10.0326 15.9934 10.3136 16.7006 10.3136C17.4078 10.3136 18.0861 10.0326 18.5862 9.53257C19.0862 9.03249 19.3672 8.35424 19.3672 7.64703ZM19.3672 26.3133C19.3672 25.6061 19.0863 24.928 18.5863 24.4279C18.0862 23.9279 17.4081 23.647 16.7009 23.647C15.9938 23.647 15.3156 23.9279 14.8156 24.4279C14.3156 24.928 14.0347 25.6061 14.0347 26.3133C14.0347 27.0204 14.3156 27.6986 14.8156 28.1986C15.3156 28.6986 15.9938 28.9795 16.7009 28.9795C17.4081 28.9795 18.0862 28.6986 18.5863 28.1986C19.0863 27.6986 19.3672 27.0204 19.3672 26.3133Z" fill="#071431"/>
</svg>