<svg xmlns="http://www.w3.org/2000/svg" width="24" height="25" viewBox="0 0 24 25" fill="none">
  <path d="M15.9561 11.0234C15.9561 10.5704 15.5888 10.2031 15.1357 10.2031H6.68652C6.23346 10.2031 5.86621 10.5704 5.86621 11.0234C5.86621 11.4765 6.23346 11.8438 6.68652 11.8438H15.1357C15.5888 11.8438 15.9561 11.4765 15.9561 11.0234ZM6.68652 13.4844C6.23346 13.4844 5.86621 13.8516 5.86621 14.3047C5.86621 14.7577 6.23346 15.125 6.68652 15.125H11.818C12.2711 15.125 12.6383 14.7577 12.6383 14.3047C12.6383 13.8516 12.2711 13.4844 11.818 13.4844H6.68652Z" fill="#6A7283"/>
  <path d="M8.6141 21.3594H5.87061C4.96596 21.3594 4.22998 20.6234 4.22998 19.7188V5.28125C4.22998 4.37661 4.96596 3.64062 5.87061 3.64062H15.9559C16.8605 3.64062 17.5965 4.37661 17.5965 5.28125V10.3262C17.5965 10.7792 17.9638 11.1465 18.4168 11.1465C18.8699 11.1465 19.2371 10.7792 19.2371 10.3262V5.28125C19.2371 3.47197 17.7652 2 15.9559 2H5.87061C4.06132 2 2.58936 3.47197 2.58936 5.28125V19.7188C2.58936 21.528 4.06132 23 5.87061 23H8.6141C9.06716 23 9.43441 22.6327 9.43441 22.1797C9.43441 21.7266 9.06716 21.3594 8.6141 21.3594Z" fill="#6A7283"/>
  <path d="M20.6903 13.877C19.7308 12.9175 18.1695 12.9174 17.2106 13.8763L12.707 18.37C12.6114 18.4654 12.5408 18.583 12.5015 18.7123L11.5207 21.9412C11.478 22.0818 11.4738 22.2312 11.5086 22.3739C11.5434 22.5166 11.6159 22.6474 11.7185 22.7525C11.821 22.8576 11.95 22.9333 12.0918 22.9716C12.2336 23.0099 12.3831 23.0094 12.5246 22.9702L15.8356 22.053C15.9719 22.0153 16.0961 21.943 16.1961 21.8431L20.6903 17.3573C21.6498 16.3978 21.6498 14.8366 20.6903 13.877ZM15.1898 20.5295L13.524 20.991L14.0115 19.3861L17.0503 16.354L18.2106 17.5143L15.1898 20.5295ZM19.5308 16.1967L19.3719 16.3553L18.2117 15.1952L18.3701 15.0371C18.69 14.7173 19.2104 14.7173 19.5302 15.0371C19.8501 15.357 19.8501 15.8774 19.5308 16.1967ZM15.1357 6.92188H6.68652C6.23346 6.92188 5.86621 7.28913 5.86621 7.74219C5.86621 8.19525 6.23346 8.5625 6.68652 8.5625H15.1357C15.5888 8.5625 15.9561 8.19525 15.9561 7.74219C15.9561 7.28913 15.5888 6.92188 15.1357 6.92188Z" fill="#6A7283"/>
</svg>