<svg xmlns="http://www.w3.org/2000/svg" width="32" height="32" viewBox="0 0 32 32" fill="none">
  <path fill-rule="evenodd" clip-rule="evenodd" d="M9.0771 29.4582H24.4108V30.5108C24.4108 31.3312 23.7414 32 22.9216 32H5.50387C4.68226 32 4.01471 31.3306 4.01471 30.5108V5.06427C4.01471 4.24391 4.68414 3.57511 5.50387 3.57511H6.55655V26.9357C6.55655 28.3253 7.68688 29.4582 9.0771 29.4582ZM27.4066 5.98043L22.0055 0.576751C21.9861 0.557339 21.9648 0.537926 21.9435 0.517887V6.04055H27.4674C27.448 6.02113 27.4279 5.99984 27.4066 5.98043ZM27.9859 7.37378V26.9357C27.9859 27.7561 27.3165 28.4249 26.4967 28.4249H9.0771C8.25674 28.4249 7.58794 27.7555 7.58794 26.9357V1.48916C7.58794 0.668806 8.25737 0 9.0771 0H20.6102C20.7129 0 20.8144 0.00688845 20.9121 0.0212916V6.55718C20.9121 6.84274 21.1432 7.07382 21.4287 7.07382H27.9646C27.9784 7.17151 27.9859 7.27108 27.9859 7.37378ZM24.3075 17.4923C24.3075 16.6525 23.6205 15.9656 22.7807 15.9656H19.3121V12.4969C19.3121 11.6571 18.6251 10.9702 17.7854 10.9702C16.9475 10.9702 16.2605 11.6571 16.2605 12.4969V15.9656H12.79C11.9502 15.9656 11.2651 16.6525 11.2651 17.4923C11.2651 18.3321 11.9502 19.019 12.79 19.019H16.2605V22.4877C16.2605 23.3274 16.9475 24.0144 17.7854 24.0144C18.6251 24.0144 19.3121 23.3274 19.3121 22.4877V19.0184H22.7807C23.6205 19.0184 24.3075 18.3314 24.3075 17.4923Z" fill="white"/>
</svg>