<svg xmlns="http://www.w3.org/2000/svg" width="20" height="20" viewBox="0 0 20 20" fill="none">
  <g clip-path="url(#clip0_14629_774)">
    <path d="M14.4677 16.7264C14.6724 16.2814 15.037 15.9553 15.4777 15.8016V14.1406C15.4777 13.1714 16.2662 12.3828 17.2355 12.3828H18.2422C18.4418 12.3827 18.64 12.4168 18.8281 12.4836V1.75781C18.8281 0.788555 18.0396 0 17.0703 0H5.35156C4.3823 0 3.59375 0.788555 3.59375 1.75781V2.61719H13.6719C14.9642 2.61719 16.0156 3.66859 16.0156 4.96094V10.4297C16.0156 11.722 14.9642 12.7734 13.6719 12.7734H3.59375V18.2422C3.59375 19.2114 4.3823 20 5.35156 20H15.9259L14.7301 18.6049C14.278 18.0774 14.1774 17.3576 14.4677 16.7264Z" fill="#B45C3D"/>
    <path d="M19.4128 16.875H18.828V14.1406C18.828 13.817 18.5657 13.5547 18.2421 13.5547H17.2354C16.9118 13.5547 16.6494 13.817 16.6494 14.1406V16.875H16.0646C15.564 16.875 15.2939 17.4622 15.6197 17.8423L17.2938 19.7954C17.5277 20.0682 17.9497 20.0682 18.1836 19.7954L19.8577 17.8423C20.1835 17.4622 19.9134 16.875 19.4128 16.875ZM7.50035 6.13281H6.78535C6.78617 6.6102 6.78746 7.3907 6.78746 7.69098C6.78746 8.04891 6.78973 8.79559 6.79121 9.2559C7.04496 9.25445 7.35852 9.25219 7.5259 9.24926C8.32379 9.23531 8.68719 8.43395 8.68719 7.69531C8.68719 6.93996 8.37543 6.13281 7.50035 6.13281ZM3.70758 6.13281H3.01172C3.01246 6.39141 3.01328 6.70699 3.01328 6.84453C3.01328 7.00672 3.01469 7.31074 3.01594 7.55891C3.25676 7.55762 3.54887 7.55629 3.70758 7.55629C4.10508 7.55629 4.4409 7.23035 4.4409 6.84457C4.4409 6.45879 4.10508 6.13281 3.70758 6.13281Z" fill="#B45C3D"/>
    <path d="M14.8438 10.4297V4.96094C14.8438 4.31371 14.3191 3.78906 13.6719 3.78906H1.17188C0.524648 3.78906 0 4.31371 0 4.96094V10.4297C0 11.0769 0.524648 11.6016 1.17188 11.6016H13.6719C14.3191 11.6016 14.8438 11.0769 14.8438 10.4297ZM3.7077 8.3375C3.54828 8.3375 3.25223 8.33887 3.01066 8.34016V9.64844C3.01066 9.86418 2.83578 10.0391 2.62004 10.0391C2.4043 10.0391 2.22941 9.86418 2.22941 9.64844V5.74344C2.22926 5.69204 2.23925 5.64112 2.25881 5.59359C2.27837 5.54606 2.30712 5.50285 2.34341 5.46645C2.3797 5.43005 2.42281 5.40117 2.47028 5.38146C2.51775 5.36175 2.56864 5.35161 2.62004 5.3516H3.7077C4.54281 5.3516 5.22227 6.02137 5.22227 6.84457C5.22227 7.66777 4.54285 8.3375 3.7077 8.3375ZM8.9709 9.30254C8.61891 9.76191 8.11066 10.0204 7.53969 10.0304C7.22516 10.0359 6.43695 10.0389 6.40355 10.0391H6.40207C6.29871 10.0391 6.19957 9.9981 6.12635 9.92515C6.05314 9.8522 6.01182 9.7532 6.01145 9.64984C6.01141 9.63566 6.00637 8.22801 6.00637 7.69098C6.00637 7.24559 6.00355 5.74293 6.00355 5.74289C6.00346 5.69154 6.01349 5.64067 6.03307 5.59319C6.05266 5.54572 6.08141 5.50257 6.11769 5.46622C6.15397 5.42988 6.19706 5.40104 6.2445 5.38136C6.29193 5.36169 6.34279 5.35156 6.39414 5.35156H7.50047C8.67766 5.35156 9.46855 6.29344 9.46855 7.69531C9.46855 8.31289 9.29184 8.88367 8.9709 9.30254ZM12.2237 6.13281H11.0311V7.26769H12.0979C12.3136 7.26769 12.4885 7.44258 12.4885 7.65832C12.4885 7.87406 12.3136 8.04894 12.0979 8.04894H11.0311V9.64844C11.0311 9.86418 10.8562 10.0391 10.6404 10.0391C10.4247 10.0391 10.2498 9.86418 10.2498 9.64844V5.74219C10.2498 5.63859 10.291 5.53924 10.3642 5.46599C10.4375 5.39273 10.5368 5.35157 10.6404 5.35156H12.2237C12.4394 5.35156 12.6143 5.52645 12.6143 5.74219C12.6143 5.95793 12.4394 6.13281 12.2237 6.13281Z" fill="#B45C3D"/>
  </g>
  <defs>
    <clipPath id="clip0_14629_774">
      <rect width="20" height="20" fill="white"/>
    </clipPath>
  </defs>
</svg>