<svg xmlns="http://www.w3.org/2000/svg" width="32" height="32" viewBox="0 0 32 32" fill="none">
  <path d="M27.9529 19.8858C27.7581 19.0673 27.4338 18.2851 26.9925 17.5688L27.6608 16.0641L25.8868 14.2901L24.3817 14.9589C23.6655 14.5177 22.8836 14.1935 22.0653 13.9986L21.4741 12.4626H18.9654L18.3742 13.9986C17.556 14.1935 16.774 14.5177 16.0579 14.9589L14.5527 14.2901L12.7788 16.0641L13.4472 17.5691C13.0059 18.2853 12.6817 19.0673 12.4869 19.8856L10.951 20.4767V22.9855L12.4867 23.5766C12.6815 24.3951 13.0058 25.1773 13.4471 25.8937L12.7788 27.3984L14.5527 29.1724L16.0579 28.5036C16.7741 28.9448 17.556 29.269 18.3742 29.4639L18.9654 31H21.4742L22.0652 29.4644C22.8837 29.2695 23.6659 28.9453 24.3822 28.5039L25.8869 29.1723L27.6608 27.3983L26.992 25.8931C27.4332 25.177 27.7574 24.3951 27.9523 23.5768L29.4883 22.9856V20.4769L27.9529 19.8858ZM20.2198 26.1063C19.3545 26.1063 18.5086 25.8497 17.7892 25.3689C17.0697 24.8882 16.5089 24.2049 16.1778 23.4055C15.8467 22.6061 15.76 21.7264 15.9289 20.8777C16.0977 20.0291 16.5143 19.2495 17.1262 18.6377C17.7381 18.0258 18.5176 17.6091 19.3663 17.4403C20.2149 17.2715 21.0946 17.3581 21.894 17.6893C22.6935 18.0204 23.3767 18.5812 23.8575 19.3006C24.3382 20.0201 24.5948 20.866 24.5948 21.7313C24.5948 22.8916 24.1339 24.0044 23.3134 24.8248C22.4929 25.6453 21.3801 26.1063 20.2198 26.1063ZM22.6898 19.9667C22.8115 20.0879 22.8801 20.2524 22.8807 20.4241C22.8812 20.5959 22.8136 20.7608 22.6926 20.8827C21.8295 21.7537 20.9724 22.6305 20.1051 23.4976C19.9833 23.6193 19.8182 23.6876 19.6461 23.6876C19.4739 23.6876 19.3088 23.6193 19.187 23.4976L17.7486 22.0591C17.6269 21.9374 17.5584 21.7723 17.5584 21.6001C17.5584 21.4279 17.6268 21.2628 17.7486 21.141C17.8703 21.0193 18.0354 20.9509 18.2076 20.9509C18.3798 20.9509 18.5449 21.0193 18.6667 21.141L19.6447 22.119L21.7729 19.9696C21.8329 19.9091 21.9042 19.8611 21.9828 19.8282C22.0613 19.7953 22.1456 19.7783 22.2308 19.778C22.316 19.7778 22.4003 19.7943 22.4791 19.8267C22.5579 19.8591 22.6295 19.9068 22.6898 19.9669V19.9667ZM20.3655 4.17362V1.04825C20.4263 1.07644 20.4816 1.11533 20.5286 1.16306L23.6545 4.28894C23.7022 4.33596 23.7411 4.39119 23.7693 4.452H20.6437C20.57 4.4518 20.4993 4.4224 20.4472 4.37024C20.395 4.31807 20.3657 4.24738 20.3655 4.17362ZM12.3273 25.9513C12.05 25.4336 11.8246 24.8898 11.6543 24.3278L9.95104 23.6723V19.7903L11.6545 19.1346C11.683 19.0406 11.713 18.9471 11.7446 18.8542H10.9509C10.8182 18.8542 10.6911 18.8015 10.5973 18.7077C10.5035 18.614 10.4509 18.4868 10.4509 18.3542C10.4509 18.2216 10.5035 18.0944 10.5973 18.0006C10.6911 17.9069 10.8182 17.8542 10.9509 17.8542H12.1532C12.2087 17.7388 12.2667 17.6246 12.3272 17.5116L11.586 15.8428L12.0778 15.3511H10.951C10.8184 15.3511 10.6913 15.2984 10.5975 15.2046C10.5037 15.1108 10.451 14.9837 10.451 14.8511C10.451 14.7185 10.5037 14.5913 10.5975 14.4975C10.6913 14.4037 10.8184 14.3511 10.951 14.3511H13.0779L14.3312 13.0976L16 13.8389C16.5175 13.5618 17.0611 13.3365 17.6229 13.1661L17.7012 12.9625H10.951C10.8184 12.9625 10.6913 12.9098 10.5975 12.8161C10.5037 12.7223 10.451 12.5951 10.451 12.4625C10.451 12.3299 10.5037 12.2027 10.5975 12.1089C10.6913 12.0152 10.8184 11.9625 10.951 11.9625H18.0864L18.2789 11.4625H22.1607L22.8165 13.1661C23.1573 13.2694 23.4915 13.393 23.8175 13.5363V5.452H20.6437C20.3048 5.45169 19.9798 5.31689 19.7402 5.07721C19.5006 4.83753 19.3658 4.51255 19.3656 4.17362V1H3.06816C2.92059 1.00028 2.77914 1.05903 2.67479 1.16338C2.57044 1.26773 2.51169 1.40918 2.51141 1.55675V28.0579C2.51169 28.2055 2.57044 28.347 2.67479 28.4513C2.77914 28.5557 2.92059 28.6144 3.06816 28.6147H12.5812L11.5864 27.6199L12.3273 25.9513ZM10.951 6.07081H21.3925C21.5251 6.07081 21.6523 6.12349 21.746 6.21726C21.8398 6.31103 21.8925 6.4382 21.8925 6.57081C21.8925 6.70342 21.8398 6.8306 21.746 6.92437C21.6523 7.01813 21.5251 7.07081 21.3925 7.07081H10.951C10.8184 7.07081 10.6913 7.01813 10.5975 6.92437C10.5037 6.8306 10.451 6.70342 10.451 6.57081C10.451 6.4382 10.5037 6.31103 10.5975 6.21726C10.6913 6.12349 10.8184 6.07081 10.951 6.07081ZM10.951 8.45919H21.3925C21.5251 8.45919 21.6523 8.51187 21.746 8.60563C21.8398 8.6994 21.8925 8.82658 21.8925 8.95919C21.8925 9.0918 21.8398 9.21897 21.746 9.31274C21.6523 9.40651 21.5251 9.45919 21.3925 9.45919H10.951C10.8184 9.45919 10.6913 9.40651 10.5975 9.31274C10.5037 9.21897 10.451 9.0918 10.451 8.95919C10.451 8.82658 10.5037 8.6994 10.5975 8.60563C10.6913 8.51187 10.8184 8.45919 10.951 8.45919ZM8.07154 20.6159C8.07127 20.7484 8.01851 20.8754 7.9248 20.9691C7.83109 21.0628 7.70407 21.1156 7.57154 21.1159H5.43648C5.30395 21.1156 5.17693 21.0628 5.08321 20.9691C4.9895 20.8754 4.93674 20.7484 4.93648 20.6159V18.4809C4.93674 18.3483 4.9895 18.2213 5.08321 18.1276C5.17693 18.0339 5.30395 17.9811 5.43648 17.9809H7.57154C7.70407 17.9811 7.83109 18.0339 7.9248 18.1276C8.01851 18.2213 8.07127 18.3483 8.07154 18.4809V20.6159ZM8.07154 14.7242C8.07127 14.8568 8.01851 14.9838 7.9248 15.0775C7.83109 15.1712 7.70407 15.224 7.57154 15.2242H5.43648C5.30395 15.224 5.17693 15.1712 5.08321 15.0775C4.9895 14.9838 4.93674 14.8568 4.93648 14.7242V12.5892C4.93674 12.4567 4.9895 12.3296 5.08321 12.2359C5.17693 12.1422 5.30395 12.0895 5.43648 12.0892H7.57154C7.70407 12.0895 7.83109 12.1422 7.9248 12.2359C8.01851 12.3296 8.07127 12.4567 8.07154 12.5892V14.7242ZM8.07154 8.83256C8.07127 8.96509 8.01851 9.09211 7.9248 9.18582C7.83109 9.27954 7.70407 9.3323 7.57154 9.33256H5.43648C5.30395 9.3323 5.17693 9.27954 5.08321 9.18582C4.9895 9.09211 4.93674 8.96509 4.93648 8.83256V6.6975C4.93674 6.56497 4.9895 6.43795 5.08321 6.34424C5.17693 6.25053 5.30395 6.19776 5.43648 6.1975H7.57154C7.70407 6.19776 7.83109 6.25053 7.9248 6.34424C8.01851 6.43795 8.07127 6.56497 8.07154 6.6975V8.83256Z" fill="white"/>
</svg>