<svg xmlns="http://www.w3.org/2000/svg" width="32" height="32" viewBox="0 0 32 32" fill="none">
  <g clip-path="url(#clip0_13763_1003)">
    <path fill-rule="evenodd" clip-rule="evenodd" d="M15.7704 26.9034V28.4982C15.7704 29.7771 15.133 30.8811 14.0254 31.5205C13.4926 31.8281 12.8978 31.9997 12.2812 32.0001C11.664 32.0004 11.0694 31.8284 10.5362 31.5205L3.44519 27.4265C2.33751 26.787 1.70026 25.6833 1.70026 24.4042V3.48988C1.70026 1.56544 3.26576 0 5.19013 0H20.8071C22.7316 0 24.2972 1.56531 24.2972 3.48988V7.89856C24.2972 8.531 23.7837 9.0445 23.1513 9.0445C22.5186 9.0445 22.0056 8.53106 22.0056 7.89856V3.48988C22.0056 2.82906 21.4679 2.29137 20.8071 2.29137H7.12257L14.0254 6.27744C15.1326 6.91681 15.7704 8.02056 15.7704 9.29912V24.6118H20.8071C21.4678 24.6118 22.0056 24.0744 22.0056 23.4136V19.5488C22.0056 18.9159 22.5183 18.4029 23.1513 18.4029C23.7839 18.4029 24.2972 18.9161 24.2972 19.5488V23.4136C24.2972 25.3381 22.7316 26.9034 20.8071 26.9034H15.7704ZM26.3881 14.5974L25.1261 15.8593C24.6787 16.3067 24.6788 17.0321 25.1261 17.4796C25.2324 17.5861 25.3587 17.6705 25.4978 17.7281C25.6368 17.7856 25.7858 17.8151 25.9363 17.8149C26.0868 17.8152 26.2359 17.7857 26.375 17.7282C26.5141 17.6706 26.6405 17.5862 26.7468 17.4796L29.9643 14.2616C30.4116 13.8142 30.4116 13.0893 29.9643 12.6419L26.7468 9.42437C26.2993 8.97687 25.5739 8.97706 25.1262 9.42431C24.6789 9.87131 24.679 10.597 25.1262 11.0441L26.3881 12.3057H17.9343C17.3013 12.3057 16.7886 12.8187 16.7886 13.4517C16.7886 14.0848 17.3013 14.5974 17.9343 14.5974H26.3881V14.5974Z" fill="white"/>
  </g>
  <defs>
    <clipPath id="clip0_13763_1003">
      <rect width="32" height="32" fill="white"/>
    </clipPath>
  </defs>
</svg>