<svg xmlns="http://www.w3.org/2000/svg" width="62" height="61" viewBox="0 0 62 61" fill="none">
  <g clip-path="url(#clip0_13763_371)">
    <path d="M29.8523 20.8229C31.9629 20.622 34.0178 21.0178 35.748 22.2941C37.078 23.2751 38.2897 24.6878 38.8058 26.2943C38.9296 26.6799 38.9755 27.1325 39.0367 27.5347C39.4116 30.0028 39.0439 32.2028 37.5404 34.2383C36.7005 35.3756 35.2269 36.4838 33.9034 36.9606C33.2313 37.2027 32.5674 37.3023 31.8651 37.4044L31.7753 37.4191C29.6655 37.6526 27.5425 37.098 25.8581 35.8039C24.2198 34.5452 22.9706 32.5832 22.7058 30.5105C22.3798 27.9591 22.9123 25.7357 24.4921 23.7071C25.7934 22.0361 27.799 21.0904 29.8523 20.8229Z" fill="#FEFE00"/>
    <path d="M30.5189 22.1377C32.0648 21.9864 33.8393 22.55 35.0687 23.4903C36.5364 24.6129 37.5443 26.275 37.7895 28.1216C38.0542 30.1166 37.5149 31.9654 36.3045 33.5566C35.0964 35.1448 33.2959 35.8581 31.3915 36.1152C29.4998 36.2038 27.7905 35.6515 26.3288 34.4345C25.0422 33.3634 24.1123 31.5453 23.9631 29.8767C23.7893 27.9331 24.3887 26.0266 25.6297 24.5279C26.881 23.0168 28.6242 22.3059 30.5189 22.1377Z" fill="#FEC100"/>
    <path d="M20.0608 0.0603189C20.4057 0.00255655 20.7737 0.030512 21.1196 0.0693905C21.4621 0.107899 21.7987 0.240579 22.1319 0.328025C25.6454 1.25037 27.9422 4.20637 30.0928 6.9507C29.697 8.3523 28.7185 9.72657 28.0316 11.0065C27.0281 12.8762 26.146 14.8097 25.1686 16.6929C24.6897 17.616 24.0822 18.4812 23.6374 19.4138C22.9139 19.0735 22.2798 18.6504 21.6251 18.1927C20.8565 17.5061 19.7053 16.9635 18.8268 16.407C17.3133 15.4482 15.791 14.5042 14.2782 13.5444C13.0279 12.7513 11.7786 11.8478 10.4099 11.2829C10.6563 10.5981 11.1132 10.0267 11.5056 9.42282C12.122 8.47468 12.7392 7.52857 13.3659 6.58734C14.6575 4.64761 15.8969 2.66678 17.2578 0.775807C18.1877 0.437934 19.1518 0.385541 20.0608 0.0603189Z" fill="white"/>
    <path d="M55.2092 19.0645L55.5769 19.1021C55.9185 19.9962 56.4578 20.8166 56.8831 21.6751C57.8871 23.7023 58.8719 25.7386 59.8853 27.7612C60.3819 28.7523 60.8912 29.7125 61.3002 30.7466C61.4813 31.2052 61.6838 31.6328 61.6826 32.1357C61.6786 33.9493 60.4164 35.3027 59.2079 36.4935C58.1736 37.5125 56.8153 38.5839 55.3896 38.9669C54.8377 39.1151 54.0815 39.0597 53.51 39.0689C51.8791 39.0958 50.247 39.0715 48.6161 39.0594L48.4126 38.9794L42.2284 27.2845C42.1868 27.1802 42.1177 27.0598 42.1659 26.9534C42.2186 26.8372 42.2925 26.7612 42.3965 26.6897C42.8361 26.3878 43.3372 26.1725 43.7945 25.8977C44.3904 25.5393 44.9453 25.1162 45.5393 24.756C46.1053 24.4129 46.7081 24.134 47.2728 23.7896C49.582 22.3821 51.8378 20.8442 54.1948 19.5175C54.515 19.3373 54.8689 19.2012 55.2092 19.0645Z" fill="white"/>
    <path d="M1.31937 19.1064L14.9297 19.0996C15.1946 19.933 15.7175 20.6074 16.1246 21.3662C17.6482 24.2066 19.1758 27.039 20.6515 29.9046C20.8765 30.3417 21.5562 31.3013 21.5574 31.7383L21.3834 31.8981C20.8259 31.9902 17.8518 30.0417 17.0836 29.7146L14.3375 35.5848L12.6354 39.4051C11.4149 39.3323 10.1709 39.3798 8.94712 39.3762C8.38642 39.3746 7.74666 39.4188 7.196 39.3047C6.24225 39.107 5.20553 38.5977 4.38788 38.072C3.86192 37.7338 3.41127 37.2662 2.96454 36.831C1.81353 35.7104 0.40539 34.2412 0.0647994 32.5978C0.0158372 32.3611 0.0172466 32.1322 0.0955004 31.9023C0.508952 30.6876 1.27298 29.4833 1.82511 28.323C2.7913 26.2926 3.59327 24.0552 4.83405 22.1727L0.601668 19.661L0.573051 19.6474L0.534812 19.4822C0.803461 19.1307 0.901692 19.1713 1.31937 19.1064Z" fill="white"/>
    <path d="M0.778625 36.4961C0.881759 36.5118 1.06174 36.5138 1.15225 36.5535C1.30115 36.6188 1.53261 36.8736 1.66093 36.9871C1.96475 37.2556 2.28567 37.498 2.61413 37.7348C3.25076 38.1939 4.00051 38.6123 4.69377 38.9751C5.26826 39.2758 6.27422 39.5516 6.91294 39.6864C7.61422 39.8343 8.43144 39.7621 9.14933 39.7618C10.523 39.7605 11.8961 39.7474 13.2693 39.7445C18.1025 39.7336 22.9358 39.7546 27.7689 39.7415L27.7591 55.3923C27.4503 55.4821 27.0804 55.4526 26.7592 55.4556C24.3568 55.4799 21.9526 55.4661 19.55 55.4648C18.3774 55.4641 17.0364 55.5891 15.8818 55.43C15.216 55.3382 14.5356 55.0348 13.9338 54.742C13.0344 54.3048 12.1988 53.807 11.4268 53.1675C10.5111 52.4089 9.6813 51.4622 8.8335 50.6236C7.97503 49.7745 7.36524 48.8471 6.69772 47.8501C6.05405 46.8885 5.38248 45.9536 4.81632 44.9415C3.78328 43.0945 2.95551 41.1287 2.00709 39.2427C1.80322 38.8373 1.62404 38.4011 1.41477 38.0057C1.1623 37.5282 0.783467 37.0615 0.778625 36.4961Z" fill="white"/>
    <path d="M27.0739 0.010491L41.3925 0C44.535 0.155205 46.4583 2.8854 47.9004 5.40658C48.5018 6.4584 48.9649 7.49831 49.7849 8.40788C50.4844 8.00657 51.1555 7.56434 51.8475 7.15075C52.1836 6.94975 52.5474 6.68297 52.931 6.59534L53.044 6.73184C53.0772 7.58946 47.7759 16.677 46.9064 18.2145C46.7195 18.5879 46.5404 18.9358 46.2766 19.2605C45.9233 19.4125 45.468 19.3768 45.0893 19.3785C44.3374 19.3819 43.5851 19.3827 42.8332 19.3827C40.3735 19.383 37.8927 19.4455 35.4356 19.3446C34.4876 19.3056 33.5583 19.1841 32.6148 19.107C32.3495 19.0853 32.0909 19.1397 31.8274 19.0913C31.6397 19.0567 31.6223 19.0638 31.5157 18.907C31.8455 18.2313 33.0232 17.8305 33.6621 17.4608C34.3248 17.0773 34.8866 16.673 35.5904 16.346C35.2321 15.7902 35.0523 15.1684 34.7905 14.5666C34.4284 13.7345 34.0227 12.9152 33.6175 12.1036C32.8324 10.5297 31.9077 9.06591 30.9553 7.59273C30.2972 6.5746 29.6289 5.51581 28.8569 4.58051C28.381 4.00387 27.8141 3.49993 27.3028 2.95545C26.2849 1.87172 25.3609 0.92574 24.1118 0.0943575L27.0739 0.010491Z" fill="white"/>
    <path d="M39.121 35.5195L39.3197 35.5907L39.459 39.752C39.7036 39.6363 39.9615 39.5031 40.2305 39.4628C41.256 39.3093 42.4456 39.4195 43.4854 39.4175C46.4935 39.4119 49.5472 39.3572 52.534 39.7209C52.9727 39.7743 53.5578 39.8311 53.9894 39.7143C54.1499 39.671 54.2798 39.5477 54.4446 39.5189C54.7986 39.4572 55.1669 39.4946 55.519 39.4132C55.77 39.3555 55.9937 39.1903 56.2282 39.0876C56.6861 38.8876 57.1603 38.7492 57.6096 38.5229C58.2359 38.2074 58.8679 37.74 59.4229 37.3108C59.6397 37.1432 59.7755 37.0012 60.0546 37.0389C60.1937 37.4285 59.644 38.2149 59.4788 38.6183C59.3727 38.8774 59.3212 39.1581 59.2359 39.4247C58.9376 40.3568 58.3882 41.2613 57.9916 42.1595C56.3597 45.8542 54.8009 49.2456 51.8022 52.0459C51.2024 52.6061 50.5352 53.2357 49.8018 53.609C46.7266 55.5176 42.8797 55.1506 39.433 55.128C39.5375 55.7642 39.4659 56.4552 39.446 57.0986C39.4144 58.1317 39.4109 59.1674 39.2444 60.1896C39.1181 59.9479 38.997 59.6731 38.8345 59.455C38.6479 59.2041 38.4205 59.0372 38.2597 58.7528C36.6227 55.8619 34.966 52.9835 33.3831 50.0615C32.9881 49.3328 32.4311 48.61 32.1265 47.8478C32.2822 47.0434 32.9832 46.2261 33.3791 45.4964C34.5563 43.3257 35.7606 41.1806 36.9737 39.0303C37.2766 38.4937 37.6055 37.9614 37.8933 37.4187C38.2271 36.7893 38.5879 35.996 39.121 35.5195Z" fill="white"/>
  </g>
  <defs>
    <clipPath id="clip0_13763_371">
      <rect width="61.7143" height="60.1905" fill="white"/>
    </clipPath>
  </defs>
</svg>