<svg xmlns="http://www.w3.org/2000/svg" width="38" height="38" viewBox="0 0 38 38" fill="none">
  <path d="M18.667 10.3496V15.5296" stroke="#1D2635" stroke-width="2.33333" stroke-miterlimit="10" stroke-linecap="round"/>
  <path d="M18.6964 3.44141C12.972 3.44141 8.3364 8.07696 8.3364 13.8014V17.0681C8.3364 18.1259 7.90084 19.7125 7.3564 20.6147L5.38084 23.9125C4.16751 25.9503 5.00751 28.2214 7.24751 28.9681C14.6831 31.4414 22.7253 31.4414 30.1608 28.9681C32.2608 28.2681 33.1631 25.8103 32.0275 23.9125L30.052 20.6147C29.5075 19.7125 29.072 18.1103 29.072 17.0681V13.8014C29.0564 8.10807 24.3897 3.44141 18.6964 3.44141Z" stroke="#1D2635" stroke-width="2.33333" stroke-miterlimit="10" stroke-linecap="round"/>
  <path d="M23.8497 29.6074C23.8497 32.4541 21.5164 34.7874 18.6697 34.7874C17.2542 34.7874 15.9475 34.1963 15.0142 33.263C14.0809 32.3296 13.4897 31.023 13.4897 29.6074" stroke="#1D2635" stroke-width="2.33333" stroke-miterlimit="10"/>
  <circle cx="28.0002" cy="8.11003" r="4.66667" fill="#FF3F3F"/>
</svg>