<svg xmlns="http://www.w3.org/2000/svg" width="32" height="32" viewBox="0 0 32 32" fill="none">
  <path d="M20.923 13.1282C15.7194 13.1282 11.4871 17.3621 11.4871 22.5641C11.4871 27.7662 15.7194 32 20.923 32C26.1267 32 30.3589 27.7662 30.3589 22.5641C30.3589 17.3621 26.1267 13.1282 20.923 13.1282ZM24.1312 23.7949H20.923C20.5966 23.7949 20.2836 23.6652 20.0528 23.4344C19.8219 23.2036 19.6923 22.8905 19.6923 22.5641V19.2246C19.6923 18.8982 19.8219 18.5851 20.0528 18.3543C20.2836 18.1235 20.5966 17.9938 20.923 17.9938C21.2495 17.9938 21.5625 18.1235 21.7933 18.3543C22.0241 18.5851 22.1538 18.8982 22.1538 19.2246V21.3333H24.1312C24.4577 21.3333 24.7707 21.463 25.0015 21.6938C25.2323 21.9246 25.362 22.2377 25.362 22.5641C25.362 22.8905 25.2323 23.2036 25.0015 23.4344C24.7707 23.6652 24.4577 23.7949 24.1312 23.7949ZM22.5641 0H6.15381C3.65945 0 1.64099 2.01846 1.64099 4.51282V25.8462C1.64099 28.3405 3.65945 30.359 6.15381 30.359H11.963C10.063 28.2077 9.01783 25.4343 9.02561 22.5641C9.02561 16 14.3589 10.6667 20.923 10.6667C23.1877 10.6667 25.2882 11.2903 27.0769 12.4062V4.51282C27.0769 2.01846 25.0584 0 22.5641 0ZM9.43586 17.2308H7.79484C7.12202 17.2308 6.56407 16.6728 6.56407 16C6.56407 15.3272 7.12202 14.7692 7.79484 14.7692H9.43586C10.1087 14.7692 10.6666 15.3272 10.6666 16C10.6666 16.6728 10.1087 17.2308 9.43586 17.2308ZM14.3589 12.3077H7.79484C7.12202 12.3077 6.56407 11.7497 6.56407 11.0769C6.56407 10.4041 7.12202 9.84615 7.79484 9.84615H14.3589C15.0318 9.84615 15.5897 10.4041 15.5897 11.0769C15.5897 11.7497 15.0318 12.3077 14.3589 12.3077ZM20.923 7.38462H7.79484C7.12202 7.38462 6.56407 6.82667 6.56407 6.15385C6.56407 5.48103 7.12202 4.92308 7.79484 4.92308H20.923C21.5959 4.92308 22.1538 5.48103 22.1538 6.15385C22.1538 6.82667 21.5959 7.38462 20.923 7.38462Z" fill="white"/>
</svg>