<svg xmlns="http://www.w3.org/2000/svg" width="32" height="32" viewBox="0 0 32 32" fill="none">
  <path fill-rule="evenodd" clip-rule="evenodd" d="M15.0808 11.6453H16.9191C17.2634 11.6453 17.5441 11.926 17.5441 12.2703V22.1554C17.5441 22.4997 17.2634 22.7804 16.9191 22.7804H16.1647C16.5731 21.8522 16.7854 20.8461 16.7854 19.8181C16.7854 17.6986 15.8893 15.7884 14.4558 14.4449V12.2703C14.4558 11.926 14.7365 11.6453 15.0808 11.6453ZM8.50298 16.8557H10.3413C10.6855 16.8557 10.9663 17.1364 10.9663 17.4807V22.1554C10.9663 22.4997 10.6855 22.7804 10.3413 22.7804H8.50298C8.15873 22.7804 7.87798 22.4997 7.87798 22.1554V17.4806C7.87798 17.1364 8.15873 16.8557 8.50298 16.8557ZM21.015 28.7069L17.5205 25.3159C17.2922 25.0944 16.924 25.0999 16.7024 25.3283L16.6305 25.4023L14.6357 23.4666C15.3601 22.4336 15.7854 21.1756 15.7854 19.8181C15.7854 16.3037 12.9364 13.4547 9.42205 13.4547C5.90767 13.4547 3.05867 16.3037 3.05867 19.8181C3.05867 23.3324 5.90761 26.1814 9.42205 26.1814C11.0001 26.1814 12.4438 25.6068 13.5558 24.6556L15.5127 26.5544L15.4408 26.6284C15.2193 26.8567 15.2248 27.2249 15.4531 27.4464L18.9476 30.8374C19.176 31.0589 19.544 31.0534 19.7656 30.8251L21.0273 29.5249C21.2489 29.2965 21.2433 28.9285 21.015 28.7069ZM9.42211 24.3873C6.89861 24.3873 4.85286 22.3416 4.85286 19.818C4.85286 17.2944 6.89861 15.2487 9.42211 15.2487C11.9457 15.2487 13.9914 17.2944 13.9914 19.818C13.9914 22.3416 11.9456 24.3873 9.42211 24.3873ZM28.4593 3.79012C28.6736 3.90442 28.9128 3.96404 29.1556 3.96369C29.974 3.96369 30.6374 3.30025 30.6374 2.48187C30.6375 1.66344 29.974 1 29.1557 1C28.3373 1 27.6738 1.66344 27.6738 2.48181C27.6738 2.68375 27.7142 2.87631 27.7874 3.05175L23.2741 7.15769C23.0598 7.04339 22.8206 6.98377 22.5777 6.98413C22.1497 6.98413 21.764 7.16569 21.4936 7.45594L17.4789 5.72956C17.4807 5.69906 17.4818 5.66838 17.4818 5.63744C17.4818 4.81906 16.8184 4.15562 15.9999 4.15562C15.1815 4.15562 14.5181 4.81906 14.5181 5.63744C14.5181 5.79356 14.5423 5.94406 14.5871 6.08537L10.2329 9.39156C9.99198 9.23366 9.71013 9.14975 9.42211 9.15019C8.96673 9.15019 8.55936 9.35569 8.28761 9.67887L4.32592 8.20619C4.32598 8.19975 4.32617 8.19331 4.32617 8.18688C4.32617 7.3685 3.66273 6.70506 2.84436 6.70506C2.02598 6.70506 1.36255 7.3685 1.36255 8.18688C1.36255 9.00525 2.02598 9.66869 2.84436 9.66869C3.29973 9.66869 3.70705 9.46319 3.97892 9.14L7.94061 10.6127C7.94055 10.6191 7.94036 10.6256 7.94036 10.632C7.94036 11.4504 8.6038 12.1138 9.42217 12.1138C10.2405 12.1138 10.904 11.4504 10.904 10.632C10.904 10.4759 10.8798 10.3254 10.835 10.1841L15.1892 6.87787C15.4301 7.03577 15.712 7.11968 16 7.11925C16.428 7.11925 16.8136 6.93762 17.0842 6.64744L21.0989 8.37387C21.097 8.40437 21.096 8.43506 21.096 8.466C21.096 9.28437 21.7594 9.94781 22.5778 9.94781C23.3962 9.94781 24.0596 9.28437 24.0596 8.466C24.0596 8.26406 24.0191 8.07156 23.946 7.89606L28.4593 3.79012ZM28.2365 7.59419H30.0748C30.419 7.59419 30.6998 7.87494 30.6998 8.21919V22.1554C30.6998 22.4997 30.419 22.7804 30.0748 22.7804H28.2365C27.8922 22.7804 27.6115 22.4997 27.6115 22.1554V8.21919C27.6115 7.87494 27.8922 7.59419 28.2365 7.59419ZM21.6586 13.7514H23.497C23.8412 13.7514 24.122 14.0322 24.122 14.3764V22.1554C24.122 22.4997 23.8412 22.7804 23.497 22.7804H21.6586C21.3144 22.7804 21.0336 22.4997 21.0336 22.1554V14.3764C21.0336 14.0322 21.3144 13.7514 21.6586 13.7514ZM3.76348 13.5363C4.10773 13.5363 4.38848 13.817 4.38848 14.1613V14.4447C2.95486 15.7882 2.05873 17.6984 2.05873 19.818C2.05873 20.8719 2.28067 21.8739 2.67961 22.7804H1.92517C1.58092 22.7804 1.30017 22.4996 1.30017 22.1554V14.1613C1.30017 13.817 1.58092 13.5363 1.92517 13.5363H3.76348Z" fill="white"/>
</svg>