<svg xmlns="http://www.w3.org/2000/svg" width="20" height="20" viewBox="0 0 20 20" fill="none">
  <g clip-path="url(#clip0_14629_768)">
    <path d="M12.8889 15.6183H7.11114C6.74297 15.6183 6.44446 15.9168 6.44446 16.285C6.44446 16.6532 6.74293 16.9516 7.11114 16.9516H12.8889C13.2571 16.9516 13.5556 16.6532 13.5556 16.285C13.5556 15.9168 13.2571 15.6183 12.8889 15.6183ZM12.8889 13.5156H7.11114C6.74297 13.5156 6.44446 13.8141 6.44446 14.1823C6.44446 14.5505 6.74293 14.849 7.11114 14.849H12.8889C13.2571 14.849 13.5556 14.5505 13.5556 14.1823C13.5556 13.8141 13.2571 13.5156 12.8889 13.5156Z" fill="#B45C3D"/>
    <path d="M18.4445 5.23016H16.3232V1.37176C16.3232 1.00359 16.0248 0.705078 15.6566 0.705078H4.34344C3.97527 0.705078 3.67676 1.00355 3.67676 1.37176V5.23016H1.55555C0.697812 5.23016 0 5.92801 0 6.78574V13.4929C0 14.3506 0.697812 15.0484 1.55555 15.0484H3.67687V18.6271C3.67687 18.9952 3.97535 19.2938 4.34355 19.2938H15.6564C16.0246 19.2938 16.3231 18.9953 16.3231 18.6271V15.0484H18.4445C19.3022 15.0484 20 14.3506 20 13.4929V6.78574C20 5.92805 19.3022 5.23016 18.4445 5.23016ZM5.01008 2.03844H14.9899V5.23016H5.01008V2.03844ZM14.9898 17.9604H5.01023V12.5062H14.9898L14.9898 17.9604ZM15.6566 9.1448H13.9596C13.5914 9.1448 13.2929 8.84633 13.2929 8.47813C13.2929 8.10992 13.5914 7.81145 13.9596 7.81145H15.6566C16.0247 7.81145 16.3232 8.10992 16.3232 8.47813C16.3232 8.84633 16.0248 9.1448 15.6566 9.1448Z" fill="#B45C3D"/>
  </g>
  <defs>
    <clipPath id="clip0_14629_768">
      <rect width="20" height="20" fill="white"/>
    </clipPath>
  </defs>
</svg>