<svg xmlns="http://www.w3.org/2000/svg" width="32" height="32" viewBox="0 0 32 32" fill="none">
  <path d="M20.8222 28.7673C20.5054 28.9163 20.1528 28.9981 19.7814 28.9981H2.52341C1.15939 28.9981 0.0513916 27.8922 0.0513916 26.5261C0.0513916 23.6973 1.19926 21.1372 3.05223 19.2821C4.9052 17.427 7.46745 16.2812 10.2962 16.2812H12.0086C13.041 16.2812 14.0399 16.4344 14.98 16.7177L14.9716 16.7324C14.6779 17.2424 14.6002 17.8362 14.7513 18.4049C14.9045 18.9736 15.2696 19.45 15.7796 19.7438L16.0146 19.8802C15.9873 20.153 15.9726 20.4279 15.9726 20.7028C15.9726 20.9777 15.9873 21.2526 16.0146 21.5254L15.7796 21.6618C15.2696 21.9556 14.9045 22.4319 14.7513 23.0006C14.6002 23.5693 14.6779 24.1632 14.9716 24.6731L16.1237 26.6667C16.5161 27.3466 17.2485 27.7705 18.0333 27.7705C18.4195 27.7705 18.7993 27.6677 19.135 27.4746L19.3701 27.3382C19.8171 27.6593 20.2955 27.9363 20.7971 28.1608V28.4336C20.7971 28.5469 20.8054 28.6581 20.8222 28.7673Z" fill="white"/>
  <path d="M11.1524 14.101C14.2178 14.101 16.7029 11.616 16.7029 8.5505C16.7029 5.48504 14.2178 3 11.1524 3C8.08691 3 5.60187 5.48504 5.60187 8.5505C5.60187 11.616 8.08691 14.101 11.1524 14.101Z" fill="white"/>
  <path d="M31.6861 23.1179L30.4291 22.3919C30.5739 21.8525 30.6515 21.2881 30.6515 20.7047C30.6515 20.1213 30.5739 19.5547 30.4291 19.0175L31.6861 18.2914C31.9379 18.1466 32.0239 17.8255 31.8791 17.5737L30.727 15.5802C30.6926 15.5203 30.6467 15.4679 30.592 15.4258C30.5373 15.3837 30.4749 15.3528 30.4082 15.3349C30.3416 15.317 30.272 15.3123 30.2036 15.3213C30.1352 15.3303 30.0691 15.3526 30.0094 15.3871L28.7524 16.1132C27.9549 15.3158 26.9519 14.724 25.8292 14.4239V12.9738C25.8292 12.8347 25.7739 12.7013 25.6755 12.6029C25.5771 12.5045 25.4437 12.4492 25.3045 12.4492H23.0025C22.8634 12.4492 22.7299 12.5045 22.6315 12.6029C22.5332 12.7013 22.4779 12.8347 22.4779 12.9738V14.4239C21.3713 14.7186 20.3626 15.3015 19.5547 16.1132L18.2977 15.3871C18.0459 15.2423 17.7248 15.3283 17.58 15.5802L16.4279 17.5737C16.2831 17.8255 16.3692 18.1466 16.621 18.2914L17.878 19.0175C17.7332 19.5568 17.6556 20.1213 17.6556 20.7047C17.6556 21.2881 17.7332 21.8546 17.878 22.3919L16.621 23.1179C16.3692 23.2627 16.2831 23.5838 16.4279 23.8356L17.58 25.8292C17.7248 26.081 18.0459 26.167 18.2977 26.0222L19.5547 25.2962C20.3521 26.0936 21.3552 26.6854 22.4779 26.9855V28.4355C22.4779 28.5746 22.5332 28.7081 22.6315 28.8065C22.7299 28.9049 22.8634 28.9601 23.0025 28.9601H25.3045C25.4437 28.9601 25.5771 28.9049 25.6755 28.8065C25.7739 28.7081 25.8292 28.5746 25.8292 28.4355V26.9855C26.9358 26.6907 27.9445 26.1078 28.7524 25.2962L30.0094 26.0222C30.2612 26.167 30.5822 26.081 30.727 25.8292L31.8791 23.8356C32.0239 23.5838 31.9379 23.2627 31.6861 23.1179ZM24.1525 23.3551C22.6877 23.3551 21.5021 22.1673 21.5021 20.7047C21.5021 19.2399 22.6898 18.0543 24.1525 18.0543C25.6151 18.0543 26.8029 19.242 26.8029 20.7047C26.8029 22.1673 25.6172 23.3551 24.1525 23.3551Z" fill="white"/>
</svg>