<svg xmlns="http://www.w3.org/2000/svg" width="16" height="17" viewBox="0 0 16 17" fill="none">
  <g clip-path="url(#clip0_13715_1179)">
    <path d="M7.99996 2.71484C9.03319 2.71331 10.049 2.98099 10.9473 3.49151L10.1953 4.24351C10.1021 4.33674 10.0386 4.45552 10.0129 4.58482C9.98719 4.71412 10.0004 4.84814 10.0508 4.96994C10.1013 5.09174 10.1867 5.19585 10.2963 5.26911C10.4059 5.34236 10.5348 5.38148 10.6666 5.38151H13.3333C13.5101 5.38151 13.6797 5.31127 13.8047 5.18624C13.9297 5.06122 14 4.89165 14 4.71484V2.04817C13.9999 1.91634 13.9608 1.78747 13.8876 1.67787C13.8143 1.56826 13.7102 1.48283 13.5884 1.43239C13.4666 1.38194 13.3326 1.36874 13.2033 1.39445C13.074 1.42016 12.9552 1.48363 12.862 1.57684L11.922 2.51484C10.8126 1.81269 9.53512 1.42122 8.22285 1.38132C6.91057 1.34141 5.61165 1.65454 4.4617 2.28799C3.31174 2.92144 2.35293 3.85199 1.68537 4.98249C1.01781 6.11298 0.665987 7.40196 0.666627 8.71484C0.666627 8.89165 0.736865 9.06122 0.861889 9.18624C0.986913 9.31127 1.15648 9.38151 1.33329 9.38151C1.5101 9.38151 1.67967 9.31127 1.8047 9.18624C1.92972 9.06122 1.99996 8.89165 1.99996 8.71484C2.00172 7.12408 2.63443 5.59898 3.75927 4.47415C4.8841 3.34931 6.4092 2.7166 7.99996 2.71484ZM14.6666 8.04817C14.4898 8.04817 14.3202 8.11841 14.1952 8.24343C14.0702 8.36846 14 8.53803 14 8.71484C13.9982 10.3056 13.3655 11.8307 12.2407 12.9555C11.1158 14.0804 9.59072 14.7131 7.99996 14.7148C6.96681 14.7167 5.95109 14.4487 5.05329 13.9375L5.80463 13.1862C5.89783 13.0929 5.9613 12.9742 5.98702 12.8449C6.01273 12.7156 5.99953 12.5815 5.94908 12.4597C5.89863 12.3379 5.81321 12.2338 5.7036 12.1606C5.59399 12.0873 5.46513 12.0482 5.33329 12.0482H2.66663C2.48982 12.0482 2.32025 12.1184 2.19522 12.2434C2.0702 12.3685 1.99996 12.538 1.99996 12.7148V15.3815C1.99993 15.5133 2.03899 15.6422 2.1122 15.7519C2.18542 15.8615 2.2895 15.947 2.41129 15.9975C2.49218 16.0312 2.57899 16.0485 2.66663 16.0482C2.84342 16.0481 3.01296 15.9779 3.13796 15.8528L4.07863 14.9148C5.25061 15.6595 6.61141 16.0528 7.99996 16.0482C9.94418 16.0459 11.8081 15.2725 13.1829 13.8978C14.5576 12.523 15.331 10.6591 15.3333 8.71484C15.3333 8.53803 15.2631 8.36846 15.138 8.24343C15.013 8.11841 14.8434 8.04817 14.6666 8.04817Z" fill="white"/>
  </g>
  <defs>
    <clipPath id="clip0_13715_1179">
      <rect width="16" height="16" fill="white" transform="translate(0 0.713867)"/>
    </clipPath>
  </defs>
</svg>