<svg xmlns="http://www.w3.org/2000/svg" width="16" height="17" viewBox="0 0 16 17" fill="none">
  <path d="M10.5599 15.5466H5.43986C4.9276 15.5391 4.43702 15.3386 4.06622 14.9851C3.69541 14.6316 3.47172 14.1512 3.43985 13.6399L2.83319 4.41322C2.83008 4.34632 2.84026 4.27947 2.86315 4.21654C2.88603 4.1536 2.92117 4.09582 2.96652 4.04655C3.01325 3.99549 3.06981 3.9544 3.13283 3.92575C3.19584 3.89711 3.26399 3.88151 3.33319 3.87988H12.6665C12.7351 3.87973 12.8029 3.89368 12.8659 3.92087C12.9288 3.94805 12.9855 3.98789 13.0324 4.03791C13.0793 4.08793 13.1154 4.14706 13.1385 4.21162C13.1615 4.27619 13.1711 4.34481 13.1665 4.41322L12.5865 13.6399C12.5543 14.1558 12.3269 14.64 11.9504 14.9942C11.5739 15.3484 11.0767 15.5459 10.5599 15.5466ZM3.89319 4.87988L4.40652 13.5799C4.42348 13.8422 4.53979 14.0882 4.73177 14.2678C4.92375 14.4474 5.17697 14.5471 5.43986 14.5466H10.5599C10.8223 14.5455 11.0746 14.4453 11.2663 14.266C11.4579 14.0868 11.5747 13.8417 11.5932 13.5799L12.1332 4.91322L3.89319 4.87988Z" fill="white"/>
  <path d="M13.9999 4.87988H1.99988C1.86727 4.87988 1.74009 4.8272 1.64632 4.73344C1.55256 4.63967 1.49988 4.51249 1.49988 4.37988C1.49988 4.24727 1.55256 4.1201 1.64632 4.02633C1.74009 3.93256 1.86727 3.87988 1.99988 3.87988H13.9999C14.1325 3.87988 14.2597 3.93256 14.3534 4.02633C14.4472 4.1201 14.4999 4.24727 14.4999 4.37988C14.4999 4.51249 14.4472 4.63967 14.3534 4.73344C14.2597 4.8272 14.1325 4.87988 13.9999 4.87988Z" fill="white"/>
  <path d="M9.99988 4.87988H5.99988C5.86781 4.87816 5.74163 4.82492 5.64823 4.73153C5.55484 4.63813 5.5016 4.51195 5.49988 4.37988V3.17988C5.50833 2.83776 5.64801 2.51199 5.89 2.27C6.13199 2.02801 6.45776 1.88833 6.79988 1.87988H9.19988C9.54769 1.88858 9.87833 2.03289 10.1212 2.282C10.3641 2.53111 10.5 2.86529 10.4999 3.21322V4.37988C10.4982 4.51195 10.4449 4.63813 10.3515 4.73153C10.2581 4.82492 10.1319 4.87816 9.99988 4.87988ZM6.49988 3.87988H9.49988V3.21322C9.49988 3.13365 9.46827 3.05735 9.41201 3.00108C9.35575 2.94482 9.27944 2.91322 9.19988 2.91322H6.79988C6.72031 2.91322 6.64401 2.94482 6.58775 3.00108C6.53148 3.05735 6.49988 3.13365 6.49988 3.21322V3.87988ZM9.99988 12.8799C9.86781 12.8782 9.74163 12.8249 9.64823 12.7315C9.55484 12.6381 9.5016 12.512 9.49988 12.3799V7.04655C9.49988 6.91394 9.55256 6.78676 9.64633 6.693C9.74009 6.59923 9.86727 6.54655 9.99988 6.54655C10.1325 6.54655 10.2597 6.59923 10.3534 6.693C10.4472 6.78676 10.4999 6.91394 10.4999 7.04655V12.3799C10.4982 12.512 10.4449 12.6381 10.3515 12.7315C10.2581 12.8249 10.1319 12.8782 9.99988 12.8799ZM5.99988 12.8799C5.86781 12.8782 5.74163 12.8249 5.64823 12.7315C5.55484 12.6381 5.5016 12.512 5.49988 12.3799V7.04655C5.49988 6.91394 5.55256 6.78676 5.64632 6.693C5.74009 6.59923 5.86727 6.54655 5.99988 6.54655C6.13249 6.54655 6.25966 6.59923 6.35343 6.693C6.4472 6.78676 6.49988 6.91394 6.49988 7.04655V12.3799C6.49815 12.512 6.44492 12.6381 6.35152 12.7315C6.25813 12.8249 6.13195 12.8782 5.99988 12.8799ZM7.99988 12.8799C7.86781 12.8782 7.74163 12.8249 7.64823 12.7315C7.55484 12.6381 7.5016 12.512 7.49988 12.3799V7.04655C7.49988 6.91394 7.55256 6.78676 7.64632 6.693C7.74009 6.59923 7.86727 6.54655 7.99988 6.54655C8.13249 6.54655 8.25966 6.59923 8.35343 6.693C8.4472 6.78676 8.49988 6.91394 8.49988 7.04655V12.3799C8.49815 12.512 8.44492 12.6381 8.35152 12.7315C8.25813 12.8249 8.13195 12.8782 7.99988 12.8799Z" fill="white"/>
</svg>