<svg xmlns="http://www.w3.org/2000/svg" width="37" height="24" viewBox="0 0 37 24" fill="none">
  <g clip-path="url(#clip0_13682_9727)">
    <path d="M33.4006 0.400391H3.80146C2.03421 0.400391 0.601562 1.83304 0.601562 3.60029V20.3998C0.601562 22.167 2.03421 23.5997 3.80146 23.5997H33.4006C35.1678 23.5997 36.6005 22.167 36.6005 20.3998V3.60029C36.6005 1.83304 35.1678 0.400391 33.4006 0.400391Z" fill="white" stroke="white" stroke-width="0.799975"/>
    <path fill-rule="evenodd" clip-rule="evenodd" d="M34.5986 14.5251H32.9427C32.7779 14.5251 32.6683 14.5307 32.5755 14.5931C32.4795 14.6547 32.4427 14.7451 32.4427 14.8651C32.4427 15.0091 32.5235 15.1051 32.6411 15.1475C32.7371 15.1811 32.8403 15.1907 32.9915 15.1907L33.4835 15.2035C33.9802 15.2163 34.3122 15.3011 34.5146 15.5091C34.5514 15.5379 34.573 15.5699 34.5986 15.6027V14.5251ZM34.5986 17.0218C34.3778 17.3434 33.9482 17.5066 33.3667 17.5066H31.6115V16.6939H33.3587C33.5323 16.6939 33.6531 16.6715 33.7267 16.6003C33.7606 16.5687 33.7877 16.5304 33.8061 16.4879C33.8246 16.4453 33.834 16.3994 33.8338 16.3531C33.8356 16.3056 33.8265 16.2584 33.8072 16.215C33.7879 16.1716 33.759 16.1332 33.7227 16.1027C33.6571 16.0451 33.5611 16.0187 33.4027 16.0187C32.5499 15.9899 31.4859 16.0451 31.4859 14.8467C31.4859 14.2971 31.8363 13.7187 32.7899 13.7187H34.5978V12.9652H32.9179C32.4099 12.9652 32.0419 13.086 31.7803 13.2748V12.9652H29.2948C28.8972 12.9652 28.4308 13.0636 28.21 13.2748V12.9652H23.7702V13.2748C23.4158 13.0204 22.8198 12.9652 22.5446 12.9652H19.6151V13.2748C19.3351 13.0052 18.7135 12.9652 18.3351 12.9652H15.0568L14.3064 13.7739L13.6041 12.966H8.70822V18.2506H13.5121L14.2849 17.4282L15.0128 18.2506L17.9743 18.253V17.009H18.2655C18.6583 17.0146 19.1215 16.9994 19.5311 16.8226V18.249H21.9734V16.873H22.091C22.2414 16.873 22.2566 16.8786 22.2566 17.0282V18.2498H29.6764C30.1484 18.2498 30.6403 18.1298 30.9131 17.9114V18.2498H33.2667C33.7563 18.2498 34.2346 18.1818 34.5986 18.0066V17.0218ZM30.9747 15.5091C31.1523 15.6915 31.2467 15.9211 31.2467 16.3115C31.2467 17.1258 30.7363 17.5066 29.8196 17.5066H28.0508V16.6939H29.8132C29.9852 16.6939 30.1076 16.6715 30.1836 16.6003C30.2177 16.5687 30.2449 16.5305 30.2635 16.488C30.282 16.4454 30.2916 16.3995 30.2916 16.3531C30.2927 16.3057 30.2833 16.2587 30.2641 16.2154C30.2449 16.1721 30.2163 16.1336 30.1804 16.1027C30.1108 16.0451 30.0148 16.0187 29.8572 16.0187C29.0076 15.9899 27.9436 16.0451 27.9436 14.8467C27.9436 14.2971 28.29 13.7187 29.242 13.7187H31.0635V14.5251H29.3972C29.2316 14.5251 29.1244 14.5315 29.0332 14.5931C28.9332 14.6547 28.8972 14.7451 28.8972 14.8659C28.8972 15.0091 28.9812 15.1059 29.0956 15.1483C29.1916 15.1811 29.294 15.1907 29.4492 15.1907L29.9372 15.2043C30.4308 15.2163 30.7691 15.3011 30.9755 15.5083L30.9747 15.5091ZM22.779 15.2747C22.6574 15.3467 22.507 15.3531 22.3302 15.3531H21.2262V14.5019H22.3454C22.507 14.5019 22.6686 14.5059 22.779 14.5707C22.8966 14.6315 22.967 14.7491 22.967 14.9115C22.9704 14.9832 22.9548 15.0546 22.9218 15.1184C22.8888 15.1821 22.8395 15.2361 22.779 15.2747ZM23.327 15.7467C23.5294 15.8203 23.695 15.9539 23.7726 16.0643C23.9006 16.2491 23.919 16.4219 23.923 16.7555V17.5066H23.011V17.0322C23.011 16.8042 23.0326 16.4675 22.8638 16.2915C22.731 16.1555 22.5286 16.1235 22.1974 16.1235H21.227V17.5066H20.3143V13.7187H22.411C22.871 13.7187 23.2062 13.7387 23.5046 13.8971C23.791 14.0699 23.971 14.3067 23.971 14.7387C23.971 15.3435 23.5662 15.6515 23.327 15.7467ZM24.4749 13.7187H27.5068V14.5027H25.3789V15.1907H27.4548V15.9635H25.3797V16.7171L27.5068 16.7203V17.5066H24.4749V13.7187ZM18.3463 15.4667H17.1728V14.5019H18.3567C18.6847 14.5019 18.9127 14.6355 18.9127 14.9659C18.9127 15.2939 18.6951 15.4667 18.3463 15.4667ZM16.268 17.1618L14.8728 15.6187L16.268 14.1251V17.1618ZM12.6657 16.7171H10.433V15.9635H12.4273V15.1907H10.433V14.5027H12.7105L13.7033 15.6059L12.6657 16.7171ZM19.8879 14.9667C19.8879 16.0187 19.0999 16.2363 18.3055 16.2363H17.1728V17.5066H15.4072L14.288 16.2523L13.1257 17.5066H9.5282V13.7187H13.1817L14.2992 14.9603L15.4544 13.7187H18.3567C19.0775 13.7187 19.8879 13.9179 19.8879 14.9667ZM5.51312 9.30688L4.89074 7.79652L4.27316 9.30688H5.51312ZM19.2087 8.7053C19.0847 8.78129 18.9367 8.78369 18.7607 8.78369H17.6567V7.94212H18.7751C18.9335 7.94212 19.0983 7.94852 19.2055 8.01012C19.3239 8.06532 19.3967 8.18291 19.3967 8.34531C19.3967 8.5109 19.3271 8.6437 19.2095 8.7053H19.2087ZM27.0821 9.30688L26.4533 7.79652L25.8277 9.30688H27.0821ZM12.4073 10.942H11.4761L11.4729 7.97412L10.1554 10.942H9.3578L8.03784 7.97172V10.942H6.1899L5.84111 10.0965H3.94917L3.59718 10.942H2.61001L4.23716 7.15254H5.58672L7.13147 10.7404V7.15254H8.61382L9.80259 9.72287L10.8954 7.15334H12.4073V10.942ZM16.1192 10.942H13.0841V7.15254H16.1192V7.94212H13.9937V8.6245H16.0688V9.40128H13.9937V10.1581H16.1192V10.942ZM20.3975 8.17331C20.3975 8.77729 19.9927 9.08928 19.7575 9.18288C19.9559 9.25888 20.1255 9.39168 20.2063 9.50287C20.3343 9.69087 20.3567 9.85886 20.3567 10.1973V10.9412H19.4407L19.4375 10.4644C19.4375 10.2364 19.4591 9.90846 19.2935 9.72607C19.1615 9.59247 18.9591 9.56367 18.6319 9.56367H17.6559V10.942H16.7488V7.15254H18.8375C19.3015 7.15254 19.6439 7.16534 19.9375 7.33414C20.2255 7.50373 20.3975 7.75013 20.3975 8.17331ZM21.851 10.9412H20.9238V7.15334H21.851V10.9428V10.9412ZM32.6035 10.9412H31.3163L29.5948 8.09812V10.942H27.7444L27.3916 10.0965H25.5037L25.1613 10.942H24.0981C23.6566 10.942 23.0982 10.8444 22.7814 10.5228C22.4614 10.2013 22.2958 9.76526 22.2958 9.07648C22.2958 8.5141 22.395 8.00052 22.7854 7.59493C23.079 7.29254 23.539 7.15254 24.1653 7.15254H25.0445V7.96452H24.1837C23.8518 7.96452 23.6646 8.01412 23.4846 8.18851C23.3294 8.34851 23.2238 8.6501 23.2238 9.04769C23.2238 9.45327 23.3038 9.74606 23.4734 9.93726C23.6134 10.0877 23.867 10.1325 24.1061 10.1325H24.5141L25.7941 7.15254H27.1557L28.6932 10.7364V7.15334H30.0772L31.6731 9.79326V7.15334H32.6035V10.9428V10.9412ZM2.59961 11.6868H4.15156L4.50195 10.8452H5.28593L5.63392 11.6868H8.68822V11.0436L8.96021 11.69H10.5458L10.8178 11.034V11.6868H18.4071L18.4039 10.3052H18.5511C18.6535 10.3092 18.6839 10.3188 18.6839 10.4876V11.6876H22.6086V11.3652C22.9254 11.5348 23.4182 11.6868 24.0661 11.6868H25.7173L26.0701 10.8452H26.8541L27.1997 11.6868H30.382V10.8868L30.8635 11.6868H33.4139V6.40137H30.8899V7.02535L30.5364 6.40137H27.9468V7.02535L27.6228 6.40137H24.1245C23.539 6.40137 23.0246 6.48296 22.6086 6.71016V6.40137H20.1951V6.71016C19.9311 6.47576 19.5703 6.40137 19.1687 6.40137H10.3514L9.75939 7.76613L9.15141 6.40137H6.37469V7.02535L6.0683 6.40137H3.70038L2.59961 8.91409V11.6868Z" fill="#0072CE"/>
  </g>
  <defs>
    <clipPath id="clip0_13682_9727">
      <rect width="36.7989" height="23.9993" fill="white" transform="translate(0.201172)"/>
    </clipPath>
  </defs>
</svg>