<svg xmlns="http://www.w3.org/2000/svg" width="20" height="21" viewBox="0 0 20 21" fill="none">
  <g clip-path="url(#clip0_13668_6643)">
    <path d="M11.3364 14.8042C11.1319 14.8233 10.9267 14.7771 10.75 14.6724C10.6863 14.607 10.6381 14.5281 10.609 14.4415C10.5799 14.355 10.5706 14.263 10.5819 14.1724C10.5866 14.0196 10.6049 13.8674 10.6364 13.7178C10.6669 13.5462 10.7063 13.3763 10.7546 13.2087L11.2909 11.3633C11.3462 11.1811 11.3828 10.9938 11.4 10.8042C11.4 10.5996 11.4273 10.4587 11.4273 10.3769C11.4329 10.1969 11.3978 10.018 11.3246 9.85353C11.2514 9.68903 11.142 9.54319 11.0046 9.4269C10.662 9.16393 10.2355 9.03467 9.80456 9.06327C9.49577 9.06791 9.18938 9.11847 8.89546 9.21327C8.57425 9.31327 8.23636 9.43296 7.88183 9.57237L7.72729 10.1724C7.83183 10.136 7.95913 10.0951 8.10456 10.0496C8.2433 10.0085 8.38713 9.98711 8.53183 9.986C8.73481 9.964 8.93907 10.0139 9.10909 10.1269C9.16624 10.1951 9.20899 10.2741 9.23477 10.3593C9.26054 10.4444 9.26882 10.5339 9.25909 10.6224C9.25859 10.7752 9.24183 10.9276 9.20909 11.0769C9.17726 11.236 9.13636 11.4042 9.08636 11.5814L8.54546 13.436C8.50187 13.6083 8.46698 13.7828 8.44093 13.9587C8.41969 14.1093 8.40905 14.2612 8.40909 14.4132C8.408 14.5944 8.44839 14.7733 8.52718 14.9364C8.60597 15.0995 8.72106 15.2424 8.86362 15.3541C9.21145 15.6212 9.64407 15.7536 10.0818 15.7269C10.39 15.7332 10.6972 15.6887 10.9909 15.595C11.2485 15.5071 11.5924 15.3814 12.0227 15.2178L12.1682 14.645C12.0516 14.6934 11.9316 14.7329 11.8091 14.7632C11.6542 14.7986 11.4951 14.8124 11.3364 14.8042ZM11.9046 6.05421C11.6572 5.82702 11.3312 5.70479 10.9955 5.71331C10.6599 5.70574 10.3342 5.82784 10.0864 6.05421C9.63198 6.446 9.58124 7.13198 9.97308 7.58639C10.008 7.6269 10.0459 7.66476 10.0864 7.69967C10.604 8.16268 11.3869 8.16268 11.9045 7.69967C12.3589 7.30401 12.4065 6.61495 12.0108 6.16057C11.9779 6.1227 11.9424 6.08716 11.9046 6.05421Z" fill="#6A7283"/>
    <path d="M10 0.713867C4.47715 0.713867 0 5.19102 0 10.7139C0 16.2367 4.47715 20.7139 10 20.7139C15.5229 20.7139 20 16.2367 20 10.7139C20 5.19102 15.5229 0.713867 10 0.713867ZM10 19.8048C4.97922 19.8048 0.909102 15.7346 0.909102 10.7139C0.909102 5.69309 4.97922 1.62297 10 1.62297C15.0208 1.62297 19.0909 5.69309 19.0909 10.7139C19.0909 15.7346 15.0208 19.8048 10 19.8048Z" fill="#6A7283"/>
  </g>
  <defs>
    <clipPath id="clip0_13668_6643">
      <rect width="20" height="20" fill="white" transform="translate(0 0.713867)"/>
    </clipPath>
  </defs>
</svg>