<svg xmlns="http://www.w3.org/2000/svg" width="38" height="24" viewBox="0 0 38 24" fill="none">
  <g clip-path="url(#clip0_13682_9702)">
    <mask id="mask0_13682_9702" style="mask-type:luminance" maskUnits="userSpaceOnUse" x="0" y="0" width="38" height="24">
      <path d="M34.2318 0H3.83271C2.06546 0 0.632812 1.43264 0.632812 3.1999V20.7994C0.632812 22.5666 2.06546 23.9993 3.83271 23.9993H34.2318C35.999 23.9993 37.4317 22.5666 37.4317 20.7994V3.1999C37.4317 1.43264 35.999 0 34.2318 0Z" fill="white"/>
    </mask>
    <g mask="url(#mask0_13682_9702)">
      <path d="M34.2318 0H3.83271C2.06546 0 0.632812 1.43264 0.632812 3.1999V20.7994C0.632812 22.5666 2.06546 23.9993 3.83271 23.9993H34.2318C35.999 23.9993 37.4317 22.5666 37.4317 20.7994V3.1999C37.4317 1.43264 35.999 0 34.2318 0Z" fill="white" stroke="white" stroke-width="1.59995"/>
    </g>
    <mask id="mask1_13682_9702" style="mask-type:luminance" maskUnits="userSpaceOnUse" x="7" y="2" width="13" height="16">
      <path d="M7.0332 17.3626V2.46387H19.1752V17.3626H7.0332Z" fill="white"/>
    </mask>
    <g mask="url(#mask1_13682_9702)">
      <path fill-rule="evenodd" clip-rule="evenodd" d="M19.1752 15.7654C16.4481 17.9493 12.3738 17.8989 9.70191 15.583C7.42678 13.6118 6.56761 11.0935 7.27399 8.18321C7.98597 5.2513 9.92431 3.38975 12.8786 2.67778C15.1121 2.14179 17.1857 2.62178 19.0464 3.96894C19.0816 3.99294 19.1128 4.02253 19.1456 4.04893C19.1056 4.09693 19.0736 4.15293 19.0256 4.19213C18.2747 4.80737 17.6529 5.5651 17.1961 6.42166C16.4534 7.78886 16.1682 9.35804 16.3825 10.8991C16.4923 11.7538 16.7545 12.5818 17.1569 13.3439C17.6529 14.2934 18.3408 15.0878 19.1744 15.7638" fill="#ED0006"/>
    </g>
    <mask id="mask2_13682_9702" style="mask-type:luminance" maskUnits="userSpaceOnUse" x="19" y="2" width="13" height="16">
      <path d="M31.315 2.46582V17.3758H19.1777V2.46662L31.315 2.46582Z" fill="white"/>
    </mask>
    <g mask="url(#mask2_13682_9702)">
      <path fill-rule="evenodd" clip-rule="evenodd" d="M19.1777 4.05635C19.6809 3.69396 20.1953 3.34837 20.7745 3.11718C23.664 1.96281 26.3399 2.3308 28.7318 4.31714C30.2374 5.5667 31.0598 7.21625 31.2718 9.15059C31.611 12.2305 29.9438 15.2608 27.1135 16.584C24.4176 17.8447 21.8193 17.5855 19.3665 15.904C19.3105 15.8656 19.2609 15.816 19.2089 15.7712C19.2441 15.7312 19.2761 15.6896 19.3137 15.652C19.6705 15.2952 20.0601 14.9664 20.3785 14.58C21.3841 13.3561 21.9312 11.9409 22.0304 10.3666C22.0848 9.57683 22.0055 8.78359 21.7961 8.02023C21.4449 6.75546 20.8257 5.6483 19.8945 4.71553C19.6649 4.48593 19.4169 4.27554 19.1777 4.05635Z" fill="#F9A000"/>
    </g>
    <path fill-rule="evenodd" clip-rule="evenodd" d="M19.1729 4.05923C19.412 4.27762 19.66 4.48801 19.8888 4.71761C20.8192 5.64958 21.4392 6.75754 21.7896 8.02151C22.0024 8.79188 22.0736 9.57666 22.024 10.3678C21.9256 11.9422 21.3776 13.3573 20.372 14.5805C20.0536 14.9677 19.664 15.2973 19.3081 15.6541C19.2705 15.6917 19.2377 15.7341 19.2033 15.7741L19.1713 15.7661C18.3393 15.0901 17.6505 14.2941 17.1537 13.3453C16.753 12.5827 16.4908 11.7549 16.3793 10.9006C16.1662 9.35956 16.4513 7.79073 17.1929 6.42316C17.6499 5.56623 18.272 4.80822 19.0233 4.19282C19.0705 4.15282 19.1033 4.09683 19.1417 4.04883C19.1529 4.04936 19.1633 4.05203 19.1729 4.05683" fill="#FF5E00"/>
    <path fill-rule="evenodd" clip-rule="evenodd" d="M9.97574 19.4086C10.2317 19.0766 10.5613 19.0134 10.9325 19.107C11.2053 19.1758 11.4077 19.3614 11.4261 19.6326C11.4589 20.1109 11.4357 20.5925 11.4357 21.0821H11.0197V20.8221C11.0208 20.5416 11.0205 20.2605 11.0189 19.9789C11.0165 19.6526 10.8685 19.4798 10.5925 19.475C10.3045 19.4694 10.1109 19.6518 10.0997 19.9661C10.0877 20.3053 10.0957 20.6461 10.0941 20.9845C10.0941 21.0149 10.0893 21.0453 10.0861 21.0837H9.66055V20.7821C9.65575 20.4701 9.66295 20.1565 9.64135 19.8461C9.62535 19.6182 9.48456 19.499 9.26856 19.4798C9.03417 19.459 8.84138 19.5702 8.77818 19.7781C8.75336 19.8699 8.74125 19.9647 8.74218 20.0597C8.73818 20.3981 8.74058 20.7365 8.74058 21.0837H8.30859V19.1278H8.72858L8.74858 19.3334C8.92378 19.127 9.13497 19.0566 9.38296 19.071C9.63015 19.087 9.81975 19.1982 9.97654 19.4086M29.1136 20.7357C29.4631 20.7421 29.7191 20.4877 29.7295 20.1229C29.7407 19.7565 29.4831 19.475 29.1336 19.4734C28.788 19.4702 28.532 19.7318 28.5256 20.0957C28.5184 20.4557 28.7688 20.7285 29.1136 20.7357ZM30.1415 21.0805H29.7095L29.6959 20.8877C29.4719 21.0925 29.2192 21.1781 28.9296 21.1325C28.7942 21.1146 28.6643 21.0679 28.5484 20.9958C28.4326 20.9237 28.3334 20.8276 28.2576 20.7141C27.972 20.2925 28.0312 19.6822 28.3896 19.3374C28.7432 18.9958 29.2272 18.9822 29.6967 19.3126V18.3086L30.1471 18.3526L30.1415 21.0789M12.2917 20.1029C12.2917 20.4725 12.5349 20.7309 12.8837 20.7333C13.238 20.7357 13.4932 20.4677 13.49 20.0965C13.4868 19.735 13.23 19.4686 12.8853 19.471C12.5365 19.4734 12.2893 19.735 12.2901 20.1021M13.454 19.3078L13.4692 19.1238H13.8876V21.0757H13.4684L13.454 20.9013C12.9277 21.2381 12.4261 21.1989 12.0845 20.8021C11.7477 20.4093 11.7565 19.7565 12.1045 19.3806C12.4581 18.9966 12.9573 18.9678 13.4524 19.307M25.1033 20.7325C25.4505 20.7325 25.7033 20.4717 25.7065 20.1077C25.7097 19.7454 25.4585 19.4758 25.1137 19.4702C24.7617 19.4646 24.5017 19.7342 24.5025 20.1045C24.5025 20.4669 24.7553 20.7309 25.1025 20.7317M25.6705 19.315L25.6913 19.1206H26.1016V21.0733H25.6897L25.6705 20.8805C25.5678 20.9859 25.4399 21.0634 25.2989 21.1055C25.158 21.1477 25.0086 21.1531 24.8649 21.1213C24.631 21.0803 24.4207 20.954 24.2745 20.7669C23.9513 20.3549 23.9873 19.7134 24.3513 19.3486C24.7073 18.9926 25.2265 18.9734 25.6713 19.3142M19.7458 19.9189C19.7402 19.6414 19.5538 19.4566 19.2819 19.4518C18.9835 19.4454 18.7763 19.6286 18.7619 19.9189H19.7458ZM18.7555 20.3149C18.8243 20.6149 19.0595 20.7869 19.3851 20.7421C19.5602 20.7181 19.729 20.6429 19.9306 20.5821L20.1234 20.8597C19.7954 21.1221 19.4315 21.1909 19.0379 21.1077C18.4755 20.9877 18.1627 20.4101 18.3195 19.7965C18.4587 19.2526 18.9867 18.9486 19.5346 19.0974C19.977 19.2174 20.293 19.7182 20.2242 20.1749C20.2082 20.2829 20.1378 20.2653 20.0714 20.2653C19.6922 20.2669 19.3123 20.2653 18.9331 20.2669C18.8755 20.2669 18.8179 20.2781 18.7603 20.2845L18.7547 20.3157L18.7555 20.3149ZM14.322 20.8693L14.4964 20.5837C14.6964 20.6421 14.8756 20.7149 15.0612 20.7413C15.1988 20.7605 15.3492 20.7357 15.4844 20.6957C15.5468 20.6773 15.618 20.5789 15.622 20.5117C15.6252 20.4613 15.5388 20.3789 15.4756 20.3557C15.3628 20.3141 15.2356 20.3077 15.1156 20.2829C15.0012 20.2589 14.8836 20.2397 14.774 20.1997C14.5508 20.1189 14.4028 19.9677 14.394 19.7198C14.3852 19.4598 14.5004 19.2598 14.742 19.1614C15.1804 18.9822 15.606 19.0494 16.038 19.2614L15.8684 19.5782C15.642 19.5334 15.4356 19.4886 15.2276 19.4534C15.169 19.448 15.1098 19.4534 15.0532 19.4694C14.942 19.4974 14.8316 19.5598 14.8596 19.6806C14.8756 19.7485 14.9796 19.8221 15.0596 19.8437C15.2732 19.9045 15.5036 19.9173 15.7132 19.9893C16.0356 20.1013 16.1708 20.3941 16.046 20.6901C15.9967 20.8012 15.9188 20.8973 15.8204 20.9685C15.4444 21.2365 14.6844 21.1821 14.3204 20.8685M16.7755 18.5238H17.2155V19.1078H17.9147V19.5046H17.2347C17.2347 19.8565 17.2251 20.1933 17.2395 20.5293C17.2459 20.6717 17.3691 20.7365 17.5059 20.7237C17.6307 20.7125 17.7539 20.6733 17.8947 20.6429L18.0099 20.9661C17.7659 21.1661 17.2875 21.1981 17.0379 21.0325C16.8723 20.9237 16.8003 20.7589 16.7923 20.5717C16.7811 20.2861 16.7843 19.9997 16.7827 19.7134V19.5118H16.3907V19.1134H16.7787V18.523L16.7755 18.5238ZM23.8313 19.3054L23.6345 19.6334C23.1481 19.4086 22.8409 19.4286 22.637 19.6918C22.4554 19.9269 22.465 20.3141 22.6586 20.5349C22.8729 20.7797 23.1993 20.7925 23.6281 20.5621L23.8297 20.8893C23.4497 21.2389 22.7314 21.2173 22.3562 20.8533C21.9706 20.4797 21.9514 19.7901 22.3138 19.3902C22.6754 18.9918 23.3873 18.9446 23.8321 19.3046M27.816 19.5134C27.7776 19.5054 27.7576 19.5006 27.7368 19.4974C27.3208 19.4142 27.124 19.5702 27.1208 19.9893C27.1176 20.2973 27.1208 20.6053 27.1192 20.9125C27.1182 20.9632 27.1158 21.0176 27.112 21.0757H26.6936V19.1198H27.0976L27.1208 19.323C27.352 19.043 27.6248 19.0198 27.9432 19.1174L27.816 19.5134ZM21.0802 21.0789H20.6794V19.1206H21.085L21.105 19.3182C21.3306 19.0462 21.6042 19.019 21.9258 19.1182L21.7978 19.5046C21.237 19.427 21.0978 19.5502 21.097 20.1109C21.097 20.4181 21.0959 20.7256 21.0938 21.0333C21.0938 21.0429 21.0882 21.0525 21.0794 21.0797" fill="black"/>
  </g>
  <defs>
    <clipPath id="clip0_13682_9702">
      <rect width="36.7989" height="23.9993" fill="white" transform="translate(0.628906)"/>
    </clipPath>
  </defs>
</svg>