<svg xmlns="http://www.w3.org/2000/svg" width="38" height="24" viewBox="0 0 38 24" fill="none">
  <g clip-path="url(#clip0_13682_9694)">
    <mask id="mask0_13682_9694" style="mask-type:luminance" maskUnits="userSpaceOnUse" x="0" y="0" width="38" height="24">
      <path d="M33.9447 0H3.5456C1.77835 0 0.345703 1.43264 0.345703 3.1999V20.7994C0.345703 22.5666 1.77835 23.9993 3.5456 23.9993H33.9447C35.7119 23.9993 37.1446 22.5666 37.1446 20.7994V3.1999C37.1446 1.43264 35.7119 0 33.9447 0Z" fill="white"/>
    </mask>
    <g mask="url(#mask0_13682_9694)">
      <path d="M33.9447 0H3.5456C1.77835 0 0.345703 1.43264 0.345703 3.1999V20.7994C0.345703 22.5666 1.77835 23.9993 3.5456 23.9993H33.9447C35.7119 23.9993 37.1446 22.5666 37.1446 20.7994V3.1999C37.1446 1.43264 35.7119 0 33.9447 0Z" fill="white" stroke="white" stroke-width="1.59995"/>
    </g>
    <path fill-rule="evenodd" clip-rule="evenodd" d="M6.75528 8.76172H4.34176C4.17856 8.76172 4.03777 8.88171 4.00897 9.04011L3.033 15.0639C3.017 15.1839 3.113 15.2959 3.23299 15.2959H4.39296C4.56095 15.2959 4.70495 15.1839 4.72895 15.0239L4.98494 13.392C5.01694 13.24 5.16093 13.12 5.32093 13.12H6.0889C7.68085 13.12 8.60083 12.368 8.84082 10.8881C8.94482 10.2401 8.84882 9.73609 8.53683 9.3761C8.19284 8.98411 7.58486 8.77612 6.77688 8.77612M7.06487 10.9761C6.92888 11.824 6.2649 11.824 5.62492 11.824H5.25693L5.51292 10.2561C5.52892 10.1601 5.61372 10.0961 5.71292 10.0961H5.87291C6.3129 10.0961 6.72088 10.0961 6.93688 10.3417C7.06247 10.4857 7.10327 10.7001 7.05687 10.9952M13.9927 10.9713H12.8239C12.7756 10.97 12.7284 10.9864 12.6912 11.0173C12.654 11.0482 12.6292 11.0915 12.6215 11.1392L12.5719 11.4552L12.4887 11.34C12.2407 10.988 11.6887 10.8729 11.1287 10.8729C9.85679 10.8729 8.76082 11.8088 8.55283 13.1288C8.44083 13.7912 8.60083 14.4167 8.98481 14.8615C9.3368 15.2615 9.84079 15.4295 10.4408 15.4295C11.4727 15.4295 12.0407 14.7815 12.0407 14.7815L11.9927 15.0935C11.9767 15.2135 12.0647 15.3175 12.1927 15.3175H13.2327C13.4007 15.3175 13.5447 15.2055 13.5687 15.0455L14.1927 11.1976C14.2167 11.0776 14.1207 10.9737 14.0007 10.9737M12.3767 13.1496C12.2647 13.7896 11.7367 14.2216 11.0728 14.2216C10.7368 14.2216 10.4728 14.1144 10.2968 13.9176C10.1288 13.7176 10.0648 13.4376 10.1208 13.1296C10.2248 12.4976 10.7528 12.0496 11.4167 12.0496C11.7447 12.0496 12.0087 12.1536 12.1847 12.3536C12.3607 12.5536 12.4327 12.8416 12.3847 13.1456M20.1525 10.9617C20.3205 10.9617 20.4165 11.1456 20.3205 11.2656L16.4566 16.6895C16.4254 16.7332 16.3844 16.7689 16.3369 16.7939C16.2894 16.8189 16.2367 16.8325 16.183 16.8335H15.015C14.855 16.8335 14.759 16.6575 14.8534 16.5295L16.059 14.8775L14.779 11.2216C14.7688 11.1917 14.7659 11.1598 14.7706 11.1285C14.7752 11.0972 14.7873 11.0674 14.8058 11.0418C14.8243 11.0161 14.8486 10.9952 14.8768 10.9809C14.905 10.9665 14.9362 10.9591 14.9678 10.9593H16.1118C16.2598 10.9593 16.3918 11.0552 16.4318 11.1912L17.1118 13.3992L18.7117 11.1032C18.7757 11.0152 18.8797 10.9593 18.9917 10.9593H20.1517" fill="#003087"/>
    <path fill-rule="evenodd" clip-rule="evenodd" d="M23.9736 8.76172H21.5577C21.3945 8.76172 21.2537 8.88171 21.2297 9.04011L20.2537 15.0639C20.2297 15.1839 20.3257 15.2879 20.4505 15.2879H21.6889C21.8048 15.2879 21.9048 15.2079 21.9208 15.0959L22.1976 13.392C22.224 13.24 22.3656 13.12 22.5288 13.12H23.2944C24.8864 13.12 25.8063 12.368 26.0463 10.8881C26.1583 10.2401 26.0543 9.73609 25.7343 9.3761C25.3983 8.98411 24.7904 8.77612 23.9824 8.77612M24.2624 10.9761C24.1264 11.824 23.4704 11.824 22.8304 11.824H22.4704L22.7264 10.2561C22.7424 10.1681 22.8304 10.0961 22.9264 10.0961H23.0944C23.5344 10.0961 23.9424 10.0961 24.1504 10.3417C24.2784 10.4857 24.3184 10.7017 24.2704 10.9977M31.2062 10.9737H30.0462C29.9502 10.9737 29.8622 11.0432 29.8462 11.1416L29.7982 11.4568L29.7182 11.3408C29.4702 10.9889 28.9102 10.8737 28.3582 10.8737C27.0783 10.8737 25.9903 11.8096 25.7743 13.1296C25.6623 13.7936 25.8223 14.4175 26.2063 14.8639C26.5583 15.2639 27.0623 15.4319 27.6623 15.4319C28.6926 15.4319 29.2622 14.7895 29.2622 14.7895L29.2142 15.1015C29.195 15.2215 29.2862 15.3255 29.4142 15.3255H30.4542C30.6222 15.3255 30.7614 15.2055 30.7854 15.0535L31.4094 11.1976C31.4334 11.0776 31.3294 10.9737 31.2094 10.9737M29.6014 13.1576C29.4894 13.8032 28.9614 14.2352 28.2975 14.2352C27.9615 14.2352 27.6919 14.1288 27.5183 13.9312C27.3439 13.7312 27.2783 13.4512 27.3359 13.1392C27.4399 12.5072 27.9679 12.0592 28.6278 12.0592C28.9558 12.0592 29.223 12.1632 29.399 12.3632C29.5798 12.5632 29.647 12.8512 29.599 13.1552M32.5717 8.96331C32.5901 8.87532 32.6709 8.80332 32.7717 8.80332H33.8869C34.0069 8.80332 34.1029 8.91211 34.0869 9.03211L33.1013 15.0391C33.0709 15.1991 32.9333 15.3111 32.7653 15.3111H31.7733C31.7449 15.3116 31.7166 15.3059 31.6905 15.2945C31.6644 15.2831 31.6411 15.2661 31.6221 15.2449C31.6031 15.2236 31.5889 15.1985 31.5805 15.1713C31.5721 15.1441 31.5697 15.1154 31.5733 15.0871L32.5613 8.95451" fill="#009CDE"/>
  </g>
  <defs>
    <clipPath id="clip0_13682_9694">
      <rect width="36.7989" height="23.9993" fill="white" transform="translate(0.341797)"/>
    </clipPath>
  </defs>
</svg>