<svg xmlns="http://www.w3.org/2000/svg" width="31" height="32" viewBox="0 0 31 32" fill="none">
  <path d="M12.5288 15.3097C12.0122 14.7931 11.2372 14.7931 10.7205 15.3097C10.2038 15.8264 10.2038 16.6014 10.7205 17.1181L14.5955 20.9931C14.8538 21.2514 15.1122 21.3806 15.4997 21.3806C15.8872 21.3806 16.1455 21.2514 16.4038 20.9931L25.4455 10.6597C25.833 10.0139 25.833 9.23891 25.1872 8.85141C24.6705 8.46391 23.8955 8.46391 23.508 8.98058L15.4997 18.1514L12.5288 15.3097Z" fill="#2FA75F"/>
  <path d="M27.1247 14.9219C26.3497 14.9219 25.833 15.4385 25.833 16.2135C25.833 21.8969 21.183 26.5469 15.4997 26.5469C9.81634 26.5469 5.16634 21.8969 5.16634 16.2135C5.16634 13.501 6.19967 10.9177 8.13718 8.98021C10.0747 6.91354 12.658 5.88021 15.4997 5.88021C16.2747 5.88021 17.1788 6.00937 17.9538 6.13854C18.5997 6.39687 19.3747 6.00938 19.633 5.23438C19.8913 4.45938 19.3747 3.94271 18.7288 3.68437H18.5997C17.5663 3.42604 16.533 3.29688 15.4997 3.29688C8.39551 3.29688 2.58301 9.10938 2.58301 16.3427C2.58301 19.701 4.00384 23.0594 6.32884 25.3844C8.78301 27.8385 12.0122 29.1302 15.3705 29.1302C22.4747 29.1302 28.2872 23.3177 28.2872 16.2135C28.4163 15.4385 27.7705 14.9219 27.1247 14.9219Z" fill="#2FA75F"/>
</svg>