<svg xmlns="http://www.w3.org/2000/svg" width="38" height="24" viewBox="0 0 38 24" fill="none">
  <g clip-path="url(#clip0_13682_9720)">
    <mask id="mask0_13682_9720" style="mask-type:luminance" maskUnits="userSpaceOnUse" x="0" y="0" width="38" height="24">
      <path d="M34.5111 0H4.11201C2.34475 0 0.912109 1.43264 0.912109 3.1999V20.7994C0.912109 22.5666 2.34475 23.9993 4.11201 23.9993H34.5111C36.2783 23.9993 37.711 22.5666 37.711 20.7994V3.1999C37.711 1.43264 36.2783 0 34.5111 0Z" fill="white"/>
    </mask>
    <g mask="url(#mask0_13682_9720)">
      <path d="M34.5111 0H4.11201C2.34475 0 0.912109 1.43264 0.912109 3.1999V20.7994C0.912109 22.5666 2.34475 23.9993 4.11201 23.9993H34.5111C36.2783 23.9993 37.711 22.5666 37.711 20.7994V3.1999C37.711 1.43264 36.2783 0 34.5111 0Z" fill="white" stroke="white" stroke-width="1.59995"/>
    </g>
    <path fill-rule="evenodd" clip-rule="evenodd" d="M14.6417 7.38406C14.6337 7.40806 14.6273 7.42406 14.6201 7.44166L10.6123 16.9694C10.5669 17.076 10.5221 17.1832 10.4779 17.291C10.4675 17.3174 10.4539 17.3286 10.4235 17.3286H7.77396C7.74036 17.3286 7.72916 17.3206 7.72116 17.2886L6.4364 12.3287C6.17561 11.3287 5.91641 10.3288 5.65482 9.3208C5.63082 9.24081 5.60682 9.16881 5.57482 9.08881C5.49483 8.86482 5.35083 8.69682 5.15084 8.57683C4.93484 8.44883 4.70285 8.35283 4.47086 8.25684C3.85519 8.01738 3.22149 7.82719 2.57572 7.68805L2.51172 7.67046V7.64966C2.52932 7.57606 2.54932 7.50086 2.56372 7.42406C2.57012 7.39046 2.58372 7.38246 2.61572 7.38246C4.06207 7.38246 5.50763 7.38486 6.95318 7.38246C7.53156 7.38246 8.03475 7.76005 8.15635 8.39603C8.34274 9.3704 8.52433 10.3456 8.70833 11.3199L9.20271 13.9279L9.24431 14.1503L9.26831 14.0991C10.1483 11.8775 11.0315 9.65599 11.9114 7.43206C11.9274 7.39526 11.9434 7.38246 11.9834 7.38246C12.8495 7.38353 13.7154 7.38353 14.5809 7.38246H14.6393L14.6417 7.38406ZM34.3987 16.9942L34.4707 17.3166V17.3246L33.61 17.3262H32.1324C32.1044 17.3262 32.0828 17.3278 32.0764 17.2894C31.9783 16.8232 31.8807 16.3566 31.7836 15.8894C31.7756 15.8494 31.7596 15.839 31.7276 15.839H28.5109C28.4733 15.839 28.4565 15.847 28.4429 15.879C28.2765 16.343 28.1093 16.807 27.9413 17.271C27.9277 17.303 27.9117 17.319 27.8693 17.319H25.215L25.231 17.271L26.263 14.807C27.1995 12.5831 28.1341 10.3592 29.0669 8.13524C29.2589 7.67126 29.6797 7.35127 30.2269 7.35926C30.774 7.36726 31.3196 7.35926 31.8668 7.35926H32.3492C32.3788 7.35926 32.3892 7.36726 32.3972 7.39526C32.4633 7.72005 32.5308 8.04458 32.5996 8.36883L33.0316 10.4248L33.4956 12.6439L33.9676 14.8694L34.4075 16.9654L34.3987 16.9942ZM25.327 13.8143C25.3862 14.5502 25.2254 15.2302 24.8022 15.843C24.495 16.2862 24.0887 16.619 23.6151 16.8726C23.1399 17.1286 22.6311 17.2886 22.1015 17.3846C21.7831 17.4406 21.4631 17.4726 21.1399 17.4886C21.1239 17.4886 21.1079 17.4966 21.0919 17.4966H20.6664C20.5704 17.4886 20.472 17.4886 20.3752 17.4806C19.62 17.4326 18.8792 17.3126 18.1648 17.0486C18.112 17.0326 18.0608 17.0086 18.0088 16.9846C17.9848 16.9766 17.9768 16.9686 17.9824 16.9366L18.3024 15.4486L18.4384 14.8006L18.4864 14.8246C18.8144 14.9822 19.1504 15.1286 19.5104 15.231C19.8464 15.331 20.1984 15.3974 20.5504 15.415C20.7824 15.4262 21.0144 15.431 21.2463 15.4214C21.5743 15.4054 21.8863 15.331 22.1743 15.1622C22.3503 15.0582 22.5023 14.9222 22.5743 14.7222C22.6783 14.4206 22.6143 14.1543 22.3903 13.9247C22.2251 13.7614 22.0364 13.6239 21.8303 13.5167C21.5663 13.3727 21.2959 13.2367 21.0303 13.1007C20.6104 12.8799 20.2104 12.6327 19.8624 12.3111C19.5424 12.0199 19.2864 11.6831 19.1424 11.2711C19.0359 10.9603 18.9966 10.6303 19.0272 10.3032C19.0624 9.84292 19.2011 9.41493 19.4432 9.01921C19.7104 8.58723 20.0688 8.24964 20.4952 7.97925C20.9752 7.67526 21.5031 7.48166 22.0551 7.36326C22.4034 7.29233 22.7546 7.25073 23.1087 7.23847C23.1279 7.2374 23.1466 7.23474 23.1647 7.23047H23.5919C23.6692 7.2374 23.7439 7.24274 23.8159 7.24647C24.4774 7.29035 25.1293 7.42854 25.7518 7.65686C25.7838 7.66646 25.7974 7.67685 25.7894 7.71285C25.6427 8.39123 25.4969 9.06855 25.3518 9.74479L25.3438 9.77519L25.1918 9.70319C24.7278 9.5112 24.2479 9.3832 23.7519 9.3336C23.4355 9.29787 23.1162 9.29787 22.7999 9.3336C22.5063 9.3736 22.2263 9.4536 21.9919 9.64399C21.8399 9.76399 21.7359 9.91599 21.7119 10.116C21.6954 10.2564 21.7325 10.3978 21.8159 10.512C21.9063 10.648 22.0319 10.752 22.1623 10.8424C22.4127 11.0184 22.6855 11.1543 22.9559 11.2983C23.3399 11.4983 23.7263 11.6999 24.0839 11.9543C24.4198 12.1879 24.7238 12.4599 24.9478 12.8103C25.1558 13.1223 25.2758 13.4663 25.3078 13.8423L25.327 13.8143ZM18.3328 7.38726C18.3126 7.48113 18.2931 7.57392 18.2744 7.66566C18.0862 8.5435 17.8976 9.4208 17.7089 10.2976L17.1361 12.9655L16.5841 15.5518L16.2161 17.291C16.2161 17.315 16.2081 17.3286 16.1761 17.3286H13.6242L13.6722 17.1126L14.2562 14.4006L14.8241 11.7767L15.3681 9.24081L15.7521 7.43286C15.7601 7.40086 15.7681 7.39286 15.8001 7.39286H18.296C18.312 7.39286 18.32 7.39286 18.336 7.40086L18.3328 7.38726ZM29.1989 13.8047H31.3444L30.5653 10.0832H30.5541L29.1989 13.8031V13.8047Z" fill="url(#paint0_linear_13682_9720)"/>
  </g>
  <defs>
    <linearGradient id="paint0_linear_13682_9720" x1="97.9733" y1="467.274" x2="34.4707" y2="467.274" gradientUnits="userSpaceOnUse">
      <stop stop-color="#10155F"/>
      <stop offset="1" stop-color="#00229B"/>
    </linearGradient>
    <clipPath id="clip0_13682_9720">
      <rect width="36.7989" height="23.9993" fill="white" transform="translate(0.914062)"/>
    </clipPath>
  </defs>
</svg>