<svg xmlns="http://www.w3.org/2000/svg" width="24" height="25" viewBox="0 0 24 25" fill="none">
  <path d="M21.9998 11.5H4.41379L9.70679 6.20702C9.8023 6.11477 9.87848 6.00443 9.93089 5.88242C9.9833 5.76042 10.0109 5.6292 10.012 5.49642C10.0132 5.36364 9.98789 5.23196 9.93761 5.10907C9.88733 4.98617 9.81307 4.87452 9.71918 4.78062C9.62529 4.68673 9.51364 4.61248 9.39074 4.5622C9.26784 4.51192 9.13616 4.48662 9.00339 4.48777C8.87061 4.48892 8.73939 4.51651 8.61738 4.56892C8.49538 4.62133 8.38503 4.69751 8.29279 4.79302L1.29279 11.793C1.10532 11.9805 1 12.2349 1 12.5C1 12.7652 1.10532 13.0195 1.29279 13.207L8.29279 20.207C8.48139 20.3892 8.73399 20.49 8.99619 20.4877C9.25838 20.4854 9.5092 20.3802 9.6946 20.1948C9.88001 20.0094 9.98518 19.7586 9.98746 19.4964C9.98974 19.2342 9.88894 18.9816 9.70679 18.793L4.41379 13.5H21.9998C22.265 13.5 22.5194 13.3947 22.7069 13.2071C22.8944 13.0196 22.9998 12.7652 22.9998 12.5C22.9998 12.2348 22.8944 11.9804 22.7069 11.7929C22.5194 11.6054 22.265 11.5 21.9998 11.5Z" fill="white"/>
</svg>