<svg xmlns="http://www.w3.org/2000/svg" width="28" height="29" viewBox="0 0 28 29" fill="none">
  <path d="M18.666 4.21436V8.88102M9.33268 4.21436V8.88102M4.66602 13.5477H23.3327M4.66602 8.88102C4.66602 8.26218 4.91185 7.66869 5.34943 7.23111C5.78702 6.79352 6.38051 6.54769 6.99935 6.54769H20.9994C21.6182 6.54769 22.2117 6.79352 22.6493 7.23111C23.0869 7.66869 23.3327 8.26218 23.3327 8.88102V22.881C23.3327 23.4999 23.0869 24.0934 22.6493 24.5309C22.2117 24.9685 21.6182 25.2144 20.9994 25.2144H6.99935C6.38051 25.2144 5.78702 24.9685 5.34943 24.5309C4.91185 24.0934 4.66602 23.4999 4.66602 22.881V8.88102ZM12.8327 19.381C12.8327 19.6904 12.9556 19.9872 13.1744 20.206C13.3932 20.4248 13.6899 20.5477 13.9993 20.5477C14.3088 20.5477 14.6055 20.4248 14.8243 20.206C15.0431 19.9872 15.166 19.6904 15.166 19.381C15.166 19.0716 15.0431 18.7749 14.8243 18.5561C14.6055 18.3373 14.3088 18.2144 13.9993 18.2144C13.6899 18.2144 13.3932 18.3373 13.1744 18.5561C12.9556 18.7749 12.8327 19.0716 12.8327 19.381Z" stroke="#6A7283" stroke-width="2" stroke-linecap="round" stroke-linejoin="round"/>
</svg>