<svg xmlns="http://www.w3.org/2000/svg" width="32" height="33" viewBox="0 0 32 33" fill="none">
  <path d="M16 26.7143C16.5304 26.7143 17.0391 26.5036 17.4142 26.1285C17.7893 25.7534 18 25.2447 18 24.7143C18 24.1839 17.7893 23.6752 17.4142 23.3001C17.0391 22.925 16.5304 22.7143 16 22.7143C15.4696 22.7143 14.9609 22.925 14.5858 23.3001C14.2107 23.6752 14 24.1839 14 24.7143C14 25.2447 14.2107 25.7534 14.5858 26.1285C14.9609 26.5036 15.4696 26.7143 16 26.7143ZM16 18.7143C16.2678 18.7229 16.5347 18.6776 16.7846 18.5811C17.0346 18.4846 17.2626 18.3388 17.4552 18.1524C17.6477 17.9661 17.8009 17.7429 17.9055 17.4962C18.0101 17.2495 18.0641 16.9843 18.0642 16.7163C18.0644 16.4484 18.0106 16.1831 17.9063 15.9363C17.8019 15.6895 17.649 15.4662 17.4566 15.2796C17.2643 15.0931 17.0364 14.9471 16.7865 14.8503C16.5366 14.7535 16.2698 14.708 16.002 14.7163C15.4828 14.7325 14.9902 14.95 14.6285 15.3229C14.2669 15.6958 14.0645 16.1948 14.0642 16.7143C14.064 17.2338 14.2658 17.733 14.6271 18.1063C14.9884 18.4796 15.4808 18.6976 16 18.7143ZM16 10.7143C16.2678 10.7229 16.5347 10.6776 16.7846 10.5811C17.0346 10.4846 17.2626 10.3388 17.4552 10.1524C17.6477 9.96606 17.8009 9.7429 17.9055 9.4962C18.0101 9.24951 18.0641 8.9843 18.0642 8.71633C18.0644 8.44837 18.0106 8.18311 17.9063 7.9363C17.8019 7.6895 17.649 7.46619 17.4566 7.27963C17.2643 7.09308 17.0364 6.94708 16.7865 6.8503C16.5366 6.75353 16.2698 6.70796 16.002 6.7163C15.4828 6.73246 14.9902 6.95002 14.6285 7.32294C14.2669 7.69585 14.0645 8.19485 14.0642 8.71433C14.064 9.23382 14.2658 9.73302 14.6271 10.1063C14.9884 10.4796 15.4808 10.6976 16 10.7143Z" fill="#6A7283"/>
</svg>