<svg xmlns="http://www.w3.org/2000/svg" width="82" height="81" viewBox="0 0 82 81" fill="none">
  <path d="M32.2719 45.2397H23.0805C21.5951 45.2397 21.1309 44.6826 21.1309 43.29V32.0561C21.1309 30.5706 21.6879 30.1064 23.0805 30.1064H32.2719V21.9363C32.2719 18.2226 32.9218 14.6946 34.7786 11.4452C36.7283 8.10286 39.5136 5.87465 43.0416 4.57487C45.3626 3.73929 47.6837 3.36792 50.1904 3.36792H59.2889C60.5887 3.36792 61.1458 3.92497 61.1458 5.22476V15.8088C61.1458 17.1085 60.5887 17.6656 59.2889 17.6656C56.7822 17.6656 54.2755 17.6656 51.7687 17.7584C49.262 17.7584 47.9622 18.9654 47.9622 21.565C47.8694 24.3502 47.9622 27.0426 47.9622 29.9207H58.7319C60.2174 29.9207 60.7744 30.4778 60.7744 31.9633V43.1972C60.7744 44.6826 60.3102 45.1468 58.7319 45.1468H47.9622V75.4134C47.9622 76.9917 47.498 77.5487 45.8268 77.5487H34.2216C32.829 77.5487 32.2719 76.9917 32.2719 75.599V45.2397Z" fill="#071431"/>
</svg>