<svg xmlns="http://www.w3.org/2000/svg" width="82" height="81" viewBox="0 0 82 81" fill="none">
  <g clip-path="url(#clip0_13633_2549)">
    <path d="M61.1501 0H20.733C9.61926 0 0.524414 9.09484 0.524414 20.2086V60.6277C0.524414 71.7384 9.61926 80.8362 20.733 80.8362H61.1501C72.2638 80.8362 81.3587 71.7384 81.3587 60.6277V20.2086C81.3587 9.09484 72.2638 0 61.1501 0ZM74.6222 60.6277C74.6222 68.0543 68.5809 74.0997 61.1501 74.0997H20.733C13.3053 74.0997 7.26093 68.0543 7.26093 60.6277V20.2086C7.26093 12.7799 13.3053 6.73652 20.733 6.73652H61.1501C68.5809 6.73652 74.6222 12.7799 74.6222 20.2086V60.6277Z" fill="#071431"/>
    <path d="M62.8363 23.5765C65.6265 23.5765 67.8885 21.3145 67.8885 18.5243C67.8885 15.7341 65.6265 13.4722 62.8363 13.4722C60.0461 13.4722 57.7842 15.7341 57.7842 18.5243C57.7842 21.3145 60.0461 23.5765 62.8363 23.5765Z" fill="#071431"/>
    <path d="M40.942 20.2087C29.7787 20.2087 20.7334 29.255 20.7334 40.4173C20.7334 51.5754 29.7787 60.6278 40.942 60.6278C52.1021 60.6278 61.1505 51.5754 61.1505 40.4173C61.1505 29.255 52.1021 20.2087 40.942 20.2087ZM40.942 53.8913C33.5021 53.8913 27.4699 47.8591 27.4699 40.4173C27.4699 32.9755 33.5021 26.9453 40.942 26.9453C48.3818 26.9453 54.414 32.9755 54.414 40.4173C54.414 47.8591 48.3818 53.8913 40.942 53.8913Z" fill="#071431"/>
  </g>
  <defs>
    <clipPath id="clip0_13633_2549">
      <rect width="80.8362" height="80.8362" fill="white" transform="translate(0.522461)"/>
    </clipPath>
  </defs>
</svg>