<svg xmlns="http://www.w3.org/2000/svg" width="82" height="81" viewBox="0 0 82 81" fill="none">
  <g clip-path="url(#clip0_13633_2554)">
    <path d="M43.9143 55.8786L31.546 68.2473L31.5457 68.2476L31.5454 68.2478C26.4307 73.3628 18.108 73.3631 12.9927 68.2478C10.5147 65.7698 9.15032 62.4752 9.15032 58.9712C9.15032 55.4676 10.5147 52.1735 12.9919 49.6955L12.9927 49.6946L25.3611 37.326C27.0686 35.6182 27.0686 32.8492 25.3608 31.1417C23.6533 29.4342 20.8843 29.4342 19.1765 31.1417L6.80813 43.5103L6.80551 43.5132C2.67768 47.6425 0.404297 53.1324 0.404297 58.9712C0.404297 64.8115 2.67855 70.3023 6.80842 74.4322C11.0712 78.6947 16.6701 80.8261 22.2693 80.8261C27.8685 80.8261 33.4677 78.6947 37.73 74.4322L37.7303 74.4316L50.0986 62.063C51.8061 60.3554 51.8061 57.5864 50.0983 55.8786C48.3911 54.1711 45.6224 54.1711 43.9143 55.8786ZM81.2405 21.8651C81.2405 16.0248 78.966 10.534 74.8361 6.40417C66.3108 -2.12087 52.4393 -2.12058 43.9146 6.40417L43.9134 6.40562L31.5454 18.7734C29.8376 20.4809 29.8376 23.2502 31.5454 24.9577C31.951 25.3644 32.433 25.687 32.9637 25.9068C33.4944 26.1266 34.0633 26.2394 34.6377 26.2387C35.7566 26.2387 36.8761 25.8116 37.7297 24.9577L50.0977 12.5899L50.0992 12.5885C55.2138 7.4738 63.5366 7.47351 68.6518 12.5885C71.1296 15.0665 72.4945 18.3611 72.4945 21.8651C72.4945 25.3687 71.1301 28.6628 68.6527 31.1408L68.6518 31.1417L56.2835 43.5103C54.576 45.2178 54.576 47.9868 56.2838 49.6946C56.6894 50.1013 57.1713 50.4238 57.702 50.6437C58.2326 50.8635 58.8014 50.9763 59.3758 50.9756C60.495 50.9756 61.6142 50.5485 62.4681 49.6946L74.8364 37.326L74.839 37.3231C78.9669 33.1938 81.2405 27.7039 81.2405 21.8651Z" fill="#071431"/>
    <path d="M25.36 55.8788C25.7656 56.2855 26.2475 56.608 26.7781 56.8279C27.3088 57.0477 27.8776 57.1605 28.452 57.1598C29.5712 57.1598 30.6904 56.7327 31.5443 55.8788L56.2815 31.1416C57.9893 29.4341 57.9893 26.6651 56.2815 24.9573C54.574 23.2498 51.805 23.2498 50.0972 24.9573L25.36 49.6942C23.6522 51.4023 23.6522 54.1713 25.36 55.8788Z" fill="#071431"/>
  </g>
  <defs>
    <clipPath id="clip0_13633_2554">
      <rect width="80.8362" height="80.8362" fill="white" transform="translate(0.404297)"/>
    </clipPath>
  </defs>
</svg>