<svg xmlns="http://www.w3.org/2000/svg" width="16" height="17" viewBox="0 0 16 17" fill="none">
  <path d="M14.8326 3.03529C14.0435 2.13985 12.9487 1.64673 11.75 1.64673C10.0641 1.64673 8.99678 2.6536 8.39828 3.49829C8.243 3.71748 8.11091 3.93726 8 4.14407C7.88909 3.93726 7.75703 3.71748 7.60172 3.49829C7.00322 2.6536 5.93587 1.64673 4.25 1.64673C3.05131 1.64673 1.95653 2.13988 1.16734 3.03532C0.414594 3.88951 0 5.03351 0 6.25657C0 7.58792 0.519781 8.8262 1.63578 10.1534C2.63319 11.3397 4.06809 12.5624 5.72969 13.9784C6.34884 14.506 6.98912 15.0516 7.67078 15.648L7.69125 15.6659C7.77962 15.7433 7.88981 15.782 8 15.782C8.11019 15.782 8.22038 15.7433 8.30875 15.6659L8.32922 15.648C9.01087 15.0516 9.65116 14.506 10.2704 13.9783C11.9319 12.5625 13.3668 11.3397 14.3642 10.1534C15.4802 8.82617 16 7.58792 16 6.25657C16 5.03351 15.5854 3.88951 14.8326 3.03529ZM9.66228 13.2648C9.12853 13.7196 8.57922 14.1877 8 14.6912C7.42081 14.1878 6.87147 13.7196 6.33763 13.2647C3.08578 10.4937 0.9375 8.66304 0.9375 6.25657C0.9375 5.26188 1.26891 4.33801 1.87069 3.65517C2.47937 2.96457 3.32434 2.58423 4.25 2.58423C5.53528 2.58423 6.36613 3.37604 6.83675 4.04029C7.25891 4.63604 7.47919 5.2366 7.55431 5.46713C7.58496 5.56119 7.64458 5.64314 7.72463 5.70125C7.80469 5.75937 7.90108 5.79066 8 5.79066C8.09892 5.79066 8.19531 5.75937 8.27537 5.70125C8.35542 5.64314 8.41504 5.56119 8.44569 5.46713C8.52081 5.2366 8.74109 4.63604 9.16325 4.04026C9.63387 3.37604 10.4647 2.58423 11.75 2.58423C12.6757 2.58423 13.5206 2.96457 14.1293 3.65517C14.7311 4.33801 15.0625 5.26188 15.0625 6.25657C15.0625 8.66304 12.9142 10.4937 9.66228 13.2648Z" fill="#6A7283"/>
</svg>