<svg xmlns="http://www.w3.org/2000/svg" width="16" height="17" viewBox="0 0 16 17" fill="none">
  <path d="M6.65967 15.901C6.25967 15.901 5.87967 15.701 5.61967 15.3477L4.81967 14.281C4.81967 14.2877 4.78634 14.2677 4.77301 14.2677H4.52634C2.24634 14.2677 0.833008 13.6477 0.833008 10.5744V7.90769C0.833008 5.10102 2.54634 4.36769 3.98634 4.24102C4.14634 4.22102 4.33301 4.21436 4.52634 4.21436H8.79301C11.2063 4.21436 12.4863 5.49436 12.4863 7.90769V10.5744C12.4863 10.7677 12.4797 10.9544 12.453 11.1344C12.333 12.5544 11.5997 14.2677 8.79301 14.2677H8.52634L7.69967 15.3477C7.43967 15.701 7.05967 15.901 6.65967 15.901ZM4.52634 5.21436C4.37301 5.21436 4.22634 5.22102 4.08634 5.23436C2.53967 5.36769 1.83301 6.21436 1.83301 7.90769V10.5744C1.83301 12.861 2.53967 13.2677 4.52634 13.2677H4.79301C5.09301 13.2677 5.43301 13.4344 5.61967 13.6744L6.41967 14.7477C6.56634 14.9477 6.75301 14.9477 6.89967 14.7477L7.69967 13.681C7.89301 13.421 8.19967 13.2677 8.52634 13.2677H8.79301C10.4863 13.2677 11.333 12.5544 11.4597 11.0344C11.4797 10.8744 11.4863 10.7277 11.4863 10.5744V7.90769C11.4863 6.04769 10.653 5.21436 8.79301 5.21436H4.52634Z" fill="#6A7283"/>
  <path d="M6.65954 10.1744C6.28621 10.1744 5.99288 9.8744 5.99288 9.50773C5.99288 9.14106 6.29288 8.84106 6.65954 8.84106C7.02621 8.84106 7.32621 9.14106 7.32621 9.50773C7.32621 9.8744 7.03288 10.1744 6.65954 10.1744ZM8.79288 10.1744C8.41954 10.1744 8.12621 9.8744 8.12621 9.50773C8.12621 9.14106 8.42621 8.84106 8.79288 8.84106C9.15954 8.84106 9.45954 9.14106 9.45954 9.50773C9.45954 9.8744 9.15954 10.1744 8.79288 10.1744ZM4.53288 10.1744C4.15954 10.1744 3.86621 9.8744 3.86621 9.50773C3.86621 9.14106 4.16621 8.84106 4.53288 8.84106C4.89954 8.84106 5.19954 9.14106 5.19954 9.50773C5.19954 9.8744 4.89954 10.1744 4.53288 10.1744Z" fill="#6A7283"/>
  <path d="M11.9601 11.5744C11.8268 11.5744 11.6934 11.5211 11.6001 11.4211C11.5482 11.368 11.5092 11.3038 11.4861 11.2332C11.463 11.1627 11.4564 11.0879 11.4668 11.0144C11.4868 10.8744 11.4934 10.7277 11.4934 10.5744V7.90773C11.4934 6.04773 10.6601 5.2144 8.80011 5.2144H4.53344C4.38011 5.2144 4.23344 5.22106 4.09344 5.2344C4.02003 5.24319 3.94559 5.23581 3.87534 5.21277C3.80509 5.18974 3.74073 5.15161 3.68678 5.10106C3.63363 5.04958 3.59237 4.98711 3.56588 4.91802C3.5394 4.84892 3.52833 4.77488 3.53344 4.70106C3.65344 3.26106 4.39344 1.54773 7.20011 1.54773H11.4668C13.8801 1.54773 15.1601 2.82773 15.1601 5.24106V7.90773C15.1601 10.7144 13.4468 11.4477 12.0068 11.5744H11.9601ZM4.61344 4.2144H8.79344C11.2068 4.2144 12.4868 5.4944 12.4868 7.90773V10.4877C13.6201 10.2077 14.1534 9.3744 14.1534 7.90773V5.24106C14.1534 3.38106 13.3201 2.54773 11.4601 2.54773H7.19344C5.72678 2.54773 4.90011 3.08106 4.61344 4.2144Z" fill="#6A7283"/>
</svg>