<svg xmlns="http://www.w3.org/2000/svg" width="24" height="25" viewBox="0 0 24 25" fill="none">
  <path fill-rule="evenodd" clip-rule="evenodd" d="M10.1021 4.41878C9.62655 5.07728 2.60505 16.7713 2.0013 17.6053C1.74241 17.9638 1.58757 18.3869 1.55386 18.8278C1.52015 19.2687 1.60889 19.7104 1.81028 20.1041C2.01166 20.4978 2.31788 20.8282 2.69515 21.0589C3.07242 21.2896 3.50608 21.4117 3.9483 21.4115H20.1506C20.5926 21.4111 21.0259 21.2888 21.4028 21.0579C21.7797 20.8271 22.0857 20.4968 22.287 20.1033C22.4883 19.7098 22.5771 19.2684 22.5437 18.8276C22.5103 18.3869 22.3559 17.9639 22.0976 17.6053C21.9243 17.3675 14.1003 4.56278 13.9968 4.41878C13.7743 4.11041 13.4817 3.8593 13.1431 3.68611C12.8046 3.51292 12.4297 3.42261 12.0494 3.42261C11.6691 3.42261 11.2943 3.51292 10.9557 3.68611C10.6172 3.8593 10.3246 4.11041 10.1021 4.41878ZM11.3193 5.29628C11.4027 5.18045 11.5124 5.08609 11.6394 5.02101C11.7664 4.95593 11.9071 4.92199 12.0498 4.92199C12.1925 4.92199 12.3332 4.95593 12.4602 5.02101C12.5872 5.08609 12.6969 5.18045 12.7803 5.29628C12.8823 5.43878 20.7093 18.245 20.8811 18.4835C21.0783 18.7573 21.1061 19.1203 20.9531 19.421C20.7986 19.7218 20.4881 19.9123 20.1506 19.9123H3.9483C3.6108 19.9123 3.3003 19.7218 3.1458 19.4218C3.07065 19.2738 3.03761 19.108 3.05031 18.9426C3.06301 18.7771 3.12095 18.6183 3.2178 18.4835C3.8208 17.6488 10.8431 5.95403 11.3193 5.29628Z" fill="#6A7283"/>
  <path fill-rule="evenodd" clip-rule="evenodd" d="M11.25 8V15.5C11.25 15.6989 11.329 15.8897 11.4697 16.0303C11.6103 16.171 11.8011 16.25 12 16.25C12.1989 16.25 12.3897 16.171 12.5303 16.0303C12.671 15.8897 12.75 15.6989 12.75 15.5V8C12.75 7.80109 12.671 7.61032 12.5303 7.46967C12.3897 7.32902 12.1989 7.25 12 7.25C11.8011 7.25 11.6103 7.32902 11.4697 7.46967C11.329 7.61032 11.25 7.80109 11.25 8Z" fill="#6A7283"/>
  <path d="M12 18.5C12.4142 18.5 12.75 18.1642 12.75 17.75C12.75 17.3358 12.4142 17 12 17C11.5858 17 11.25 17.3358 11.25 17.75C11.25 18.1642 11.5858 18.5 12 18.5Z" fill="#6A7283"/>
</svg>