<svg xmlns="http://www.w3.org/2000/svg" width="24" height="25" viewBox="0 0 24 25" fill="none">
  <path d="M2.66667 20.9994C2.61583 20.9994 2.5645 20.9937 2.51367 20.9822C2.36752 20.9482 2.23732 20.8669 2.14412 20.7514C2.05092 20.6359 2.00014 20.4929 2 20.3456C2 14.4043 2.76633 9.46297 12 9.23822V4.65375C12 4.52663 12.0378 4.40227 12.1088 4.2959C12.1797 4.18952 12.2808 4.10573 12.3995 4.05479C12.5183 4.00385 12.6496 3.98797 12.7774 4.00908C12.9052 4.0302 13.024 4.0874 13.1192 4.17368L21.7858 12.0196C21.9225 12.1427 22 12.3171 22 12.4997C22 12.6822 21.9225 12.8567 21.7858 12.9799L13.1192 20.8258C13.0241 20.9124 12.9053 20.9698 12.7773 20.991C12.6494 21.0121 12.5179 20.996 12.3992 20.9447C12.2805 20.8936 12.1795 20.8098 12.1086 20.7034C12.0378 20.597 12 20.4727 12 20.3456V15.7765C5.666 15.9252 4.49733 18.2169 3.263 20.638C3.20766 20.7466 3.12254 20.838 3.01721 20.9018C2.91187 20.9657 2.79049 20.9995 2.66667 20.9994ZM12.6667 14.4611C13.0352 14.4611 13.3333 14.7536 13.3333 15.115V18.8521L20.3503 12.4997L13.3333 6.14725V9.88436C13.3333 10.2458 13.0352 10.5382 12.6667 10.5382C5.302 10.5382 3.71617 13.3317 3.40433 17.7935C4.78517 15.9744 7.13867 14.4611 12.6667 14.4611Z" fill="#6A7283"/>
</svg>