<svg xmlns="http://www.w3.org/2000/svg" width="16" height="17" viewBox="0 0 16 17" fill="none">
  <path d="M12.8555 11.0894C11.9292 11.0894 11.1129 11.545 10.6003 12.2379L6.16766 9.96823C6.24125 9.71739 6.29297 9.45742 6.29297 9.18311C6.29297 8.81104 6.21669 8.45732 6.08491 8.13198L10.7238 5.34048C11.2401 5.94636 11.9989 6.33936 12.8555 6.33936C14.4064 6.33936 15.668 5.07776 15.668 3.52686C15.668 1.97595 14.4064 0.714355 12.8555 0.714355C11.3046 0.714355 10.043 1.97595 10.043 3.52686C10.043 3.88426 10.1166 4.22329 10.2387 4.53804L5.58594 7.33773C5.07013 6.74986 4.32225 6.37061 3.48047 6.37061C1.92956 6.37061 0.667969 7.6322 0.667969 9.18311C0.667969 10.734 1.92956 11.9956 3.48047 11.9956C4.42203 11.9956 5.25206 11.5266 5.76281 10.8142L10.1808 13.0765C10.0994 13.3392 10.043 13.6128 10.043 13.9019C10.043 15.4528 11.3046 16.7144 12.8555 16.7144C14.4064 16.7144 15.668 15.4528 15.668 13.9019C15.668 12.3509 14.4064 11.0894 12.8555 11.0894Z" fill="white"/>
</svg>