<svg xmlns="http://www.w3.org/2000/svg" width="24" height="25" viewBox="0 0 24 25" fill="none">
  <path d="M8.625 17.375C8.52554 17.375 8.43016 17.4145 8.35983 17.4848C8.28951 17.5552 8.25 17.6505 8.25 17.75V19.625C8.25 19.7245 8.28951 19.8198 8.35983 19.8902C8.43016 19.9605 8.52554 20 8.625 20C8.72446 20 8.81984 19.9605 8.89017 19.8902C8.96049 19.8198 9 19.7245 9 19.625V17.75C9 17.6505 8.96049 17.5552 8.89017 17.4848C8.81984 17.4145 8.72446 17.375 8.625 17.375Z" fill="#798090"/>
  <path d="M8.625 13.625C8.52554 13.625 8.43016 13.6645 8.35983 13.7348C8.28951 13.8052 8.25 13.9005 8.25 14V15.875C8.25 15.9745 8.28951 16.0698 8.35983 16.1402C8.43016 16.2105 8.52554 16.25 8.625 16.25C8.72446 16.25 8.81984 16.2105 8.89017 16.1402C8.96049 16.0698 9 15.9745 9 15.875V14C9 13.9005 8.96049 13.8052 8.89017 13.7348C8.81984 13.6645 8.72446 13.625 8.625 13.625Z" fill="#798090"/>
  <path d="M22.875 14.375C22.9745 14.375 23.0698 14.3355 23.1402 14.2652C23.2105 14.1949 23.25 14.0995 23.25 14V11.75C23.2495 11.506 23.169 11.2689 23.0209 11.075C23.1603 10.8638 23.2382 10.6178 23.2456 10.3648C23.2531 10.1118 23.19 9.86169 23.0632 9.64255L22.23 8.20142C22.2054 8.15875 22.1726 8.12133 22.1336 8.09132C22.0945 8.0613 22.05 8.03928 22.0024 8.0265C21.9548 8.01372 21.9052 8.01043 21.8564 8.01683C21.8075 8.02323 21.7604 8.03919 21.7178 8.0638C21.2297 8.34561 20.6497 8.42201 20.1054 8.27618C19.561 8.13036 19.0969 7.77427 18.8151 7.28624C18.5333 6.79821 18.4569 6.21821 18.6027 5.67385C18.7485 5.12949 19.1046 4.66536 19.5926 4.38355C19.6783 4.3334 19.7408 4.2515 19.7664 4.15561C19.7921 4.05972 19.779 3.95757 19.7299 3.8713L18.7297 2.13955C18.5908 1.90127 18.3633 1.72749 18.0969 1.656C17.8305 1.58451 17.5466 1.6211 17.307 1.7578L1.95 10.625H1.875C1.57663 10.625 1.29048 10.7436 1.0795 10.9546C0.868526 11.1655 0.75 11.4517 0.75 11.75V14C0.75 14.0995 0.789509 14.1949 0.859835 14.2652C0.930161 14.3355 1.02554 14.375 1.125 14.375C1.77147 14.375 2.39145 14.6319 2.84857 15.089C3.30569 15.5461 3.5625 16.1661 3.5625 16.8125C3.5625 17.459 3.30569 18.079 2.84857 18.5361C2.39145 18.9932 1.77147 19.25 1.125 19.25C1.02554 19.25 0.930161 19.2896 0.859835 19.3599C0.789509 19.4302 0.75 19.5256 0.75 19.625V21.5C0.75 21.8979 0.908035 22.2794 1.18934 22.5607C1.47064 22.842 1.85218 23 2.25 23H21.75C22.1478 23 22.5294 22.842 22.8107 22.5607C23.092 22.2794 23.25 21.8979 23.25 21.5V19.625C23.25 19.5256 23.2105 19.4302 23.1402 19.3599C23.0698 19.2896 22.9745 19.25 22.875 19.25C22.2285 19.25 21.6085 18.9932 21.1514 18.5361C20.6943 18.079 20.4375 17.459 20.4375 16.8125C20.4375 16.1661 20.6943 15.5461 21.1514 15.089C21.6085 14.6319 22.2285 14.375 22.875 14.375ZM17.682 2.4073C17.7491 2.36901 17.8285 2.35876 17.9031 2.37877C17.9777 2.39879 18.0414 2.44745 18.0802 2.51417L18.9053 3.94217C18.3521 4.3669 17.9722 4.97817 17.8362 5.66216C17.7002 6.34615 17.8175 7.05625 18.1661 7.66025C18.5147 8.26425 19.0709 8.72098 19.7312 8.9454C20.3914 9.16982 21.1108 9.14664 21.7552 8.88017L22.413 10.0194C22.4696 10.1177 22.4979 10.2297 22.4949 10.343C22.4918 10.4564 22.4575 10.5667 22.3958 10.6618C22.3073 10.6385 22.2164 10.6262 22.125 10.625H3.45L17.682 2.4073ZM19.6875 16.8125C19.6884 17.5927 19.975 18.3456 20.4932 18.9288C21.0114 19.512 21.7253 19.8853 22.5 19.9779V21.5C22.5 21.699 22.421 21.8897 22.2803 22.0304C22.1397 22.171 21.9489 22.25 21.75 22.25H9V21.5C9 21.4006 8.96049 21.3052 8.89017 21.2349C8.81984 21.1646 8.72446 21.125 8.625 21.125C8.52554 21.125 8.43016 21.1646 8.35983 21.2349C8.28951 21.3052 8.25 21.4006 8.25 21.5V22.25H2.25C2.05109 22.25 1.86032 22.171 1.71967 22.0304C1.57902 21.8897 1.5 21.699 1.5 21.5V19.9779C2.27504 19.8861 2.98946 19.5132 3.50786 18.9298C4.02626 18.3463 4.31259 17.593 4.31259 16.8125C4.31259 16.0321 4.02626 15.2788 3.50786 14.6953C2.98946 14.1119 2.27504 13.739 1.5 13.6472V11.75C1.5 11.6506 1.53951 11.5552 1.60984 11.4849C1.68016 11.4146 1.77554 11.375 1.875 11.375H8.25V12.125C8.25 12.2245 8.28951 12.3199 8.35983 12.3902C8.43016 12.4605 8.52554 12.5 8.625 12.5C8.72446 12.5 8.81984 12.4605 8.89017 12.3902C8.96049 12.3199 9 12.2245 9 12.125V11.375H22.125C22.2245 11.375 22.3198 11.4146 22.3902 11.4849C22.4605 11.5552 22.5 11.6506 22.5 11.75V13.6472C21.7253 13.7399 21.0114 14.1131 20.4932 14.6963C19.975 15.2795 19.6884 16.0324 19.6875 16.8125Z" fill="#798090"/>
  <path d="M12.75 16.25C13.0467 16.25 13.3367 16.162 13.5834 15.9972C13.83 15.8324 14.0223 15.5981 14.1358 15.324C14.2494 15.0499 14.2791 14.7483 14.2212 14.4574C14.1633 14.1664 14.0204 13.8991 13.8107 13.6893C13.6009 13.4796 13.3336 13.3367 13.0426 13.2788C12.7517 13.2209 12.4501 13.2506 12.176 13.3642C11.9019 13.4777 11.6676 13.67 11.5028 13.9166C11.338 14.1633 11.25 14.4533 11.25 14.75C11.25 15.1478 11.408 15.5294 11.6893 15.8107C11.9706 16.092 12.3522 16.25 12.75 16.25ZM12.75 14C12.8983 14 13.0433 14.044 13.1667 14.1264C13.29 14.2088 13.3861 14.3259 13.4429 14.463C13.4997 14.6 13.5145 14.7508 13.4856 14.8963C13.4567 15.0418 13.3852 15.1754 13.2803 15.2803C13.1754 15.3852 13.0418 15.4567 12.8963 15.4856C12.7508 15.5145 12.6 15.4997 12.463 15.4429C12.3259 15.3861 12.2088 15.29 12.1264 15.1667C12.044 15.0433 12 14.8983 12 14.75C12 14.5511 12.079 14.3603 12.2197 14.2197C12.3603 14.079 12.5511 14 12.75 14Z" fill="#798090"/>
  <path d="M17.25 17.75C16.9533 17.75 16.6633 17.838 16.4166 18.0028C16.17 18.1676 15.9777 18.4019 15.8642 18.676C15.7506 18.9501 15.7209 19.2517 15.7788 19.5426C15.8367 19.8336 15.9796 20.1009 16.1893 20.3107C16.3991 20.5204 16.6664 20.6633 16.9574 20.7212C17.2483 20.7791 17.5499 20.7494 17.824 20.6358C18.0981 20.5223 18.3324 20.33 18.4972 20.0834C18.662 19.8367 18.75 19.5467 18.75 19.25C18.75 18.8522 18.592 18.4706 18.3107 18.1893C18.0294 17.908 17.6478 17.75 17.25 17.75ZM17.25 20C17.1017 20 16.9567 19.956 16.8333 19.8736C16.71 19.7912 16.6139 19.6741 16.5571 19.537C16.5003 19.4 16.4855 19.2492 16.5144 19.1037C16.5434 18.9582 16.6148 18.8246 16.7197 18.7197C16.8246 18.6148 16.9582 18.5433 17.1037 18.5144C17.2492 18.4855 17.4 18.5003 17.537 18.5571C17.6741 18.6139 17.7912 18.71 17.8736 18.8333C17.956 18.9567 18 19.1017 18 19.25C18 19.4489 17.921 19.6397 17.7803 19.7803C17.6397 19.921 17.4489 20 17.25 20Z" fill="#798090"/>
  <path d="M11.582 19.25C11.5817 19.4812 11.6502 19.7072 11.7786 19.8994C11.9071 20.0917 12.0898 20.2414 12.3035 20.3295C12.5172 20.4177 12.7523 20.4404 12.9789 20.3946C13.2056 20.3489 13.4135 20.2369 13.5763 20.0727L18.0467 15.5457C18.2553 15.3335 18.3722 15.0478 18.3722 14.7502C18.3722 14.4526 18.2553 14.1668 18.0467 13.9546C17.8318 13.7517 17.5475 13.6387 17.252 13.6387C16.9565 13.6387 16.6722 13.7517 16.4574 13.9546L11.9285 18.425C11.819 18.5327 11.732 18.6611 11.6726 18.8027C11.6131 18.9444 11.5823 19.0964 11.582 19.25ZM12.4554 18.9575L16.9865 14.4845C17.0208 14.447 17.0624 14.4169 17.1086 14.396C17.1549 14.375 17.205 14.3637 17.2557 14.3627C17.3065 14.3617 17.357 14.371 17.4041 14.3901C17.4511 14.4092 17.4938 14.4376 17.5296 14.4737C17.5653 14.5098 17.5934 14.5527 17.612 14.6C17.6307 14.6472 17.6395 14.6978 17.6381 14.7485C17.6366 14.7993 17.6248 14.8492 17.6034 14.8953C17.5821 14.9414 17.5516 14.9827 17.5138 15.0166L13.0438 19.5455C13.0052 19.5841 12.9593 19.6148 12.9089 19.6357C12.8584 19.6566 12.8043 19.6674 12.7497 19.6674C12.6951 19.6674 12.641 19.6567 12.5906 19.6358C12.5401 19.6149 12.4942 19.5843 12.4556 19.5457C12.417 19.5071 12.3863 19.4612 12.3654 19.4108C12.3445 19.3603 12.3337 19.3062 12.3337 19.2516C12.3337 19.197 12.3444 19.1429 12.3653 19.0924C12.3862 19.042 12.4168 18.9961 12.4554 18.9575Z" fill="#798090"/>
</svg>