<svg xmlns="http://www.w3.org/2000/svg" width="24" height="25" viewBox="0 0 24 25" fill="none">
  <g clip-path="url(#clip0_13767_1444)">
    <path fill-rule="evenodd" clip-rule="evenodd" d="M10.482 11.0172C10.3256 11.1736 10.3256 11.4264 10.482 11.5828L12.882 13.9828C12.96 14.0608 13.0624 14.1 13.1648 14.1C13.2672 14.1 13.3696 14.0608 13.4476 13.9828C13.604 13.8264 13.604 13.5736 13.4476 13.4172L11.0476 11.0172C10.8912 10.8608 10.6384 10.8608 10.482 11.0172ZM9.4476 12.6172C9.2912 12.4608 9.0384 12.4608 8.882 12.6172C8.7256 12.7736 8.7256 13.0264 8.882 13.1828L11.282 15.5828C11.36 15.6608 11.4624 15.7 11.5648 15.7C11.6672 15.7 11.7696 15.6608 11.8476 15.5828C12.004 15.4264 12.004 15.1736 11.8476 15.0172L9.4476 12.6172ZM7.8476 14.2172C7.6912 14.0608 7.4384 14.0608 7.282 14.2172C7.1256 14.3736 7.1256 14.6264 7.282 14.7828L9.682 17.1828C9.76 17.2608 9.8624 17.3 9.9648 17.3C10.0672 17.3 10.1696 17.2608 10.2476 17.1828C10.404 17.0264 10.404 16.7736 10.2476 16.6172L7.8476 14.2172ZM15.3992 13.3L11.1648 9.0656L5.3304 14.9L9.5648 19.1344L15.3992 13.3ZM11.4476 8.2172L16.2476 13.0172C16.404 13.1736 16.404 13.4264 16.2476 13.5828L9.8476 19.9828C9.7696 20.0608 9.6672 20.1 9.5648 20.1C9.4624 20.1 9.36 20.0608 9.282 19.9828L4.482 15.1828C4.3256 15.0264 4.3256 14.7736 4.482 14.6172L10.882 8.2172C11.0384 8.0608 11.2912 8.0608 11.4476 8.2172ZM20.7548 15.13C20.5636 15.0176 20.3188 15.082 20.2072 15.2728L15.6224 23.0928C15.2912 23.666 14.5556 23.8632 14.0004 23.5432L13.1072 22.9644C12.9224 22.844 12.6744 22.8972 12.5544 23.0824C12.434 23.268 12.4868 23.5156 12.6724 23.6356L13.5828 24.2256C13.8968 24.4068 14.2404 24.4928 14.5796 24.4928C15.2712 24.4928 15.9444 24.1348 16.3136 23.4952L20.8972 15.6772C21.0088 15.4868 20.9452 15.242 20.7548 15.13ZM23.9648 2.5V8.9C23.9648 10.1376 23.5712 11.0596 22.6476 11.9828L10.7684 23.8788C10.3904 24.2568 9.888 24.4644 9.3536 24.4644C8.8192 24.4644 8.3172 24.2568 7.94 23.8788L0.586 16.5252C0.208 16.1472 0 15.6448 0 15.1104C0 14.576 0.208 14.074 0.586 13.6964L10.9756 3.3208C8.2588 2.7032 6.5728 2.6616 6.0792 2.806C6.2876 3.0192 6.9368 3.472 8.5036 4.0896C8.7092 4.1708 8.81 4.4028 8.7292 4.6084C8.648 4.814 8.4156 4.9136 8.2104 4.834C4.9672 3.5556 5.1568 2.8468 5.2284 2.58C5.3768 2.024 6.1692 1.8388 7.7924 1.9808C9.1144 2.0964 10.8208 2.4224 12.5972 2.898C14.3736 3.374 16.0136 3.9448 17.216 4.506C18.694 5.1952 19.2864 5.7508 19.1372 6.3072C18.9932 6.844 18.2448 6.9096 17.9988 6.9312C17.9872 6.9324 17.9752 6.9328 17.9636 6.9328C17.7584 6.9328 17.584 6.7756 17.5656 6.5676C17.546 6.3476 17.7088 6.1536 17.9292 6.1344C18.0996 6.1196 18.2128 6.0964 18.286 6.0756C18.1148 5.8968 17.6816 5.618 16.9888 5.286C16.8436 5.5308 16.7648 5.812 16.7648 6.1C16.7648 6.9824 17.4824 7.7 18.3648 7.7C19.2472 7.7 19.9648 6.9824 19.9648 6.1C19.9648 5.2176 19.2472 4.5 18.3648 4.5C18.1436 4.5 17.9648 4.3212 17.9648 4.1C17.9648 3.8788 18.1436 3.7 18.3648 3.7C19.6884 3.7 20.7648 4.7764 20.7648 6.1C20.7648 7.4236 19.6884 8.5 18.3648 8.5C17.0412 8.5 15.9648 7.4236 15.9648 6.1C15.9648 5.6988 16.0704 5.308 16.2588 4.9592C15.3016 4.5572 14.0176 4.1072 12.3904 3.6708C12.2188 3.6248 12.0536 3.5828 11.8884 3.5408L1.1516 14.2624C0.9248 14.4888 0.8 14.7904 0.8 15.1104C0.8 15.4312 0.9248 15.7324 1.1516 15.9592L8.5056 23.3132C8.9588 23.7664 9.7492 23.7664 10.2024 23.3132L22.0816 11.4172C22.8612 10.638 23.1648 9.932 23.1648 8.9V2.5C23.1648 1.8384 22.6264 1.3 21.9648 1.3H15.5648C14.5328 1.3 13.8268 1.6036 13.0476 2.3828C12.8912 2.5392 12.6384 2.5392 12.482 2.3828C12.3256 2.2264 12.3256 1.9736 12.482 1.8172C13.4052 0.8936 14.3272 0.5 15.5648 0.5H21.9648C23.0676 0.5 23.9648 1.3972 23.9648 2.5Z" fill="#071431"/>
  </g>
  <defs>
    <clipPath id="clip0_13767_1444">
      <rect width="24" height="24" fill="white" transform="translate(0 0.5)"/>
    </clipPath>
  </defs>
</svg>