<svg xmlns="http://www.w3.org/2000/svg" width="25" height="24" viewBox="0 0 25 24" fill="none">
  <g clip-path="url(#clip0_13589_271)">
    <path d="M17.9862 -9.8604e-05C16.6249 0.0917763 15.168 0.901776 14.2662 1.9949C13.4768 2.95678 12.8149 4.36865 13.0662 5.8349C12.8412 5.76553 12.6368 5.75803 12.3912 5.6699C11.7218 5.43178 10.9568 5.1749 10.0062 5.1749C8.11803 5.1749 6.18491 6.29803 4.96616 8.1749C3.19241 10.9012 3.54866 15.6993 6.24116 19.7999C6.71554 20.5199 7.26866 21.3055 7.95116 21.9299C8.63366 22.5543 9.45866 23.0305 10.4262 23.0399C11.253 23.0493 11.8287 22.7737 12.3462 22.5449C12.8637 22.3162 13.3455 22.1137 14.2512 22.1099C14.2568 22.1099 14.2605 22.1099 14.2662 22.1099C15.168 22.1024 15.6349 22.3012 16.1412 22.5299C16.6474 22.7587 17.2174 23.0474 18.0462 23.0399C19.0324 23.0324 19.8705 22.4924 20.5662 21.8249C21.2618 21.1574 21.8337 20.338 22.3062 19.6199C22.983 18.5887 23.2549 18.0262 23.7762 16.8749C23.8305 16.7549 23.8324 16.6162 23.7799 16.4943C23.7293 16.3724 23.6299 16.2768 23.5062 16.2299C21.7999 15.5849 20.8268 14.0755 20.6862 12.4799C20.5455 10.8843 21.2205 9.24178 22.9212 8.3099C23.0468 8.2424 23.1349 8.12428 23.1649 7.98553C23.193 7.84678 23.1593 7.70053 23.0712 7.5899C21.8505 6.07303 20.133 5.1749 18.4512 5.1749C17.3787 5.1749 16.5912 5.42803 15.9462 5.6699C15.8393 5.71115 15.7605 5.7074 15.6612 5.7449C16.3155 5.3999 16.893 4.92178 17.3262 4.3649C18.1137 3.35428 18.7212 1.91615 18.4962 0.404901C18.4587 0.157401 18.2355 -0.0188486 17.9862 -9.8604e-05ZM17.4762 1.1399C17.4443 2.10928 17.1124 3.05803 16.5612 3.7649C15.9837 4.5074 15.0124 5.02115 14.0712 5.1749C14.088 4.24303 14.4555 3.2774 15.0162 2.5949C15.6049 1.8824 16.5799 1.36865 17.4762 1.1399ZM10.0062 6.1349C10.4262 6.1349 11.4012 6.33553 12.0612 6.5699C12.7212 6.80428 13.4168 7.0799 14.2362 7.0799C15.0368 7.0799 15.6705 6.8024 16.2912 6.5699C16.9118 6.3374 17.5305 6.1349 18.4512 6.1349C19.653 6.1349 20.9524 6.75928 21.9762 7.8449C20.3374 9.00178 19.5705 10.8055 19.7262 12.5549C19.8818 14.323 20.9468 16.0012 22.6962 16.8749C22.6937 16.8804 22.6912 16.8858 22.6887 16.8912C22.3141 17.7071 22.0644 18.2511 21.5112 19.0949C21.0518 19.7943 20.5062 20.5593 19.9062 21.1349C19.3062 21.7105 18.6705 22.0743 18.0312 22.0799C17.4143 22.0855 17.0637 21.9018 16.5312 21.6599C15.9987 21.418 15.3105 21.1405 14.2512 21.1499C13.1937 21.1555 12.4962 21.4218 11.9562 21.6599C11.4162 21.898 11.0618 22.0855 10.4412 22.0799C9.78491 22.0743 9.17554 21.7555 8.59616 21.2249C8.01679 20.6943 7.49366 19.9705 7.03616 19.2749C4.51616 15.4349 4.31366 10.9237 5.76116 8.6999C6.82241 7.06678 9.58616 6.1349 10.0062 6.1349Z" fill="black"/>
    <path d="M10.0062 6.1349C10.4262 6.1349 11.4012 6.33553 12.0612 6.5699C12.7212 6.80428 13.4168 7.0799 14.2362 7.0799C15.0368 7.0799 15.6705 6.8024 16.2912 6.5699C16.9118 6.3374 17.5305 6.1349 18.4512 6.1349C19.653 6.1349 20.9524 6.75928 21.9762 7.8449C20.3374 9.00178 19.5705 10.8055 19.7262 12.5549C19.8818 14.323 20.9468 16.0012 22.6962 16.8749L22.6887 16.8912C22.3141 17.7071 22.0644 18.2511 21.5112 19.0949C21.0518 19.7943 20.5062 20.5593 19.9062 21.1349C19.3062 21.7105 18.6705 22.0743 18.0312 22.0799C17.4143 22.0855 17.0637 21.9018 16.5312 21.6599C15.9987 21.418 15.3105 21.1405 14.2512 21.1499C13.1937 21.1555 12.4962 21.4218 11.9562 21.6599C11.4162 21.898 11.0618 22.0855 10.4412 22.0799C9.78491 22.0743 9.17554 21.7555 8.59616 21.2249C8.01679 20.6943 7.49366 19.9705 7.03616 19.2749C4.51616 15.4349 4.31366 10.9237 5.76116 8.6999C6.82241 7.06678 9.58616 6.1349 10.0062 6.1349Z" fill="black"/>
    <path d="M17.4762 1.1399C17.4443 2.10928 17.1124 3.05803 16.5612 3.7649C15.9837 4.5074 15.0124 5.02115 14.0712 5.1749C14.088 4.24303 14.4555 3.2774 15.0162 2.5949C15.6049 1.8824 16.5799 1.36865 17.4762 1.1399Z" fill="black"/>
  </g>
  <defs>
    <clipPath id="clip0_13589_271">
      <rect width="24" height="24" fill="white" transform="translate(0.5)"/>
    </clipPath>
  </defs>
</svg>