<svg xmlns="http://www.w3.org/2000/svg" width="56" height="56" viewBox="0 0 56 56" fill="none">
  <path d="M39.9875 33.0575C39.0923 32.1673 37.8812 31.6676 36.6188 31.6676C35.3563 31.6676 34.1452 32.1673 33.25 33.0575L30.8525 35.455C28.5264 34.5238 26.4134 33.1301 24.6417 31.3583C22.8699 29.5866 21.4763 27.4736 20.545 25.1475L22.9425 22.75C23.8327 21.8548 24.3324 20.6437 24.3324 19.3812C24.3324 18.1188 23.8327 16.9077 22.9425 16.0125L17.6925 10.7625C16.7973 9.87231 15.5862 9.37263 14.3238 9.37263C13.0613 9.37263 11.8502 9.87231 10.955 10.7625L6.31752 15.26C5.21522 16.356 4.4687 17.7586 4.17527 19.2851C3.88184 20.8115 4.05512 22.391 4.67252 23.8175C9.94605 36.1959 19.8041 46.054 32.1825 51.3275C33.157 51.7406 34.2041 51.9547 35.2625 51.9575C36.2803 51.9573 37.288 51.7563 38.228 51.3659C39.1679 50.9755 40.0216 50.4034 40.74 49.6825L45.3075 45.115C45.7504 44.6729 46.1018 44.1478 46.3415 43.5697C46.5812 42.9917 46.7046 42.372 46.7046 41.7462C46.7046 41.1205 46.5812 40.5008 46.3415 39.9228C46.1018 39.3447 45.7504 38.8196 45.3075 38.3775L39.9875 33.0575ZM42.84 42.63L38.2725 47.25C37.6704 47.8575 36.8991 48.2694 36.0592 48.4317C35.2194 48.594 34.3502 48.4994 33.565 48.16C22.0098 43.2173 12.8116 34.0003 7.89252 22.435C7.54661 21.6549 7.44342 20.7887 7.59634 19.9492C7.74927 19.1097 8.15125 18.3355 8.75002 17.7275L13.37 13.16C13.4867 13.0423 13.6258 12.9492 13.7791 12.886C13.9324 12.8229 14.0968 12.7911 14.2625 12.7925C14.5966 12.7936 14.917 12.9255 15.155 13.16L20.405 18.4975C20.6358 18.7302 20.7654 19.0447 20.7654 19.3725C20.7654 19.7003 20.6358 20.0148 20.405 20.2475L17.29 23.4675C17.0651 23.692 16.9055 23.9735 16.8284 24.2818C16.7513 24.5901 16.7597 24.9136 16.8525 25.2175C17.939 28.4489 19.7588 31.3849 22.1695 33.7955C24.5801 36.2062 27.5161 38.026 30.7475 39.1125C31.0499 39.2075 31.3724 39.2187 31.6806 39.1447C31.9889 39.0707 32.2712 38.9144 32.4975 38.6925L35.7 35.49C35.9388 35.2711 36.251 35.1497 36.575 35.1497C36.899 35.1497 37.2112 35.2711 37.45 35.49L42.7 40.74C42.9267 40.9749 43.0534 41.2886 43.0534 41.615C43.0534 41.9414 42.9267 42.2551 42.7 42.49L42.84 42.63ZM52.5 5.25V17.5C52.5 17.9641 52.3156 18.4092 51.9875 18.7374C51.6593 19.0656 51.2141 19.25 50.75 19.25C50.2859 19.25 49.8408 19.0656 49.5126 18.7374C49.1844 18.4092 49 17.9641 49 17.5V9.4675L36.2425 22.2425C36.0798 22.4065 35.8863 22.5367 35.673 22.6256C35.4598 22.7144 35.231 22.7601 35 22.7601C34.769 22.7601 34.5403 22.7144 34.327 22.6256C34.1138 22.5367 33.9202 22.4065 33.7575 22.2425C33.5935 22.0798 33.4633 21.8863 33.3745 21.673C33.2856 21.4598 33.2399 21.231 33.2399 21C33.2399 20.769 33.2856 20.5402 33.3745 20.327C33.4633 20.1137 33.5935 19.9202 33.7575 19.7575L46.5325 7H38.5C38.0359 7 37.5908 6.81563 37.2626 6.48744C36.9344 6.15925 36.75 5.71413 36.75 5.25C36.75 4.78587 36.9344 4.34075 37.2626 4.01256C37.5908 3.68437 38.0359 3.5 38.5 3.5H50.75C51.2141 3.5 51.6593 3.68437 51.9875 4.01256C52.3156 4.34075 52.5 4.78587 52.5 5.25Z" fill="#FEC100"/>
</svg>