<svg xmlns="http://www.w3.org/2000/svg" width="30" height="30" viewBox="0 0 30 30" fill="none">
  <path d="M10.1027 19.1063H10.104C10.1051 19.1063 10.1061 19.1061 10.1072 19.1061H24.7857C24.9616 19.1061 25.1327 19.0488 25.2731 18.9428C25.4136 18.8369 25.5157 18.6881 25.5641 18.5189L28.8025 7.1845C28.8369 7.06404 28.8429 6.93723 28.82 6.81405C28.7971 6.69087 28.7459 6.57469 28.6705 6.47464C28.595 6.37459 28.4974 6.29341 28.3852 6.23751C28.273 6.1816 28.1494 6.1525 28.0241 6.15247H8.23559L7.65688 3.54804C7.61689 3.36821 7.51678 3.2074 7.37307 3.09214C7.22937 2.97688 7.05066 2.91406 6.86644 2.91406H2.00882C1.56165 2.91406 1.19922 3.27649 1.19922 3.72367C1.19922 4.17084 1.56165 4.53327 2.00882 4.53327H6.21708C6.31953 4.99474 8.98657 16.9967 9.14007 17.6872C8.27968 18.0612 7.67604 18.9192 7.67604 19.9157C7.67604 21.2549 8.76566 22.3445 10.1049 22.3445H24.7857C25.2328 22.3445 25.5953 21.9821 25.5953 21.5349C25.5953 21.0878 25.2328 20.7253 24.7857 20.7253H10.1049C9.65849 20.7253 9.29525 20.3621 9.29525 19.9157C9.29525 19.47 9.65725 19.1074 10.1027 19.1063ZM26.9507 7.77168L24.1749 17.4869H10.7543L8.59532 7.77168H26.9507ZM9.29525 24.7733C9.29525 26.1126 10.3849 27.2021 11.7241 27.2021C13.0632 27.2021 14.1529 26.1125 14.1529 24.7733C14.1529 23.4341 13.0632 22.3445 11.7241 22.3445C10.3849 22.3445 9.29525 23.4341 9.29525 24.7733ZM11.7241 23.9637C12.1704 23.9637 12.5337 24.327 12.5337 24.7733C12.5337 25.2197 12.1704 25.5829 11.7241 25.5829C11.2777 25.5829 10.9145 25.2197 10.9145 24.7733C10.9145 24.327 11.2777 23.9637 11.7241 23.9637ZM20.7376 24.7733C20.7376 26.1126 21.8273 27.2021 23.1664 27.2021C24.5056 27.2021 25.5953 26.1125 25.5953 24.7733C25.5953 23.4341 24.5056 22.3445 23.1664 22.3445C21.8273 22.3445 20.7376 23.4341 20.7376 24.7733ZM23.1664 23.9637C23.6128 23.9637 23.976 24.327 23.976 24.7733C23.976 25.2197 23.6128 25.5829 23.1664 25.5829C22.7201 25.5829 22.3568 25.2197 22.3568 24.7733C22.3568 24.327 22.7201 23.9637 23.1664 23.9637Z" fill="#071431"/>
</svg>