<svg xmlns="http://www.w3.org/2000/svg" width="16" height="17" viewBox="0 0 16 17" fill="none">
  <path d="M8.59351 4.63428H3.40682C2.26682 4.63428 1.3335 5.5676 1.3335 6.7076V14.2809C1.3335 15.2476 2.02683 15.6609 2.87349 15.1876L5.49349 13.7276C5.77349 13.5743 6.22683 13.5743 6.50016 13.7276L9.12016 15.1876C9.96682 15.6609 10.6602 15.2476 10.6602 14.2809V6.7076C10.6668 5.5676 9.73351 4.63428 8.59351 4.63428Z" stroke="#798090" stroke-width="1.5" stroke-linecap="round" stroke-linejoin="round"/>
  <path d="M10.6668 6.7076V14.2809C10.6668 15.2476 9.9735 15.6543 9.12683 15.1876L6.50684 13.7276C6.22684 13.5743 5.77349 13.5743 5.49349 13.7276L2.87349 15.1876C2.02683 15.6543 1.3335 15.2476 1.3335 14.2809V6.7076C1.3335 5.5676 2.26682 4.63428 3.40682 4.63428H8.59351C9.73351 4.63428 10.6668 5.5676 10.6668 6.7076Z" stroke="#798090" stroke-linecap="round" stroke-linejoin="round"/>
  <path d="M14.6668 4.12093V11.6943C14.6668 12.6609 13.9735 13.0676 13.1268 12.6009L10.6668 11.2276V6.7076C10.6668 5.5676 9.73351 4.63428 8.59351 4.63428H5.3335V4.12093C5.3335 2.98093 6.26682 2.04761 7.40682 2.04761H12.5935C13.7335 2.04761 14.6668 2.98093 14.6668 4.12093Z" stroke="#798090" stroke-linecap="round" stroke-linejoin="round"/>
</svg>