<svg xmlns="http://www.w3.org/2000/svg" width="20" height="21" viewBox="0 0 20 21" fill="none">
  <path d="M6.86922 6.83096L1.55255 7.60179L1.45838 7.62096C1.31583 7.6588 1.18588 7.7338 1.08179 7.83829C0.977707 7.94279 0.903219 8.07303 0.865934 8.21573C0.82865 8.35843 0.829905 8.50846 0.869572 8.65052C0.909239 8.79257 0.985896 8.92155 1.09172 9.02429L4.94338 12.7735L4.03505 18.0693L4.02422 18.161C4.01549 18.3084 4.0461 18.4555 4.11292 18.5872C4.17974 18.7189 4.28037 18.8305 4.4045 18.9106C4.52862 18.9906 4.67179 19.0362 4.81934 19.0427C4.96689 19.0492 5.11352 19.0164 5.24422 18.9476L9.99922 16.4476L14.7434 18.9476L14.8267 18.986C14.9643 19.0401 15.1138 19.0567 15.2598 19.0341C15.4059 19.0114 15.5434 18.9503 15.658 18.857C15.7727 18.7637 15.8605 18.6416 15.9124 18.5032C15.9643 18.3647 15.9785 18.215 15.9534 18.0693L15.0442 12.7735L18.8975 9.02346L18.9625 8.95262C19.0554 8.83826 19.1163 8.70133 19.139 8.55579C19.1617 8.41024 19.1454 8.26127 19.0918 8.12407C19.0382 7.98686 18.9492 7.86632 18.8338 7.77472C18.7184 7.68312 18.5808 7.62374 18.435 7.60262L13.1184 6.83096L10.7417 2.01429C10.6729 1.87474 10.5665 1.75722 10.4344 1.67504C10.3023 1.59287 10.1498 1.54932 9.99422 1.54932C9.83864 1.54932 9.68616 1.59287 9.55406 1.67504C9.42195 1.75722 9.31549 1.87474 9.24672 2.01429L6.86922 6.83096Z" fill="#FEC100"/>
</svg>