<svg xmlns="http://www.w3.org/2000/svg" width="24" height="24" viewBox="0 0 16 17" fill="none">
  <path d="M9.98636 8.63478L10.8951 7.72603C10.9612 7.97341 11 8.23203 11 8.50003C11 10.1543 9.65423 11.5 7.99999 11.5C7.73199 11.5 7.47336 11.4613 7.22599 11.3952L8.13474 10.4864C8.61507 10.4538 9.06732 10.2482 9.40775 9.9078C9.74818 9.56737 9.95374 9.11512 9.98636 8.63478ZM15.937 8.25716C15.8755 8.14653 15.0032 6.61816 13.2982 5.32291L12.5706 6.05053C13.8139 6.96466 14.6016 8.03078 14.9117 8.50078C14.3191 9.40316 11.9944 12.5 7.99999 12.5C7.40099 12.5 6.84399 12.4234 6.31986 12.3012L5.49824 13.1228C6.25361 13.3544 7.08386 13.5 7.99999 13.5C13.2341 13.5 15.8291 8.93703 15.937 8.74291C15.9783 8.66863 16 8.58503 16 8.50003C16 8.41503 15.9783 8.33144 15.937 8.25716ZM13.8535 3.35353L2.85349 14.3535C2.75586 14.4512 2.62786 14.5 2.49999 14.5C2.37211 14.5 2.24411 14.4512 2.14649 14.3535C2.10003 14.3071 2.06317 14.252 2.03803 14.1914C2.01288 14.1307 1.99994 14.0657 1.99994 14C1.99994 13.9344 2.01288 13.8694 2.03803 13.8087C2.06317 13.748 2.10003 13.6929 2.14649 13.6465L3.54599 12.247C1.28349 10.8812 0.133861 8.87053 0.0629858 8.74291C0.0216782 8.6686 0 8.58499 0 8.49997C0 8.41495 0.0216782 8.33134 0.0629858 8.25703C0.170861 8.06303 2.76586 3.50003 7.99999 3.50003C9.35336 3.50003 10.5256 3.80878 11.5277 4.26528L13.1465 2.64653C13.3419 2.45116 13.6582 2.45116 13.8535 2.64653C14.0487 2.84191 14.0489 3.15828 13.8535 3.35353ZM4.29161 11.5014L5.55749 10.2355C5.20786 9.74503 4.99999 9.14691 4.99999 8.50003C4.99999 6.84578 6.34574 5.50003 7.99999 5.50003C8.64686 5.50003 9.24499 5.70791 9.73549 6.05741L10.7591 5.03378C9.95036 4.70991 9.03136 4.50003 7.99999 4.50003C4.00561 4.50003 1.68086 7.59691 1.08836 8.49928C1.46461 9.06953 2.54611 10.513 4.29161 11.5014ZM6.28336 9.50953L9.00948 6.78341C8.71211 6.60778 8.36973 6.50003 7.99999 6.50003C6.89724 6.50003 5.99999 7.39728 5.99999 8.50003C5.99999 8.86978 6.10774 9.21216 6.28336 9.50953Z" fill="#6A7283"/>
</svg>