<svg xmlns="http://www.w3.org/2000/svg" width="20" height="21" viewBox="0 0 20 21" fill="none">
  <path d="M2.15065 16.3417L2.13398 16.3584C1.90898 15.8667 1.76732 15.3084 1.70898 14.6917C1.76732 15.3 1.92565 15.85 2.15065 16.3417ZM7.50065 9.15002C8.02666 9.15002 8.53113 8.94106 8.90308 8.56911C9.27503 8.19716 9.48398 7.6927 9.48398 7.16668C9.48398 6.64067 9.27503 6.1362 8.90308 5.76425C8.53113 5.39231 8.02666 5.18335 7.50065 5.18335C6.97464 5.18335 6.47017 5.39231 6.09822 5.76425C5.72628 6.1362 5.51732 6.64067 5.51732 7.16668C5.51732 7.6927 5.72628 8.19716 6.09822 8.56911C6.47017 8.94106 6.97464 9.15002 7.50065 9.15002Z" fill="white"/>
  <path d="M13.492 2.16663H6.50866C3.47533 2.16663 1.66699 3.97496 1.66699 7.00829V13.9916C1.66699 14.9 1.82533 15.6916 2.13366 16.3583C2.85033 17.9416 4.38366 18.8333 6.50866 18.8333H13.492C16.5253 18.8333 18.3337 17.025 18.3337 13.9916V7.00829C18.3337 3.97496 16.5253 2.16663 13.492 2.16663ZM16.9753 10.9166C16.3253 10.3583 15.2753 10.3583 14.6253 10.9166L11.1587 13.8916C10.5087 14.45 9.45866 14.45 8.80866 13.8916L8.52533 13.6583C7.93366 13.1416 6.99199 13.0916 6.32533 13.5416L3.20866 15.6333C3.02533 15.1666 2.91699 14.625 2.91699 13.9916V7.00829C2.91699 4.65829 4.15866 3.41663 6.50866 3.41663H13.492C15.842 3.41663 17.0837 4.65829 17.0837 7.00829V11.0083L16.9753 10.9166Z" fill="white"/>
</svg>