<svg xmlns="http://www.w3.org/2000/svg" width="28" height="28" viewBox="0 0 28 28" fill="none">
  <g clip-path="url(#clip0_13517_19)">
    <path d="M19.8901 7.73383C18.2935 8.06719 16.583 8.26452 14.8204 8.31145V13.1796H20.5902C20.537 11.2621 20.2978 9.41867 19.8901 7.73383ZM5.76828 13.1796C5.82237 11.1331 6.07845 9.158 6.51731 7.34518C5.08012 6.94176 3.76518 6.4202 2.62481 5.79335C1.06292 7.94861 0.153963 10.4926 0 13.1796H5.76828ZM5.76828 14.8204H0C0.153963 17.5073 1.06292 20.0514 2.62476 22.2066C3.76512 21.5798 5.08012 21.0582 6.51731 20.6548C6.07845 18.842 5.82232 16.8669 5.76828 14.8204ZM16.3593 0.948135C15.8576 0.523766 15.3425 0.237882 14.8204 0.0912476V6.67047C16.4314 6.62563 17.9899 6.44896 19.4428 6.15362C19.1762 5.33868 18.8663 4.57324 18.5147 3.87004C17.883 2.60672 17.1578 1.6236 16.3593 0.948135ZM6.95825 22.232C5.75723 22.5693 4.65351 22.9946 3.68396 23.4998C3.81426 23.6414 3.94737 23.7805 4.08322 23.9168C5.66043 25.494 7.54714 26.6491 9.60642 27.3257C9.02956 26.6439 8.49608 25.8205 8.01773 24.8638C7.61294 24.0542 7.25891 23.1717 6.95825 22.232ZM9.48533 3.87004C9.13376 4.57324 8.82381 5.33868 8.55717 6.15362C10.0101 6.44896 11.5686 6.62563 13.1796 6.67047V0.0912476C12.6574 0.237936 12.1424 0.523766 11.6407 0.948135C10.8422 1.6236 10.117 2.60672 9.48533 3.87004ZM22.2317 14.8204C22.1776 16.8669 21.9216 18.842 21.4827 20.6548C22.9199 21.0582 24.2349 21.5798 25.3752 22.2066C26.9371 20.0514 27.846 17.5074 28 14.8204H22.2317ZM21.0417 5.76803C22.2428 5.43073 23.3465 5.00543 24.316 4.50022C24.1857 4.35856 24.0526 4.21954 23.9167 4.08324C22.3396 2.50609 20.4528 1.35101 18.3935 0.674338C18.9704 1.35615 19.5039 2.17957 19.9822 3.13622C20.387 3.94579 20.7411 4.82833 21.0417 5.76803ZM18.5146 24.13C18.8662 23.4268 19.1761 22.6613 19.4428 21.8464C17.9899 21.551 16.4314 21.3744 14.8204 21.3295V27.9087C15.3425 27.7621 15.8576 27.4763 16.3592 27.0518C17.1578 26.3764 17.883 25.3934 18.5146 24.13ZM21.4827 7.34523C21.9216 9.15806 22.1776 11.1331 22.2317 13.1796H28C27.846 10.4927 26.9371 7.94867 25.3752 5.79346C24.2349 6.42025 22.9199 6.94181 21.4827 7.34523ZM14.8204 14.8204V19.6885C16.583 19.7355 18.2934 19.9328 19.8901 20.2661C20.2978 18.5813 20.537 16.7379 20.5902 14.8204H14.8204ZM13.1796 13.1796V8.31145C11.4169 8.26452 9.70651 8.06719 8.10989 7.73383C7.70215 9.41873 7.46291 11.2621 7.40975 13.1796H13.1796ZM6.95825 5.76803C7.25885 4.82828 7.61294 3.94579 8.01773 3.13622C8.49608 2.17957 9.02956 1.3561 9.60642 0.674338C7.5472 1.35101 5.66043 2.50609 4.08322 4.08329C3.94736 4.2196 3.81424 4.35863 3.68396 4.50028C4.65351 5.00543 5.75723 5.43073 6.95825 5.76803ZM21.0417 22.232C20.7411 23.1717 20.3871 24.0542 19.9823 24.8638C19.5039 25.8204 18.9704 26.6439 18.3936 27.3257C20.4528 26.6491 22.3396 25.494 23.9168 23.9168C24.0527 23.7805 24.1858 23.6414 24.316 23.4998C23.3465 22.9946 22.2428 22.5693 21.0417 22.232ZM13.1796 14.8204H7.40975C7.46291 16.7379 7.70215 18.5813 8.10989 20.2661C9.70645 19.9328 11.4169 19.7355 13.1796 19.6885V14.8204ZM11.6407 27.0519C12.1424 27.4763 12.6575 27.7621 13.1796 27.9088V21.3296C11.5686 21.3744 10.0101 21.5511 8.55717 21.8464C8.82381 22.6614 9.1337 23.4268 9.48533 24.13C10.117 25.3934 10.8422 26.3764 11.6407 27.0519Z" fill="white"/>
  </g>
  <defs>
    <clipPath id="clip0_13517_19">
      <rect width="28" height="28" fill="white"/>
    </clipPath>
  </defs>
</svg>