<svg xmlns="http://www.w3.org/2000/svg" width="24" height="24" viewBox="0 0 24 24" fill="none">
  <path d="M12.1431 12.5981C10.1007 12.5981 8.43774 10.9352 8.43774 8.89279C8.43774 6.8504 10.1007 5.18744 12.1431 5.18744C14.1855 5.18744 15.8484 6.8504 15.8484 8.89279C15.8484 10.9352 14.1855 12.5981 12.1431 12.5981ZM12.1431 6.66958C10.9159 6.66958 9.91988 7.66558 9.91988 8.89279C9.91988 10.12 10.9159 11.116 12.1431 11.116C13.3703 11.116 14.3663 10.12 14.3663 8.89279C14.3663 7.66558 13.3703 6.66958 12.1431 6.66958Z" fill="#071431"/>
  <path d="M12.1437 22.4781C10.709 22.4781 9.31876 22.1965 8.00855 21.6422C6.7428 21.1086 5.60748 20.3409 4.63223 19.3656C3.65699 18.3904 2.8922 17.2551 2.35567 15.9893C1.80135 14.6821 1.52271 13.2918 1.52271 11.8571C1.52271 10.4224 1.80431 9.03217 2.35863 7.72196C2.8922 6.45621 3.65995 5.3209 4.6352 4.34565C5.61045 3.3704 6.74577 2.60562 8.01151 2.06908C9.32172 1.51476 10.712 1.23315 12.1467 1.23315C13.5814 1.23315 14.9716 1.51476 16.2818 2.06908C17.5476 2.60265 18.6829 3.3704 19.6582 4.34565C20.6334 5.3209 21.3982 6.45621 21.9347 7.72196C22.489 9.03217 22.7707 10.4224 22.7707 11.8571C22.7707 13.2918 22.489 14.6821 21.9347 15.9923C21.4012 17.258 20.6334 18.3934 19.6582 19.3686C18.6829 20.3439 17.5476 21.1086 16.2818 21.6452C14.9687 22.1995 13.5784 22.4781 12.1437 22.4781ZM12.1437 2.71826C7.10444 2.71826 3.00484 6.81786 3.00484 11.8571C3.00484 16.8964 7.10444 20.996 12.1437 20.996C17.183 20.996 21.2826 16.8964 21.2826 11.8571C21.2826 6.81786 17.183 2.71826 12.1437 2.71826Z" fill="#071431"/>
  <path d="M6.24474 20.5039H6.20324C5.79417 20.4802 5.48292 20.1304 5.50367 19.7243C5.57777 18.3755 5.80009 16.843 6.89391 15.7077C7.42748 15.1563 8.1063 14.7561 8.96891 14.4864C9.84041 14.2137 10.8779 14.0833 12.1407 14.0833C13.4035 14.0833 14.4439 14.2166 15.3125 14.4864C16.1751 14.7561 16.8539 15.1563 17.3875 15.7077C18.4783 16.84 18.7036 18.3726 18.7777 19.7243C18.8014 20.1333 18.4872 20.4831 18.0781 20.5039C17.6691 20.5276 17.3193 20.2134 17.2985 19.8043C17.2155 18.2777 16.9221 17.3588 16.3233 16.7363C15.5644 15.9448 14.1979 15.5624 12.1437 15.5624C10.0894 15.5624 8.72287 15.9448 7.96105 16.7333C7.3593 17.3558 7.0688 18.2747 6.98284 19.8013C6.96505 20.1986 6.63602 20.5039 6.24474 20.5039Z" fill="#071431"/>
</svg>