<svg xmlns="http://www.w3.org/2000/svg" width="62" height="61" viewBox="0 0 62 61" fill="none">
  <g clip-path="url(#clip0_13508_108)">
    <path d="M29.8523 20.823C31.9629 20.6222 34.0178 21.0179 35.748 22.2942C37.078 23.2752 38.2897 24.6879 38.8058 26.2944C38.9296 26.6801 38.9755 27.1326 39.0367 27.5348C39.4116 30.0029 39.0439 32.203 37.5404 34.2384C36.7005 35.3758 35.2269 36.4839 33.9034 36.9608C33.2313 37.2028 32.5674 37.3025 31.8651 37.4045L31.7753 37.4192C29.6655 37.6527 27.5425 37.0981 25.8581 35.804C24.2198 34.5454 22.9706 32.5833 22.7058 30.5106C22.3798 27.9592 22.9123 25.7358 24.4921 23.7072C25.7934 22.0362 27.799 21.0905 29.8523 20.823Z" fill="#FEFE00"/>
    <path d="M30.5189 22.1391C32.0648 21.9877 33.8393 22.5513 35.0687 23.4917C36.5364 24.6143 37.5443 26.2764 37.7895 28.123C38.0542 30.118 37.5149 31.9667 36.3045 33.5579C35.0964 35.1461 33.2959 35.8595 31.3915 36.1165C29.4998 36.2051 27.7905 35.6529 26.3288 34.4358C25.0422 33.3647 24.1123 31.5466 23.9631 29.878C23.7893 27.9345 24.3887 26.028 25.6297 24.5292C26.881 23.0181 28.6242 22.3073 30.5189 22.1391Z" fill="#FEC100"/>
    <path d="M20.0608 0.0608072C20.4057 0.00304483 20.7737 0.0310003 21.1196 0.0698788C21.4621 0.108387 21.7987 0.241068 22.1319 0.328514C25.6454 1.25086 27.9422 4.20686 30.0928 6.95119C29.697 8.35279 28.7185 9.72705 28.0316 11.007C27.0281 12.8767 26.146 14.8102 25.1686 16.6934C24.6897 17.6165 24.0822 18.4817 23.6374 19.4143C22.9139 19.074 22.2798 18.6508 21.6251 18.1932C20.8565 17.5066 19.7053 16.964 18.8268 16.4075C17.3133 15.4487 15.791 14.5047 14.2782 13.5449C13.0279 12.7517 11.7786 11.8483 10.4099 11.2834C10.6563 10.5985 11.1132 10.0272 11.5056 9.42331C12.122 8.47517 12.7392 7.52906 13.3659 6.58783C14.6575 4.6481 15.8969 2.66727 17.2578 0.776295C18.1877 0.438422 19.1518 0.386029 20.0608 0.0608072Z" fill="black"/>
    <path d="M55.2092 19.0646L55.5769 19.1023C55.9185 19.9964 56.4578 20.8168 56.8831 21.6752C57.8871 23.7025 58.8719 25.7388 59.8853 27.7614C60.3819 28.7525 60.8912 29.7127 61.3002 30.7468C61.4813 31.2053 61.6838 31.633 61.6826 32.1358C61.6786 33.9495 60.4164 35.3029 59.2079 36.4937C58.1736 37.5127 56.8153 38.5841 55.3896 38.9671C54.8377 39.1153 54.0815 39.0599 53.51 39.0691C51.8791 39.096 50.247 39.0717 48.6161 39.0596L48.4126 38.9796L42.2284 27.2847C42.1868 27.1804 42.1177 27.06 42.1659 26.9536C42.2186 26.8374 42.2925 26.7613 42.3965 26.6899C42.8361 26.388 43.3372 26.1727 43.7945 25.8979C44.3904 25.5395 44.9453 25.1164 45.5393 24.7562C46.1053 24.4131 46.7081 24.1341 47.2728 23.7898C49.582 22.3823 51.8378 20.8443 54.1948 19.5177C54.515 19.3375 54.8689 19.2014 55.2092 19.0646Z" fill="black"/>
    <path d="M1.31937 19.1063L14.9297 19.0995C15.1946 19.9328 15.7175 20.6073 16.1246 21.3661C17.6482 24.2065 19.1758 27.0388 20.6515 29.9045C20.8765 30.3415 21.5562 31.3012 21.5574 31.7382L21.3834 31.898C20.8259 31.9901 17.8518 30.0416 17.0836 29.7145L14.3375 35.5847L12.6354 39.405C11.4149 39.3322 10.1709 39.3797 8.94712 39.3761C8.38642 39.3744 7.74666 39.4187 7.196 39.3046C6.24225 39.1069 5.20553 38.5976 4.38788 38.0718C3.86192 37.7337 3.41127 37.2661 2.96454 36.8309C1.81353 35.7103 0.40539 34.2411 0.0647994 32.5977C0.0158372 32.361 0.0172466 32.1321 0.0955004 31.9022C0.508952 30.6875 1.27298 29.4831 1.82511 28.3229C2.7913 26.2924 3.59327 24.0551 4.83405 22.1726L0.601668 19.6609L0.573051 19.6473L0.534812 19.4821C0.803461 19.1306 0.901692 19.1712 1.31937 19.1063Z" fill="black"/>
    <path d="M0.778625 36.4947C0.881759 36.5104 1.06174 36.5124 1.15225 36.5521C1.30115 36.6174 1.53261 36.8722 1.66093 36.9857C1.96475 37.2542 2.28567 37.4966 2.61413 37.7334C3.25076 38.1925 4.00051 38.6109 4.69377 38.9737C5.26826 39.2744 6.27422 39.5502 6.91294 39.685C7.61422 39.8329 8.43144 39.7607 9.14933 39.7604C10.523 39.7591 11.8961 39.746 13.2693 39.7431C18.1025 39.7322 22.9358 39.7532 27.7689 39.7401L27.7591 55.3909C27.4503 55.4807 27.0804 55.4512 26.7592 55.4542C24.3568 55.4785 21.9526 55.4647 19.55 55.4634C18.3774 55.4627 17.0364 55.5877 15.8818 55.4286C15.216 55.3368 14.5356 55.0334 13.9338 54.7406C13.0344 54.3034 12.1988 53.8056 11.4268 53.1661C10.5111 52.4075 9.6813 51.4608 8.8335 50.6222C7.97503 49.7731 7.36524 48.8457 6.69772 47.8487C6.05405 46.8871 5.38248 45.9522 4.81632 44.9401C3.78328 43.0931 2.95551 41.1273 2.00709 39.2413C1.80322 38.8359 1.62404 38.3997 1.41477 38.0043C1.1623 37.5268 0.783467 37.0601 0.778625 36.4947Z" fill="black"/>
    <path d="M27.0739 0.010491L41.3925 0C44.535 0.155205 46.4583 2.8854 47.9004 5.40658C48.5018 6.4584 48.9649 7.49831 49.7849 8.40788C50.4844 8.00657 51.1555 7.56434 51.8475 7.15075C52.1836 6.94975 52.5474 6.68297 52.931 6.59534L53.044 6.73184C53.0772 7.58946 47.7759 16.677 46.9064 18.2145C46.7195 18.5879 46.5404 18.9358 46.2766 19.2605C45.9233 19.4125 45.468 19.3768 45.0893 19.3785C44.3374 19.3819 43.5851 19.3827 42.8332 19.3827C40.3735 19.383 37.8927 19.4455 35.4356 19.3446C34.4876 19.3056 33.5583 19.1841 32.6148 19.107C32.3495 19.0853 32.0909 19.1397 31.8274 19.0913C31.6397 19.0567 31.6223 19.0638 31.5157 18.907C31.8455 18.2313 33.0232 17.8305 33.6621 17.4608C34.3248 17.0773 34.8866 16.673 35.5904 16.346C35.2321 15.7902 35.0523 15.1684 34.7905 14.5666C34.4284 13.7345 34.0227 12.9152 33.6175 12.1036C32.8324 10.5297 31.9077 9.06591 30.9553 7.59273C30.2972 6.5746 29.6289 5.51581 28.8569 4.58051C28.381 4.00387 27.8141 3.49993 27.3028 2.95545C26.2849 1.87172 25.3609 0.92574 24.1118 0.0943575L27.0739 0.010491Z" fill="black"/>
    <path d="M39.121 35.5204L39.3197 35.5915L39.459 39.7529C39.7036 39.6371 39.9615 39.5039 40.2305 39.4637C41.256 39.3102 42.4456 39.4203 43.4854 39.4184C46.4935 39.4128 49.5472 39.3581 52.534 39.7217C52.9727 39.7752 53.5578 39.832 53.9894 39.7152C54.1499 39.6719 54.2798 39.5486 54.4446 39.5197C54.7986 39.458 55.1669 39.4954 55.519 39.4141C55.77 39.3564 55.9937 39.1911 56.2282 39.0884C56.6861 38.8884 57.1603 38.75 57.6096 38.5238C58.2359 38.2082 58.8679 37.7409 59.4229 37.3116C59.6397 37.144 59.7755 37.002 60.0546 37.0397C60.1937 37.4294 59.644 38.2158 59.4788 38.6192C59.3727 38.8783 59.3212 39.159 59.2359 39.4256C58.9376 40.3576 58.3882 41.2621 57.9916 42.1604C56.3597 45.8551 54.8009 49.2464 51.8022 52.0468C51.2024 52.6069 50.5352 53.2366 49.8018 53.6098C46.7266 55.5184 42.8797 55.1515 39.433 55.1289C39.5375 55.7651 39.4659 56.4561 39.446 57.0995C39.4144 58.1326 39.4109 59.1682 39.2444 60.1905C39.1181 59.9487 38.997 59.6739 38.8345 59.4558C38.6479 59.205 38.4205 59.0381 38.2597 58.7537C36.6227 55.8628 34.966 52.9844 33.3831 50.0624C32.9881 49.3337 32.4311 48.6108 32.1265 47.8487C32.2822 47.0442 32.9832 46.227 33.3791 45.4973C34.5563 43.3266 35.7606 41.1815 36.9737 39.0311C37.2766 38.4945 37.6055 37.9623 37.8933 37.4195C38.2271 36.7902 38.5879 35.9969 39.121 35.5204Z" fill="black"/>
  </g>
  <defs>
    <clipPath id="clip0_13508_108">
      <rect width="61.7143" height="60.1905" fill="white"/>
    </clipPath>
  </defs>
</svg>