<svg xmlns="http://www.w3.org/2000/svg" width="24" height="25" viewBox="0 0 24 25" fill="none">
  <path d="M21.5999 22.0286V14.9966C21.5999 11.5406 20.8559 8.90061 16.8239 8.90061C14.8799 8.90061 13.5839 9.95661 13.0559 10.9646H13.0079V9.21261H9.1919V22.0286H13.1759V15.6686C13.1759 13.9886 13.4879 12.3806 15.5519 12.3806C17.5919 12.3806 17.6159 14.2766 17.6159 15.7646V22.0046H21.5999V22.0286ZM2.7119 9.21261H6.6959V22.0286H2.7119V9.21261ZM4.7039 2.82861C3.4319 2.82861 2.3999 3.86061 2.3999 5.13261C2.3999 6.40461 3.4319 7.46061 4.7039 7.46061C5.9759 7.46061 7.0079 6.40461 7.0079 5.13261C7.0079 3.86061 5.9759 2.82861 4.7039 2.82861Z" fill="white"/>
</svg>