<svg xmlns="http://www.w3.org/2000/svg" width="24" height="25" viewBox="0 0 24 25" fill="none">
  <path d="M9.69592 13.6765H7.31992C6.93592 13.6765 6.81592 13.5325 6.81592 13.1725V10.2685C6.81592 9.88454 6.95992 9.76454 7.31992 9.76454H9.69592V7.65254C9.69592 6.69254 9.86392 5.78054 10.3439 4.94054C10.8479 4.07654 11.5679 3.50054 12.4799 3.16454C13.0799 2.94854 13.6799 2.85254 14.3279 2.85254H16.6799C17.0159 2.85254 17.1599 2.99654 17.1599 3.33254V6.06854C17.1599 6.40454 17.0159 6.54854 16.6799 6.54854C16.0319 6.54854 15.3839 6.54854 14.7359 6.57254C14.0879 6.57254 13.7519 6.88454 13.7519 7.55654C13.7279 8.27654 13.7519 8.97254 13.7519 9.71654H16.5359C16.9199 9.71654 17.0639 9.86054 17.0639 10.2445V13.1485C17.0639 13.5325 16.9439 13.6525 16.5359 13.6525H13.7519V21.4765C13.7519 21.8845 13.6319 22.0285 13.1999 22.0285H10.1999C9.83992 22.0285 9.69592 21.8845 9.69592 21.5245V13.6765Z" fill="white"/>
</svg>