<svg xmlns="http://www.w3.org/2000/svg" width="24" height="25" viewBox="0 0 24 25" fill="none">
  <path d="M23.2366 6.49386C22.9773 5.52994 22.2173 4.77011 21.2535 4.51055C19.4928 4.02881 12.4499 4.02881 12.4499 4.02881C12.4499 4.02881 5.40727 4.02881 3.64658 4.49231C2.70133 4.75159 1.92283 5.53012 1.66355 6.49386C1.2002 8.25441 1.2002 11.9056 1.2002 11.9056C1.2002 11.9056 1.2002 15.5752 1.66355 17.3173C1.92308 18.2811 2.6828 19.041 3.64672 19.3005C5.4258 19.7824 12.4502 19.7824 12.4502 19.7824C12.4502 19.7824 19.4928 19.7824 21.2535 19.3189C22.2174 19.0595 22.9773 18.2996 23.2368 17.3359C23.7 15.5752 23.7 11.9241 23.7 11.9241C23.7 11.9241 23.7186 8.25438 23.2366 6.49386ZM10.2076 15.2787V8.53246L16.0641 11.9056L10.2076 15.2787Z" fill="white"/>
</svg>