<svg xmlns="http://www.w3.org/2000/svg" width="25" height="25" viewBox="0 0 25 25" fill="none">
  <path d="M18.3125 21.5938H7.20312C7.01664 21.5938 6.8378 21.5197 6.70594 21.3879C6.57408 21.256 6.5 21.0772 6.5 20.8907V10.5154C6.5 10.3289 6.57408 10.1501 6.70594 10.0182C6.8378 9.88634 7.01664 9.81226 7.20312 9.81226H18.3125C18.499 9.81226 18.6778 9.88634 18.8097 10.0182C18.9415 10.1501 19.0156 10.3289 19.0156 10.5154V20.8907C19.0156 21.0772 18.9415 21.256 18.8097 21.3879C18.6778 21.5197 18.499 21.5938 18.3125 21.5938ZM7.90625 20.1876H17.6094V11.2185H7.90625V20.1876Z" fill="#071431"/>
  <path d="M16.9844 11.2185H8.53516C8.34868 11.2185 8.16983 11.1444 8.03797 11.0125C7.90611 10.8807 7.83203 10.7018 7.83203 10.5153V7.67751C7.8447 6.37892 8.36945 5.13782 9.2922 4.22403C10.215 3.31023 11.4611 2.79761 12.7598 2.79761C14.0584 2.79761 15.3046 3.31023 16.2273 4.22403C17.1501 5.13782 17.6748 6.37892 17.6875 7.67751V10.5153C17.6875 10.7018 17.6134 10.8807 17.4816 11.0125C17.3497 11.1444 17.1709 11.2185 16.9844 11.2185ZM9.23828 9.8122H16.2812V7.67751C16.2706 6.7506 15.8948 5.86527 15.2356 5.21359C14.5763 4.56191 13.6867 4.19643 12.7598 4.19643C11.8328 4.19643 10.9432 4.56191 10.2839 5.21359C9.6247 5.86527 9.24898 6.7506 9.23828 7.67751V9.8122Z" fill="#071431"/>
  <path d="M12.7598 17.0314C12.3287 17.0314 11.9072 16.9035 11.5488 16.664C11.1903 16.4245 10.911 16.0841 10.746 15.6858C10.581 15.2875 10.5379 14.8493 10.622 14.4264C10.7061 14.0036 10.9137 13.6152 11.2185 13.3104C11.5233 13.0056 11.9117 12.798 12.3345 12.7139C12.7573 12.6298 13.1956 12.6729 13.5939 12.8379C13.9922 13.0029 14.3326 13.2823 14.5721 13.6407C14.8116 13.9992 14.9395 14.4206 14.9395 14.8517C14.9388 15.4296 14.709 15.9836 14.3004 16.3923C13.8917 16.8009 13.3377 17.0308 12.7598 17.0314ZM12.7598 14.0782C12.6068 14.0782 12.4573 14.1236 12.3301 14.2086C12.2029 14.2936 12.1037 14.4144 12.0452 14.5557C11.9867 14.697 11.9713 14.8525 12.0012 15.0026C12.031 15.1526 12.1047 15.2904 12.2129 15.3986C12.321 15.5068 12.4588 15.5804 12.6089 15.6103C12.7589 15.6401 12.9144 15.6248 13.0557 15.5662C13.1971 15.5077 13.3179 15.4086 13.4029 15.2814C13.4878 15.1542 13.5332 15.0047 13.5332 14.8517C13.533 14.6466 13.4514 14.4501 13.3064 14.3051C13.1614 14.1601 12.9648 14.0785 12.7598 14.0782Z" fill="#071431"/>
  <path d="M12.7598 18.7343C12.5733 18.7343 12.3944 18.6603 12.2626 18.5284C12.1307 18.3965 12.0566 18.2177 12.0566 18.0312V16.3282C12.0566 16.1418 12.1307 15.9629 12.2626 15.8311C12.3944 15.6992 12.5733 15.6251 12.7598 15.6251C12.9462 15.6251 13.1251 15.6992 13.257 15.8311C13.3888 15.9629 13.4629 16.1418 13.4629 16.3282V18.0312C13.4629 18.2177 13.3888 18.3965 13.257 18.5284C13.1251 18.6603 12.9462 18.7343 12.7598 18.7343Z" fill="#071431"/>
</svg>