<svg xmlns="http://www.w3.org/2000/svg" width="24" height="24" viewBox="0 0 24 24" fill="none">
  <g clip-path="url(#clip0_13767_1521)">
    <path d="M11.2768 13.0106L11.2873 13.0081V13.0106H21.2303V13.0076L21.2413 13.0106L23.3863 5.00806H9.13281L11.2768 13.0106Z" fill="#071431"/>
    <path d="M9.823 15L6.105 1.35352H0.5V3.37502H4.583L8.295 17L8.307 16.9965V17H24.5V15H9.823Z" fill="#071431"/>
    <path d="M21.3848 22C22.4893 22 23.3848 21.1046 23.3848 20C23.3848 18.8954 22.4893 18 21.3848 18C20.2802 18 19.3848 18.8954 19.3848 20C19.3848 21.1046 20.2802 22 21.3848 22Z" fill="#071431"/>
    <path d="M10.3066 22C11.4112 22 12.3066 21.1046 12.3066 20C12.3066 18.8954 11.4112 18 10.3066 18C9.20207 18 8.30664 18.8954 8.30664 20C8.30664 21.1046 9.20207 22 10.3066 22Z" fill="#071431"/>
  </g>
  <defs>
    <clipPath id="clip0_13767_1521">
      <rect width="24" height="24" fill="white" transform="translate(0.5)"/>
    </clipPath>
  </defs>
</svg>