<svg xmlns="http://www.w3.org/2000/svg" width="20" height="20" viewBox="0 0 20 20" fill="none">
  <path d="M18.0917 16.9083L15.7334 14.5583C17.0118 12.9789 17.6355 10.9691 17.4758 8.9433C17.316 6.91756 16.3851 5.03034 14.8748 3.67079C13.3646 2.31125 11.3903 1.58304 9.35893 1.63634C7.3276 1.68963 5.39416 2.52036 3.95729 3.95723C2.52042 5.39409 1.68969 7.32754 1.6364 9.35887C1.5831 11.3902 2.31131 13.3646 3.67085 14.8748C5.0304 16.385 6.91762 17.316 8.94336 17.4757C10.9691 17.6355 12.9789 17.0118 14.5584 15.7333L16.9084 18.0916C16.9858 18.1697 17.078 18.2317 17.1796 18.274C17.2811 18.3164 17.39 18.3381 17.5 18.3381C17.61 18.3381 17.719 18.3164 17.8205 18.274C17.9221 18.2317 18.0142 18.1697 18.0917 18.0916C18.1698 18.0142 18.2318 17.922 18.2741 17.8205C18.3164 17.7189 18.3382 17.61 18.3382 17.5C18.3382 17.39 18.3164 17.281 18.2741 17.1795C18.2318 17.0779 18.1698 16.9858 18.0917 16.9083ZM3.33337 9.58331C3.33337 8.34717 3.69992 7.1388 4.38668 6.11099C5.07344 5.08319 6.04956 4.28211 7.1916 3.80906C8.33363 3.33601 9.5903 3.21224 10.8027 3.4534C12.0151 3.69456 13.1287 4.28981 14.0028 5.16389C14.8769 6.03797 15.4721 7.15161 15.7133 8.36399C15.9544 9.57637 15.8307 10.833 15.3576 11.9751C14.8846 13.1171 14.0835 14.0932 13.0557 14.78C12.0279 15.4668 10.8195 15.8333 9.58337 15.8333C7.92577 15.8333 6.33605 15.1748 5.16395 14.0027C3.99185 12.8306 3.33337 11.2409 3.33337 9.58331Z" fill="#071431"/>
</svg>