<svg xmlns="http://www.w3.org/2000/svg" width="24" height="25" viewBox="0 0 24 25" fill="none">
  <path d="M9.99959 14.7144L20.9996 3.71436M9.99959 14.7144L13.4996 21.7144C13.5435 21.8101 13.6139 21.8912 13.7025 21.9481C13.7912 22.005 13.8943 22.0352 13.9996 22.0352C14.1049 22.0352 14.208 22.005 14.2966 21.9481C14.3853 21.8912 14.4557 21.8101 14.4996 21.7144L20.9996 3.71436M9.99959 14.7144L2.99958 11.2144C2.90384 11.1705 2.82271 11.1 2.76583 11.0114C2.70895 10.9228 2.67871 10.8197 2.67871 10.7144C2.67871 10.609 2.70895 10.5059 2.76583 10.4173C2.82271 10.3287 2.90384 10.2582 2.99958 10.2144L20.9996 3.71436" stroke="#071431" stroke-width="2" stroke-linecap="round" stroke-linejoin="round"/>
</svg>