<svg xmlns="http://www.w3.org/2000/svg" width="24" height="25" viewBox="0 0 24 25" fill="none">
  <rect x="1.5" y="2.21436" width="21" height="21" rx="10.5" fill="#1275B1"/>
  <path d="M9.46392 7.98347C9.46392 8.68438 8.85639 9.25258 8.10696 9.25258C7.35753 9.25258 6.75 8.68438 6.75 7.98347C6.75 7.28256 7.35753 6.71436 8.10696 6.71436C8.85639 6.71436 9.46392 7.28256 9.46392 7.98347Z" fill="white"/>
  <path d="M6.93557 10.1854H9.25515V17.2144H6.93557V10.1854Z" fill="white"/>
  <path d="M12.9897 10.1854H10.6701V17.2144H12.9897C12.9897 17.2144 12.9897 15.0015 12.9897 13.618C12.9897 12.7876 13.2732 11.9535 14.4046 11.9535C15.6833 11.9535 15.6756 13.0403 15.6696 13.8822C15.6618 14.9827 15.6804 16.1057 15.6804 17.2144H18V13.5046C17.9804 11.1359 17.3631 10.0444 15.3325 10.0444C14.1265 10.0444 13.379 10.5919 12.9897 11.0872V10.1854Z" fill="white"/>
</svg>