<svg xmlns="http://www.w3.org/2000/svg" width="24" height="25" viewBox="0 0 24 25" fill="none">
  <path fill-rule="evenodd" clip-rule="evenodd" d="M12 23.9644C17.799 23.9644 22.5 19.2633 22.5 13.4644C22.5 7.66537 17.799 2.96436 12 2.96436C6.20101 2.96436 1.5 7.66537 1.5 13.4644C1.5 15.3475 1.99575 17.1149 2.86386 18.6431L1.5 23.9644L6.98615 22.6922C8.47603 23.5034 10.1842 23.9644 12 23.9644ZM12 22.349C16.9068 22.349 20.8846 18.3712 20.8846 13.4644C20.8846 8.55752 16.9068 4.57974 12 4.57974C7.09316 4.57974 3.11538 8.55752 3.11538 13.4644C3.11538 15.3589 3.70838 17.115 4.71888 18.557L3.92308 21.5413L6.95995 20.7821C8.39202 21.7703 10.1284 22.349 12 22.349Z" fill="#BFC8D0"/>
  <path d="M21 12.7144C21 17.6849 16.9706 21.7144 12 21.7144C10.1041 21.7144 8.34516 21.1281 6.89449 20.1271L3.81818 20.8962L4.62432 17.8732C3.60069 16.4124 3 14.6335 3 12.7144C3 7.74379 7.02944 3.71436 12 3.71436C16.9706 3.71436 21 7.74379 21 12.7144Z" fill="url(#paint0_linear_14622_1356)"/>
  <path fill-rule="evenodd" clip-rule="evenodd" d="M12 23.2144C17.799 23.2144 22.5 18.5133 22.5 12.7144C22.5 6.91537 17.799 2.21436 12 2.21436C6.20101 2.21436 1.5 6.91537 1.5 12.7144C1.5 14.5975 1.99575 16.3649 2.86386 17.8931L1.5 23.2144L6.98615 21.9422C8.47603 22.7534 10.1842 23.2144 12 23.2144ZM12 21.599C16.9068 21.599 20.8846 17.6212 20.8846 12.7144C20.8846 7.80752 16.9068 3.82974 12 3.82974C7.09316 3.82974 3.11538 7.80752 3.11538 12.7144C3.11538 14.6089 3.70838 16.365 4.71888 17.807L3.92308 20.7913L6.95995 20.0321C8.39202 21.0203 10.1284 21.599 12 21.599Z" fill="white"/>
  <path d="M9.37502 7.83939C9.12537 7.33796 8.7424 7.38235 8.35551 7.38235C7.66407 7.38235 6.58594 8.21056 6.58594 9.75194C6.58594 11.0152 7.14259 12.398 9.01831 14.4666C10.8285 16.4629 13.207 17.4956 15.1817 17.4604C17.1563 17.4253 17.5625 15.7261 17.5625 15.1522C17.5625 14.8979 17.4047 14.771 17.296 14.7365C16.6231 14.4136 15.382 13.8118 15.0996 13.6988C14.8172 13.5857 14.6698 13.7386 14.5781 13.8218C14.3221 14.0659 13.8144 14.7851 13.6406 14.9468C13.4668 15.1086 13.2077 15.0267 13.0999 14.9656C12.7031 14.8063 11.6272 14.3278 10.7696 13.4964C9.70899 12.4683 9.64675 12.1146 9.44693 11.7997C9.28707 11.5478 9.40437 11.3933 9.46291 11.3257C9.69142 11.062 10.007 10.655 10.1485 10.4527C10.29 10.2504 10.1776 9.94324 10.1102 9.75195C9.82033 8.92924 9.57474 8.24054 9.37502 7.83939Z" fill="white"/>
  <defs>
    <linearGradient id="paint0_linear_14622_1356" x1="19.875" y1="5.96435" x2="3" y2="21.7144" gradientUnits="userSpaceOnUse">
      <stop stop-color="#5BD066"/>
      <stop offset="1" stop-color="#27B43E"/>
    </linearGradient>
  </defs>
</svg>