<svg xmlns="http://www.w3.org/2000/svg" width="24" height="25" viewBox="0 0 24 25" fill="none">
  <circle cx="12" cy="12.7144" r="10.5" fill="white"/>
  <path d="M12 23.2144C17.799 23.2144 22.5 18.5133 22.5 12.7144C22.5 6.91537 17.799 2.21436 12 2.21436C6.20101 2.21436 1.5 6.91537 1.5 12.7144C1.5 16.9744 4.03702 20.642 7.68261 22.2885C7.6875 22.1749 7.69301 22.0707 7.69773 21.9814C7.70416 21.8597 7.70914 21.7655 7.70914 21.7125C7.70914 21.397 7.92368 19.8321 7.92368 19.8321L9.23618 14.4433C9.03426 14.1152 8.88281 13.4211 8.88281 12.891C8.88281 10.4427 10.2458 9.91266 11.0787 9.91266C12.1388 9.91266 12.3786 11.0611 12.3786 11.9067C12.3786 12.3539 12.1466 13.054 11.9079 13.7744C11.6548 14.5379 11.3942 15.3243 11.3942 15.8568C11.3942 16.8916 12.4165 17.4091 13.1232 17.4091C14.991 17.4091 16.7073 15.0617 16.7073 12.7143C16.7073 10.367 15.6094 7.52745 12.0126 7.52745C8.41587 7.52745 6.80048 10.266 6.80048 12.361C6.80048 13.7744 7.33053 14.8093 7.59556 14.986C7.67128 15.0533 7.8 15.2611 7.70914 15.5539C7.61827 15.8467 7.45253 16.5004 7.38101 16.7907C7.3726 16.858 7.29267 16.9724 7.04027 16.8916C6.72476 16.7907 4.71815 15.5286 4.71815 12.361C4.71815 9.19331 7.20433 5.50822 12.0126 5.50822C16.8209 5.50822 19.2819 8.73899 19.2819 12.7143C19.2819 16.6897 16.0637 19.2264 13.6154 19.2264C11.6567 19.2264 10.8894 18.3514 10.7506 17.9139L10.006 20.7534C9.8302 21.2245 9.50222 22.0712 9.09778 22.8081C10.0195 23.0727 10.9932 23.2144 12 23.2144Z" fill="#BB0F23"/>
</svg>